SplineFontDB: 3.0
FontName: Jost-Book
FullName: Jost* 400 Book
FamilyName: Jost*
Weight: Book
Copyright: This typeface is licensed under the SIL open font license.
UComments: "2016-6-10: Created with FontForge (http://fontforge.org)"
Version: 003.300
ItalicAngle: 0
UnderlinePosition: -100
UnderlineWidth: 50
Ascent: 800
Descent: 200
InvalidEm: 0
LayerCount: 2
Layer: 0 0 "Back" 1
Layer: 1 0 "Fore" 0
PreferredKerning: 4
XUID: [1021 31 -699969567 16188444]
FSType: 0
OS2Version: 0
OS2_WeightWidthSlopeOnly: 0
OS2_UseTypoMetrics: 0
CreationTime: 1465610489
ModificationTime: 1563287834
PfmFamily: 33
TTFWeight: 400
TTFWidth: 5
LineGap: 100
VLineGap: 0
OS2TypoAscent: 825
OS2TypoAOffset: 0
OS2TypoDescent: -225
OS2TypoDOffset: 0
OS2TypoLinegap: 100
OS2WinAscent: 900
OS2WinAOffset: 0
OS2WinDescent: 300
OS2WinDOffset: 0
HheadAscent: 1030
HheadAOffset: 0
HheadDescent: -350
HheadDOffset: 0
OS2CapHeight: 700
OS2XHeight: 460
OS2Vendor: 'PfEd'
Lookup: 1 0 0 "alt a" { "alt a"  } ['ss01' ('DFLT' <'dflt' > 'latn' <'dflt' > ) ]
Lookup: 1 0 0 "Tabular Numbers lookup" { "Tabular Numbers lookup"  } ['tnum' ('DFLT' <'dflt' > 'grek' <'dflt' > 'latn' <'dflt' > ) ]
Lookup: 258 0 0 "Lets get our kern on" { "kernin like nobodys business" [150,0,4] } ['kern' ('DFLT' <'dflt' > 'latn' <'dflt' > ) ]
MarkAttachClasses: 1
DEI: 91125
KernClass2: 16 14 "kernin like nobodys business"
 43 slash seven V W Wcircumflex uni040E uni0423
 175 quotedbl quotesingle asterisk grave dieresis ordfeminine macron degree acute ordmasculine circumflex breve dotaccent ring tilde quoteleft quoteright quotedblleft quotedblright
 25 nine question F P uni0420
 131 A L backslash Agrave Aacute Acircumflex Atilde Adieresis Aring Amacron Abreve Aogonek Lacute uni013B Lslash uni0410 uni0414 uni041C
 58 three eight B C germandbls uni0411 uni0412 uni0417 uni0421
 29 K X Z uni0416 uni041A uni0425

StartChar: H
Encoding: 72 72 0
GlifName: H_
Width: 672
VWidth: 0
Flags: HMW
LayerCount: 2
Fore
SplineSet
182 341 m 257
 208 420 l 257
 663 420 l 257
 636 341 l 257
 182 341 l 257
699 699 m 257
 786 700 l 257
 543 0 l 257
 464 0 l 257
 699 699 l 257
257 699 m 257
 343 700 l 257
 101 0 l 257
 22 0 l 257
 257 699 l 257
EndSplineSet
EndChar

StartChar: O
Encoding: 79 79 1
GlifName: O_
Width: 743
VWidth: 0
Flags: HMW
LayerCount: 2
Fore
SplineSet
189 350 m 256
 145 226 184 78 337 76 c 256
 494 74 635 210 685 350 c 256
 729 474 690 622 537 624 c 256
 380 626 239 490 189 350 c 256
101 350 m 256
 162 538 348 711 553 710 c 256
 752 709 828 521 773 350 c 256
 712 162 525 -11 320 -10 c 256
 121 -9 46 179 101 350 c 256
EndSplineSet
EndChar

StartChar: I
Encoding: 73 73 2
GlifName: I_
Width: 230
VWidth: 0
Flags: HMW
LayerCount: 2
Fore
SplineSet
257 700 m 257
 343 700 l 257
 101 0 l 257
 22 0 l 257
 257 700 l 257
EndSplineSet
EndChar

StartChar: C
Encoding: 67 67 3
GlifName: C_
Width: 644
VWidth: 0
Flags: HMW
LayerCount: 2
Fore
SplineSet
189 350 m 256
 146 229 182 79 332 76 c 256
 426 74 512 123 585 177 c 257
 550 66 l 257
 479 20 401 -11 315 -10 c 256
 118 -8 46 182 101 350 c 256
 162 537 345 708 549 710 c 256
 625 711 687 686 741 632 c 257
 705 521 l 257
 668 589 610 624 532 624 c 256
 378 623 239 489 189 350 c 256
EndSplineSet
EndChar

StartChar: E
Encoding: 69 69 4
GlifName: E_
Width: 517
VWidth: 0
Flags: HMW
LayerCount: 2
Fore
SplineSet
66 0 m 257
 92 80 l 257
 428 80 l 257
 401 0 l 257
 66 0 l 257
278 620 m 257
 304 700 l 257
 639 700 l 257
 612 620 l 257
 278 620 l 257
182 341 m 257
 209 420 l 257
 525 420 l 257
 498 341 l 257
 182 341 l 257
257 700 m 257
 343 700 l 257
 101 0 l 257
 22 0 l 257
 257 700 l 257
EndSplineSet
EndChar

StartChar: F
Encoding: 70 70 6
GlifName: F_
Width: 470
VWidth: 0
Flags: HMW
LayerCount: 2
Fore
SplineSet
278 620 m 257
 304 700 l 257
 602 700 l 257
 575 620 l 257
 278 620 l 257
182 341 m 257
 209 420 l 257
 497 420 l 257
 470 340 l 257
 182 341 l 257
257 700 m 257
 343 700 l 257
 101 0 l 257
 22 0 l 257
 257 700 l 257
EndSplineSet
EndChar

StartChar: G
Encoding: 71 71 7
GlifName: G_
Width: 729
VWidth: 0
Flags: HMW
LayerCount: 2
Fore
SplineSet
418 275 m 257
 447 354 l 257
 753 354 l 257
 686 171 530 -10 320 -10 c 256
 120 -10 45 179 101 350 c 256
 163 540 347 709 554 710 c 256
 662 711 744 659 784 559 c 257
 711 507 l 257
 683 586 621 625 537 624 c 256
 380 623 240 492 189 350 c 256
 145 226 184 77 337 76 c 256
 470 75 562 173 632 275 c 257
 418 275 l 257
EndSplineSet
EndChar

StartChar: T
Encoding: 84 84 8
GlifName: T_
Width: 437
VWidth: 0
Flags: HMW
LayerCount: 2
Fore
SplineSet
164 620 m 257
 193 700 l 257
 615 700 l 257
 587 620 l 257
 418 620 l 257
 205 0 l 257
 122 0 l 257
 335 620 l 257
 164 620 l 257
EndSplineSet
EndChar

StartChar: L
Encoding: 76 76 9
GlifName: L_
Width: 423
VWidth: 0
Flags: HMW
LayerCount: 2
Fore
SplineSet
259 700 m 257
 343 700 l 257
 130 80 l 257
 389 80 l 257
 361 0 l 257
 19 0 l 257
 259 700 l 257
EndSplineSet
EndChar

StartChar: D
Encoding: 68 68 10
GlifName: D_
Width: 639
VWidth: 0
Flags: HMW
LayerCount: 2
Fore
SplineSet
257 699 m 257
 343 700 l 257
 101 0 l 257
 22 0 l 257
 257 699 l 257
225 0 m 258
 63 0 l 257
 93 85 l 257
 242 85 l 258
 399 85 534 204 586 350 c 256
 633 481 585 615 434 615 c 258
 273 615 l 257
 303 700 l 257
 451 700 l 258
 647 700 726 525 669 350 c 256
 607 159 429 0 225 0 c 258
EndSplineSet
EndChar

StartChar: Q
Encoding: 81 81 11
GlifName: Q_
Width: 743
VWidth: 0
Flags: HMW
LayerCount: 2
Fore
SplineSet
189 350 m 256
 145 226 184 78 337 76 c 256
 494 74 635 210 685 350 c 256
 729 474 690 622 537 624 c 256
 380 626 239 490 189 350 c 256
101 350 m 256
 162 538 349 711 554 710 c 256
 753 709 828 521 773 350 c 256
 712 162 525 -11 320 -10 c 256
 121 -9 46 179 101 350 c 256
408 300 m 257
 505 300 l 257
 685 0 l 257
 588 0 l 257
 408 300 l 257
EndSplineSet
EndChar

StartChar: A
Encoding: 65 65 12
GlifName: A_
Width: 620
VWidth: 0
Flags: HMW
LayerCount: 2
Fore
SplineSet
156 210 m 257
 209 289 l 257
 504 289 l 257
 506 210 l 257
 156 210 l 257
446 542 m 257
 239 264 l 257
 226 246 l 257
 42 0 l 257
 -55 0 l 257
 507 738 l 257
 561 0 l 257
 473 0 l 257
 459 240 l 257
 459 260 l 257
 446 542 l 257
EndSplineSet
EndChar

StartChar: R
Encoding: 82 82 13
GlifName: R_
Width: 526
VWidth: 0
Flags: HMW
LayerCount: 2
Fore
SplineSet
256 345 m 257
 344 345 l 257
 461 0 l 257
 368 0 l 257
 256 345 l 257
257 700 m 257
 343 700 l 257
 101 0 l 257
 22 0 l 257
 257 700 l 257
276 625 m 257
 303 700 l 257
 433 700 l 258
 552 700 631 609 593 489 c 256
 554 364 428 280 301 280 c 258
 158 280 l 257
 185 355 l 257
 315 355 l 258
 399 355 480 409 510 490 c 256
 538 566 496 625 419 625 c 258
 276 625 l 257
EndSplineSet
EndChar

StartChar: V
Encoding: 86 86 14
GlifName: V_
Width: 620
VWidth: 0
Flags: HMW
LayerCount: 2
Fore
SplineSet
321 158 m 257
 706 699 l 257
 802 699 l 257
 266 -38 l 257
 187 700 l 257
 273 700 l 257
 321 158 l 257
EndSplineSet
EndChar

StartChar: M
Encoding: 77 77 15
GlifName: M_
Width: 762
VWidth: 0
Flags: HMW
LayerCount: 2
Fore
SplineSet
277 472 m 257
 65 0 l 257
 -20 0 l 257
 314 736 l 257
 402 231 l 257
 846 743 l 257
 670 0 l 257
 588 0 l 257
 701 464 l 257
 350 63 l 257
 277 472 l 257
EndSplineSet
EndChar

StartChar: W
Encoding: 87 87 16
GlifName: W_
Width: 931
VWidth: 0
Flags: HMW
LayerCount: 2
Fore
SplineSet
677 180 m 257
 1012 699 l 257
 1108 699 l 257
 618 -39 l 257
 590 505 l 257
 223 -39 l 257
 191 700 l 257
 280 700 l 257
 291 180 l 257
 659 739 l 257
 677 180 l 257
EndSplineSet
EndChar

StartChar: N
Encoding: 78 78 17
GlifName: N_
Width: 729
VWidth: 0
Flags: HMW
LayerCount: 2
Fore
SplineSet
758 700 m 257
 841 700 l 257
 589 -33 l 257
 282 522 l 257
 102 0 l 257
 18 0 l 257
 270 733 l 257
 578 178 l 257
 758 700 l 257
EndSplineSet
EndChar

StartChar: a
Encoding: 97 97 18
GlifName: a
Width: 456
VWidth: 0
Flags: HMW
LayerCount: 2
Fore
SplineSet
96 135 m 260
 82 89 115 64 157 62 c 260
 238 58 294 114 332 179 c 261
 331 128 l 261
 290 48 219 -10 125 -9 c 260
 43 -8 -7 53 17 133 c 260
 47 231 153 286 251 285 c 260
 305 284 346 265 380 224 c 261
 365 179 l 261
 329 208 291 225 244 224 c 260
 186 223 114 196 96 135 c 260
173 352 m 261
 154 416 l 261
 210 446 270 470 334 469 c 260
 418 468 489 417 459 330 c 262
 346 0 l 261
 267 0 l 261
 384 330 l 262
 399 371 367 396 320 398 c 260
 268 400 218 375 173 352 c 261
EndSplineSet
Substitution2: "alt a" a.alt
EndChar

StartChar: X
Encoding: 88 88 19
GlifName: X_
Width: 522
VWidth: 0
Flags: HMW
LayerCount: 2
Fore
SplineSet
583 699 m 257
 685 699 l 257
 382 363 l 257
 477 0 l 257
 386 0 l 257
 322 290 l 257
 72 0 l 257
 -30 0 l 257
 304 371 l 257
 216 700 l 257
 307 700 l 257
 363 444 l 257
 583 699 l 257
EndSplineSet
EndChar

StartChar: K
Encoding: 75 75 20
GlifName: K_
Width: 531
VWidth: 0
Flags: HMW
LayerCount: 2
Fore
SplineSet
257 700 m 257
 343 700 l 257
 101 0 l 257
 22 0 l 257
 257 700 l 257
594 699 m 257
 703 699 l 257
 299 368 l 257
 470 0 l 257
 377 0 l 257
 203 375 l 257
 594 699 l 257
EndSplineSet
EndChar

StartChar: Y
Encoding: 89 89 21
GlifName: Y_
Width: 527
VWidth: 0
Flags: HMW
LayerCount: 2
Fore
SplineSet
615 699 m 257
 713 699 l 257
 353 297 l 257
 250 0 l 257
 167 0 l 257
 274 307 l 257
 191 700 l 257
 278 700 l 257
 335 379 l 257
 615 699 l 257
EndSplineSet
EndChar

StartChar: B
Encoding: 66 66 22
GlifName: B_
Width: 525
VWidth: 0
Flags: HMW
LayerCount: 2
Fore
SplineSet
210 371 m 257
 225 416 l 257
 328 417 l 258
 392 418 460 456 483 520 c 256
 505 580 468 623 409 624 c 258
 316 625 l 257
 128 75 l 257
 219 76 l 258
 303 77 385 129 415 210 c 256
 443 287 398 342 321 343 c 258
 200 344 l 257
 216 389 l 257
 328 390 l 258
 439 387 532 326 495 204 c 256
 456 77 333 0 206 0 c 258
 19 0 l 257
 259 700 l 257
 423 700 l 258
 526 700 603 634 567 524 c 256
 533 420 423 374 321 371 c 258
 210 371 l 257
EndSplineSet
EndChar

StartChar: Z
Encoding: 90 90 23
GlifName: Z_
Width: 512
VWidth: 0
Flags: HMW
LayerCount: 2
Fore
SplineSet
188 620 m 257
 217 700 l 257
 683 699 l 257
 125 81 l 257
 451 80 l 257
 422 0 l 257
 -45 0 l 257
 514 619 l 257
 188 620 l 257
EndSplineSet
EndChar

StartChar: o
Encoding: 111 111 24
GlifName: o
Width: 513
VWidth: 0
Flags: HMW
LayerCount: 2
Fore
SplineSet
68 230 m 256
 104 356 227 469 362 469 c 256
 494 469 553 347 519 230 c 256
 483 104 360 -9 225 -9 c 256
 93 -9 34 113 68 230 c 256
146 230 m 256
 121 156 147 67 237 66 c 256
 329 65 413 147 441 230 c 256
 466 304 439 393 349 394 c 256
 257 395 174 313 146 230 c 256
EndSplineSet
EndChar

StartChar: J
Encoding: 74 74 25
GlifName: J_
Width: 225
VWidth: 0
Flags: HMW
LayerCount: 2
Fore
SplineSet
-157 -105 m 257
 -141 -126 -125 -142 -96 -140 c 256
 -48 -136 -12 -91 2 -50 c 258
 259 700 l 257
 338 700 l 257
 79 -61 l 258
 47 -145 -22 -221 -118 -219 c 256
 -161 -218 -190 -199 -218 -168 c 257
 -157 -105 l 257
EndSplineSet
EndChar

StartChar: t
Encoding: 116 116 26
GlifName: t
Width: 225
VWidth: 0
Flags: HMW
LayerCount: 2
Fore
SplineSet
110 460 m 257
 329 460 l 257
 302 385 l 257
 82 385 l 257
 110 460 l 257
230 619 m 257
 311 620 l 257
 96 0 l 257
 22 0 l 257
 230 619 l 257
EndSplineSet
EndChar

StartChar: d
Encoding: 100 100 27
GlifName: d
Width: 536
VWidth: 0
Flags: HMW
LayerCount: 2
Fore
SplineSet
604 779 m 257
 686 780 l 257
 416 0 l 257
 341 0 l 257
 604 779 l 257
55 230 m 256
 94 352 213 472 348 470 c 256
 480 468 487 328 455 230 c 256
 419 117 326 -8 196 -9 c 256
 62 -10 19 119 55 230 c 256
134 230 m 256
 107 157 127 66 219 66 c 256
 309 66 390 151 419 230 c 256
 443 298 430 390 343 394 c 256
 249 398 164 312 134 230 c 256
EndSplineSet
EndChar

StartChar: l
Encoding: 108 108 28
GlifName: l
Width: 216
VWidth: 0
Flags: HMW
LayerCount: 2
Fore
SplineSet
280 779 m 257
 361 780 l 257
 91 0 l 257
 17 0 l 257
 280 779 l 257
EndSplineSet
EndChar

StartChar: i
Encoding: 105 105 29
GlifName: i
Width: 244
VWidth: 0
Flags: HMW
LayerCount: 2
Fore
SplineSet
236 650 m 256
 236 680 260 704 290 704 c 256
 320 704 344 680 344 650 c 256
 344 620 320 596 290 596 c 256
 260 596 236 620 236 650 c 256
184 459 m 257
 266 459 l 257
 109 0 l 257
 31 0 l 257
 184 459 l 257
EndSplineSet
EndChar

StartChar: r
Encoding: 114 114 30
GlifName: r
Width: 322
VWidth: 0
Flags: HMW
LayerCount: 2
Fore
SplineSet
251 460 m 257
 92 0 l 257
 13 0 l 257
 173 460 l 257
 251 460 l 257
354 373 m 257
 339 384 324 394 304 395 c 256
 242 397 210 329 188 282 c 257
 151 282 l 257
 184 358 243 467 339 469 c 256
 371 470 392 455 415 435 c 257
 354 373 l 257
EndSplineSet
EndChar

StartChar: c
Encoding: 99 99 31
GlifName: c
Width: 449
VWidth: 0
Flags: HMW
LayerCount: 2
Fore
SplineSet
142 230 m 256
 117 155 143 69 233 66 c 256
 302 64 364 103 414 147 c 257
 386 48 l 257
 336 14 282 -9 220 -9 c 256
 88 -8 29 113 63 230 c 256
 99 357 221 468 357 469 c 256
 412 469 458 451 496 411 c 257
 467 311 l 257
 446 365 405 395 345 394 c 256
 252 393 170 315 142 230 c 256
EndSplineSet
EndChar

StartChar: b
Encoding: 98 98 32
GlifName: b
Width: 536
VWidth: 0
Flags: HMW
LayerCount: 2
Fore
SplineSet
356 780 m 257
 88 0 l 257
 9 0 l 257
 277 780 l 257
 356 780 l 257
529 230 m 256
 490 108 372 -12 237 -10 c 256
 105 -8 98 132 130 230 c 256
 166 343 259 468 389 469 c 256
 523 470 565 341 529 230 c 256
451 230 m 256
 478 303 458 394 366 394 c 256
 276 394 195 309 166 230 c 256
 142 162 155 70 242 66 c 256
 336 62 421 148 451 230 c 256
EndSplineSet
EndChar

StartChar: p
Encoding: 112 112 33
GlifName: p
Width: 536
VWidth: 0
Flags: HMW
LayerCount: 2
Fore
SplineSet
15 -219 m 257
 -67 -220 l 257
 169 460 l 257
 243 459 l 257
 15 -219 l 257
529 230 m 256
 490 108 372 -12 237 -10 c 256
 105 -8 98 132 130 230 c 256
 166 343 259 468 389 469 c 256
 523 470 565 341 529 230 c 256
451 230 m 256
 478 303 458 394 366 394 c 256
 276 394 195 309 166 230 c 256
 142 162 155 70 242 66 c 256
 336 62 421 148 451 230 c 256
EndSplineSet
EndChar

StartChar: q
Encoding: 113 113 34
GlifName: q
Width: 536
VWidth: 0
Flags: HMW
LayerCount: 2
Fore
SplineSet
263 -220 m 257
 497 460 l 257
 576 460 l 257
 342 -220 l 257
 263 -220 l 257
55 230 m 256
 94 352 213 472 348 470 c 256
 480 468 487 328 455 230 c 256
 419 117 326 -8 196 -9 c 256
 62 -10 19 119 55 230 c 256
134 230 m 256
 107 157 127 66 219 66 c 256
 309 66 390 151 419 230 c 256
 443 298 430 390 343 394 c 256
 249 398 164 312 134 230 c 256
EndSplineSet
EndChar

StartChar: h
Encoding: 104 104 35
GlifName: h
Width: 493
VWidth: 0
Flags: HMW
LayerCount: 2
Fore
SplineSet
361 780 m 257
 92 0 l 257
 14 0 l 257
 282 780 l 257
 361 780 l 257
390 280 m 258
 405 329 409 391 342 394 c 256
 271 397 220 337 188 282 c 257
 161 282 l 257
 199 370 268 469 375 469 c 256
 480 469 493 372 469 290 c 256
 369 0 l 257
 294 0 l 257
 390 280 l 258
EndSplineSet
EndChar

StartChar: n
Encoding: 110 110 36
GlifName: n
Width: 493
VWidth: 0
Flags: HMW
LayerCount: 2
Fore
SplineSet
251 460 m 257
 92 0 l 257
 13 0 l 257
 173 460 l 257
 251 460 l 257
390 280 m 258
 405 329 409 391 342 394 c 256
 271 397 220 337 188 282 c 257
 161 282 l 257
 199 370 268 469 375 469 c 256
 480 469 493 372 469 290 c 256
 369 0 l 257
 294 0 l 257
 390 280 l 258
EndSplineSet
EndChar

StartChar: m
Encoding: 109 109 37
GlifName: m
Width: 733
VWidth: 0
Flags: HMW
LayerCount: 2
Fore
SplineSet
371 280 m 258
 385 325 399 390 333 393 c 256
 264 397 218 336 188 282 c 257
 161 282 l 257
 198 368 261 468 366 469 c 256
 471 470 473 368 450 290 c 258
 350 0 l 257
 275 0 l 257
 371 280 l 258
251 460 m 257
 92 0 l 257
 13 0 l 257
 173 460 l 257
 251 460 l 257
709 290 m 258
 610 0 l 257
 531 0 l 257
 630 280 l 258
 645 325 657 390 591 393 c 256
 522 397 477 336 447 282 c 257
 406 282 l 257
 445 370 517 469 625 469 c 256
 730 469 732 368 709 290 c 258
EndSplineSet
EndChar

StartChar: k
Encoding: 107 107 38
GlifName: k
Width: 413
VWidth: 0
Flags: HMW
LayerCount: 2
Fore
SplineSet
275 779 m 257
 357 780 l 257
 87 0 l 257
 12 0 l 257
 275 779 l 257
399 459 m 257
 504 459 l 257
 239 258 l 257
 357 0 l 257
 268 0 l 257
 151 275 l 257
 399 459 l 257
EndSplineSet
EndChar

StartChar: u
Encoding: 117 117 39
GlifName: u
Width: 493
VWidth: 0
Flags: HMW
LayerCount: 2
Fore
SplineSet
291 0 m 257
 450 460 l 257
 529 460 l 257
 370 0 l 257
 291 0 l 257
153 180 m 258
 138 131 134 69 200 66 c 256
 271 63 322 123 354 178 c 257
 381 178 l 257
 343 90 274 -9 167 -9 c 256
 62 -9 49 88 73 170 c 256
 174 460 l 257
 248 459 l 257
 153 180 l 258
EndSplineSet
EndChar

StartChar: e
Encoding: 101 101 40
GlifName: e
Width: 484
VWidth: 0
Flags: HMW
LayerCount: 2
Fore
SplineSet
111 210 m 261
 131 278 l 261
 419 278 l 261
 435 339 415 397 341 399 c 260
 256 401 190 332 158 260 c 262
 146 230 l 261
 122 157 135 67 228 66 c 260
 292 65 343 108 389 149 c 261
 445 104 l 261
 380 41 301 -11 206 -9 c 260
 75 -6 38 120 68 230 c 260
 73 247 79 263 86 279 c 260
 133 381 235 470 352 469 c 260
 487 468 519 346 491 234 c 260
 489 226 486 218 484 210 c 261
 111 210 l 261
EndSplineSet
EndChar

StartChar: g
Encoding: 103 103 41
GlifName: g
Width: 536
VWidth: 0
Flags: HMW
LayerCount: 2
Fore
SplineSet
-25 -30 m 257
 52 -31 l 257
 42 -100 66.0109 -152.362 143 -154 c 256
 237 -156 313.973 -71.3685 342 10 c 258
 497 460 l 257
 576 460 l 257
 422 10 l 258
 379.602 -113.89 291 -228 142 -229 c 256
 19.999 -229.818 -48 -143 -25 -30 c 257
55 230 m 256
 94 352 213 472 348 470 c 256
 480 468 487 328 455 230 c 256
 419 117 326 -8 196 -9 c 256
 62 -10 19 119 55 230 c 256
134 230 m 256
 107 157 127 66 219 66 c 256
 309 66 390 151 419 230 c 256
 443 298 430 390 343 394 c 256
 249 398 164 312 134 230 c 256
EndSplineSet
EndChar

StartChar: f
Encoding: 102 102 42
GlifName: f
Width: 269
VWidth: 0
Flags: HMW
LayerCount: 2
Fore
SplineSet
139 460 m 257
 359 460 l 257
 332 385 l 257
 112 385 l 257
 139 460 l 257
430 685 m 257
 421 697 412 711 394 711 c 256
 351 710 328 653 315 620 c 258
 102 0 l 257
 23 0 l 257
 238 631 l 258
 266 707 324 793 416 789 c 256
 450 788 470 771 491 747 c 257
 430 685 l 257
EndSplineSet
EndChar

StartChar: s
Encoding: 115 115 43
GlifName: s
Width: 379
VWidth: 0
Flags: HMW
LayerCount: 2
Fore
SplineSet
95 161 m 257
 110 118 131 68 184 66 c 256
 219 65 265 87 276 122 c 256
 291 170 244 193 209 211 c 256
 152 240 101.967 279.295 121 351 c 256
 141.053 426.544 213 469 297 469 c 256
 361 469 405 434 431 378 c 257
 361 340 l 257
 343 369 321 395 284 396 c 256
 253 397 207 381 197 348 c 256
 183 302 247 285 277 270 c 256
 333 242 375 190 358 124 c 256
 337 41 264 -11 170 -10 c 256
 87.999 -9.12793 46 53 26 125 c 257
 95 161 l 257
EndSplineSet
EndChar

StartChar: y
Encoding: 121 121 44
GlifName: y
Width: 413
VWidth: 0
Flags: HMW
LayerCount: 2
Fore
SplineSet
522 459 m 257
 5 -219 l 257
 -87 -219 l 257
 135 70 l 257
 104 460 l 257
 184 460 l 257
 207 100 l 257
 175 105 l 257
 430 459 l 257
 522 459 l 257
EndSplineSet
EndChar

StartChar: w
Encoding: 119 119 45
GlifName: w
Width: 639
VWidth: 0
Flags: HMW
LayerCount: 2
Fore
SplineSet
109 460 m 257
 192 460 l 257
 196 166 l 257
 431 499 l 257
 439 164 l 257
 651 459 l 257
 743 459 l 257
 380 -39 l 257
 367 296 l 257
 126 -39 l 257
 109 460 l 257
EndSplineSet
EndChar

StartChar: v
Encoding: 118 118 46
GlifName: v
Width: 413
VWidth: 0
Flags: HMW
LayerCount: 2
Fore
SplineSet
108 460 m 257
 192 460 l 257
 214 141 l 257
 434 459 l 257
 526 459 l 257
 162 -38 l 257
 108 460 l 257
EndSplineSet
EndChar

StartChar: x
Encoding: 120 120 47
GlifName: x
Width: 395
VWidth: 0
Flags: HMW
LayerCount: 2
Fore
SplineSet
405 459 m 257
 499 459 l 257
 280 229 l 257
 359 0 l 257
 278 0 l 257
 220 177 l 257
 54 0 l 257
 -40 0 l 257
 197 247 l 257
 118 460 l 257
 199 460 l 257
 256 299 l 257
 405 459 l 257
EndSplineSet
EndChar

StartChar: z
Encoding: 122 122 48
GlifName: z
Width: 432
VWidth: 0
Flags: HMW
LayerCount: 2
Fore
SplineSet
355 385 m 257
 117 385 l 257
 144 460 l 257
 527 460 l 257
 126 75 l 257
 374 75 l 257
 347 0 l 257
 -45 0 l 257
 355 385 l 257
EndSplineSet
EndChar

StartChar: j
Encoding: 106 106 49
GlifName: j
Width: 235
VWidth: 0
Flags: HMW
LayerCount: 2
Fore
SplineSet
226 650 m 256
 226 680 250 704 280 704 c 256
 310 704 334 680 334 650 c 256
 334 620 310 596 280 596 c 256
 250 596 226 620 226 650 c 256
-113 -115 m 257
 -105 -128 -89 -140 -77 -141 c 256
 -35 -145 -9 -80 2 -50 c 258
 177 460 l 257
 256 460 l 257
 79 -61 l 258
 51 -137 4 -223 -88 -219 c 256
 -122 -218 -152 -201 -174 -177 c 257
 -113 -115 l 257
EndSplineSet
EndChar

StartChar: P
Encoding: 80 80 50
GlifName: P_
Width: 515
VWidth: 0
Flags: HMW
LayerCount: 2
Fore
SplineSet
257 699 m 257
 343 700 l 257
 101 0 l 257
 22 0 l 257
 257 699 l 257
274 620 m 257
 303 700 l 257
 433 700 l 258
 552 700 631 609 593 489 c 256
 554 364 428 280 301 280 c 258
 158 280 l 257
 187 360 l 257
 317 360 l 256
 400 364 480 409 510 490 c 256
 538 567 493 618 417 619 c 258
 274 620 l 257
EndSplineSet
EndChar

StartChar: U
Encoding: 85 85 51
GlifName: U_
Width: 589
VWidth: 0
Flags: HMW
LayerCount: 2
Fore
SplineSet
255 700 m 257
 338 700 l 257
 175 230 l 258
 152 155 164.979 71 259 71 c 256
 375 71 431.925 145.647 461 230 c 258
 623 700 l 257
 706 700 l 257
 545 230 l 258
 501.54 103.13 417 -9 245 -9 c 256
 108 -9 54 113 94 230 c 258
 255 700 l 257
EndSplineSet
EndChar

StartChar: S
Encoding: 83 83 52
GlifName: S_
Width: 515
VWidth: 0
Flags: HMW
LayerCount: 2
Fore
SplineSet
126 226 m 257
 134 155 153 72 241 71 c 256
 310 70 374 119 398 183 c 256
 428 264 366 307 302 338 c 256
 221 377 166 435 196 531 c 256
 229 635 335 709 444 709 c 256
 539 709 585 643 603 558 c 257
 525 515 l 257
 512 572 486 627 419 628 c 256
 360 629 300 585 281 529 c 256
 256 455 330 423 383 396 c 256
 466 354 515 284 486 189 c 256
 452 77 339 -9 221 -9 c 256
 107 -9 58 84 45 185 c 257
 126 226 l 257
EndSplineSet
EndChar

StartChar: at
Encoding: 64 64 53
GlifName: at
Width: 724
VWidth: 0
Flags: HMW
LayerCount: 2
Fore
SplineSet
305 320 m 256
 291 280 296 235 346 231 c 256
 419 225 490 307 510 370 c 256
 523 411 514 457 464 459 c 256
 393 462 325 380 305 320 c 256
231 318 m 256
 260 416 365 535 477 529 c 256
 563 525 565 433 545 369 c 256
 515 272 427 158 314 161 c 256
 228 164 210 248 231 318 c 256
86 320 m 256
 152 522 350 712 572 710 c 256
 751 708 825 547 773 390 c 256
 740 291 647 141 525 150 c 256
 454 155 462 220 477 271 c 257
 470 271 l 257
 588 519 l 257
 664 519 l 257
 542 289 l 258
 538 280 532 271 530 262 c 256
 525 243 524 223 547 217 c 256
 617 198 686 341 704 390 c 256
 749 511 706 641 562 644 c 256
 377 647 213 485 155 320 c 256
 110 192 150 60 302 56 c 256
 376 54 446 78 512 107 c 257
 529 47 l 257
 454 12 375 -10 292 -9 c 256
 100 -6 31 151 86 320 c 256
EndSplineSet
EndChar

StartChar: period
Encoding: 46 46 54
GlifName: period
Width: 282
VWidth: 0
Flags: HMW
LayerCount: 2
Fore
SplineSet
46 40 m 260
 46 70 70 94 100 94 c 260
 130 94 154 70 154 40 c 260
 154 10 130 -14 100 -14 c 260
 70 -14 46 10 46 40 c 260
EndSplineSet
EndChar

StartChar: comma
Encoding: 44 44 55
GlifName: comma
Width: 289
VWidth: 0
Flags: HMW
LayerCount: 2
Fore
SplineSet
119 108 m 257
 191 76 l 257
 2 -168 l 257
 -51 -147 l 257
 119 108 l 257
EndSplineSet
EndChar

StartChar: colon
Encoding: 58 58 56
GlifName: colon
Width: 282
VWidth: 0
Flags: HMW
LayerCount: 2
Fore
SplineSet
46 40 m 256
 46 70 70 94 100 94 c 256
 130 94 154 70 154 40 c 256
 154 10 130 -14 100 -14 c 256
 70 -14 46 10 46 40 c 256
176 420 m 256
 176 450 200 474 230 474 c 256
 260 474 284 450 284 420 c 256
 284 390 260 366 230 366 c 256
 200 366 176 390 176 420 c 256
EndSplineSet
EndChar

StartChar: semicolon
Encoding: 59 59 57
GlifName: semicolon
Width: 310
VWidth: 0
Flags: HMW
LayerCount: 2
Fore
SplineSet
205 420 m 256
 205 450 229 474 259 474 c 256
 289 474 313 450 313 420 c 256
 313 390 289 366 259 366 c 256
 229 366 205 390 205 420 c 256
119 108 m 257
 191 76 l 257
 2 -168 l 257
 -51 -147 l 257
 119 108 l 257
EndSplineSet
EndChar

StartChar: quotedbl
Encoding: 34 34 58
GlifName: quotedbl
Width: 437
VWidth: 0
Flags: HMW
LayerCount: 2
Fore
SplineSet
301 699 m 257
 398 699 l 257
 218 402 l 257
 163 401 l 257
 301 699 l 257
470 699 m 257
 567 699 l 257
 387 402 l 257
 332 401 l 257
 470 699 l 257
EndSplineSet
EndChar

StartChar: exclam
Encoding: 33 33 59
GlifName: exclam
Width: 282
VWidth: 0
Flags: HMW
LayerCount: 2
Fore
SplineSet
276 700 m 257
 376 700 l 257
 187 201 l 257
 127 201 l 257
 276 700 l 257
46 40 m 256
 46 70 71 95 101 95 c 256
 131 95 156 70 156 40 c 256
 156 10 131 -15 101 -15 c 256
 71 -15 46 10 46 40 c 256
EndSplineSet
EndChar

StartChar: quotesingle
Encoding: 39 39 60
GlifName: quotesingle
Width: 268
VWidth: 0
Flags: HMW
LayerCount: 2
Fore
SplineSet
301 699 m 257
 398 699 l 257
 218 402 l 257
 163 401 l 257
 301 699 l 257
EndSplineSet
EndChar

StartChar: numbersign
Encoding: 35 35 61
GlifName: numbersign
Width: 569
VWidth: 0
Flags: HMW
LayerCount: 2
Fore
SplineSet
166 441 m 257
 187 504 l 257
 655 504 l 257
 634 441 l 257
 506 440 l 257
 493 440 l 257
 312 440 l 257
 299 440 l 257
 166 441 l 257
47 201 m 257
 67 264 l 257
 187 265 l 257
 202 265 l 257
 390 265 l 257
 409 265 l 257
 535 264 l 257
 515 201 l 257
 47 201 l 257
609 699 m 257
 688 699 l 257
 286 0 l 257
 210 0 l 257
 341 228 l 257
 352 246 l 257
 474 462 l 257
 483 478 l 257
 609 699 l 257
411 699 m 257
 490 699 l 257
 364 482 l 257
 355 466 l 257
 229 244 l 257
 219 226 l 257
 88 0 l 257
 16 0 l 257
 411 699 l 257
EndSplineSet
EndChar

StartChar: hyphen
Encoding: 45 45 62
GlifName: hyphen
Width: 197
VWidth: 0
Flags: HMW
LayerCount: 2
Fore
SplineSet
19 201 m 257
 44 275 l 257
 236 275 l 257
 210 201 l 257
 19 201 l 257
EndSplineSet
EndChar

StartChar: dollar
Encoding: 36 36 63
GlifName: dollar
Width: 545
VWidth: 0
Flags: HMW
LayerCount: 2
Fore
SplineSet
460 817 m 257
 532 817 l 257
 485 669 l 257
 414 669 l 257
 460 817 l 257
224 47 m 257
 295 47 l 257
 245 -111 l 257
 174 -111 l 257
 224 47 l 257
541 514 m 257
 528 570 507 626 441 628 c 256
 381 630 318 593 299 534 c 256
 274 457 348 424 404 396 c 256
 487 355 539 285 513 189 c 256
 482 75 374 -10 255 -9 c 256
 141 -8 89 83 73 184 c 257
 152 226 l 257
 163 154 186 72 274 71 c 256
 342 71 405 119 426 183 c 256
 453 265 388 306 324 338 c 256
 242 378 187 446 215 541 c 256
 244 640 354 710 455 709 c 256
 548 708 600 643 618 558 c 257
 541 514 l 257
EndSplineSet
EndChar

StartChar: bar
Encoding: 124 124 64
GlifName: bar
Width: 257
VWidth: 0
Flags: HMW
LayerCount: 2
Fore
SplineSet
300 784 m 257
 372 784 l 257
 65 -214 l 257
 -7 -214 l 257
 300 784 l 257
EndSplineSet
EndChar

StartChar: zero
Encoding: 48 48 65
GlifName: zero
Width: 564
VWidth: 0
Flags: HMW
LayerCount: 2
Fore
SplineSet
184 350 m 256
 156 270 108 74 246 71 c 256
 384 68 472 240 511 350 c 256
 539 430 587 626 449 629 c 256
 311 632 223 460 184 350 c 256
101 350 m 256
 152 504 279 710 464 709 c 256
 653 708 635 476 594 350 c 256
 543 196 416 -10 231 -9 c 256
 42 -8 60 224 101 350 c 256
EndSplineSet
Substitution2: "Tabular Numbers lookup" uniFF10
EndChar

StartChar: one
Encoding: 49 49 66
GlifName: one
Width: 423
VWidth: 0
Flags: HMW
LayerCount: 2
Fore
SplineSet
209 561 m 257
 242 652 l 257
 492 711 l 257
 247 0 l 257
 164 0 l 257
 372 605 l 257
 209 561 l 257
EndSplineSet
Substitution2: "Tabular Numbers lookup" uniFF11
EndChar

StartChar: two
Encoding: 50 50 67
GlifName: two
Width: 535
VWidth: 0
Flags: HMW
LayerCount: 2
Fore
SplineSet
-16 0 m 257
 400 353 l 258
 448 394 501 443 520 506 c 256
 539 569 506 628 437 630 c 256
 339 633 279 540 245 461 c 257
 163 461 l 257
 209 586 304 711 451 710 c 256
 562 709 635 617 605 509 c 256
 583 428 521 360 458 307 c 258
 178 81 l 257
 477 80 l 257
 452 0 l 257
 -16 0 l 257
EndSplineSet
Substitution2: "Tabular Numbers lookup" uniFF12
EndChar

StartChar: four
Encoding: 52 52 68
GlifName: four
Width: 548
VWidth: 0
Flags: HMW
LayerCount: 2
Fore
SplineSet
13 142 m 257
 565 698 l 257
 602 699 l 257
 363 0 l 257
 280 0 l 257
 341 176 l 257
 345 187 l 257
 454 500 l 257
 174 216 l 257
 383 215 l 257
 399 215 l 257
 542 215 l 257
 517 140 l 257
 13 142 l 257
EndSplineSet
Substitution2: "Tabular Numbers lookup" uniFF14
EndChar

StartChar: slash
Encoding: 47 47 69
GlifName: slash
Width: 484
VWidth: 0
Flags: HMW
LayerCount: 2
Fore
SplineSet
575 699 m 261
 660 699 l 261
 -14 -149 l 261
 -92 -148 l 261
 575 699 l 261
EndSplineSet
EndChar

StartChar: backslash
Encoding: 92 92 70
GlifName: backslash
Width: 484
VWidth: 0
Flags: HMW
LayerCount: 2
Fore
SplineSet
197 701 m 257
 278 700 l 257
 414 0 l 257
 340 0 l 257
 197 701 l 257
EndSplineSet
EndChar

StartChar: eight
Encoding: 56 56 71
GlifName: eight
Width: 513
VWidth: 0
Flags: HMW
LayerCount: 2
Fore
SplineSet
201 532 m 256
 232 629 336 710 439 709 c 256
 538 708 595 623 567 530 c 256
 536 429 435 356 330 356 c 256
 228 356 170 435 201 532 c 256
275 521 m 256
 257 470 277 413 337 411 c 256
 399 409 465 465 486 521 c 256
 505 572 487 632 425 634 c 256
 361 636 296 579 275 521 c 256
61 191 m 256
 96 303 212 390 330 389 c 256
 443 389 508 297 474 189 c 256
 439 79 321 -10 205 -9 c 256
 95 -8 29 87 61 191 c 256
142 200 m 256
 119 136 145 68 219 66 c 256
 295 64 375 130 400 200 c 256
 421 261 395 332 323 334 c 256
 248 336 167 267 142 200 c 256
EndSplineSet
Substitution2: "Tabular Numbers lookup" uniFF18
EndChar

StartChar: nine
Encoding: 57 57 72
GlifName: nine
Width: 541
VWidth: 0
Flags: HMW
LayerCount: 2
Fore
SplineSet
529 470 m 256
 554 544 526 631 437 632 c 256
 345 633 262 553 234 470 c 256
 209 396 235 307 325 306 c 256
 417 305 501 387 529 470 c 256
201 0 m 257
 91 0 l 257
 389 288 l 257
 397 280 l 257
 363 259 328 243 287 244 c 256
 166 247 127 369 156 470 c 256
 192 597 314 709 450 709 c 256
 584 709 641 588 607 470 c 256
 592 416 561 366 523 325 c 258
 201 0 l 257
EndSplineSet
Substitution2: "Tabular Numbers lookup" uniFF19
EndChar

StartChar: three
Encoding: 51 51 73
GlifName: three
Width: 513
VWidth: 0
Flags: HMW
LayerCount: 2
Fore
SplineSet
310 346 m 257
 325 400 l 257
 399 412 471 445 497 521 c 256
 515 573 499 630 437 632 c 256
 369 634 322 580 291 527 c 257
 211 528 l 257
 252 626 335 710 449 709 c 256
 552 708 609 619 581 523 c 256
 546 404 423 355 310 346 c 257
234 -9 m 256
 116 -9 60 74 77 185 c 257
 159 184 l 257
 152 119 176 72 248 71 c 256
 322 70 393 126 415 195 c 256
 443 282 377 315 303 325 c 257
 319 379 l 257
 433 371 533 314 496 184 c 256
 464 72 350 -9 234 -9 c 256
EndSplineSet
Substitution2: "Tabular Numbers lookup" uniFF13
EndChar

StartChar: five
Encoding: 53 53 74
GlifName: five
Width: 530
VWidth: 0
Flags: HMW
LayerCount: 2
Fore
SplineSet
531 230 m 256
 493 98 372 -9 231 -9 c 256
 131 -9 68 49 35 139 c 257
 116 185 l 257
 136 123 174 72 245 71 c 256
 338 70 418 145 446 230 c 256
 471 307 441 384 353 389 c 256
 285 393 220 359 161 329 c 257
 360 700 l 257
 675 700 l 257
 650 625 l 257
 405 625 l 257
 297 440 l 257
 330 453 364 465 400 465 c 256
 528 464 561 334 531 230 c 256
EndSplineSet
Substitution2: "Tabular Numbers lookup" uniFF15
EndChar

StartChar: six
Encoding: 54 54 75
GlifName: six
Width: 541
VWidth: 0
Flags: HMW
LayerCount: 2
Fore
SplineSet
160 230 m 256
 135 156 163 69 252 68 c 256
 344 67 427 147 455 230 c 256
 480 304 454 393 364 394 c 256
 272 395 188 313 160 230 c 256
488 699 m 257
 598 699 l 257
 300 412 l 257
 292 420 l 257
 326 441 361 457 402 456 c 256
 523 453 562 331 533 230 c 256
 497 103 375 -9 239 -9 c 256
 105 -9 48 112 82 230 c 256
 97 284 128 334 166 375 c 258
 488 699 l 257
EndSplineSet
Substitution2: "Tabular Numbers lookup" uniFF16
EndChar

StartChar: seven
Encoding: 55 55 76
GlifName: seven
Width: 493
VWidth: 0
Flags: HMW
LayerCount: 2
Fore
SplineSet
182 620 m 257
 208 700 l 257
 675 699 l 257
 142 0 l 257
 51 0 l 257
 523 619 l 257
 182 620 l 257
EndSplineSet
Substitution2: "Tabular Numbers lookup" uniFF17
EndChar

StartChar: plus
Encoding: 43 43 77
GlifName: plus
Width: 578
VWidth: 0
Flags: HMW
LayerCount: 2
Fore
SplineSet
81 216 m 257
 107 295 l 257
 567 295 l 257
 540 215 l 257
 81 216 l 257
363 499 m 257
 449 500 l 257
 278 10 l 257
 199 11 l 257
 363 499 l 257
EndSplineSet
EndChar

StartChar: equal
Encoding: 61 61 78
GlifName: equal
Width: 578
VWidth: 0
Flags: HMW
LayerCount: 2
Fore
SplineSet
56 141 m 257
 80 215 l 257
 540 215 l 257
 514 140 l 257
 56 141 l 257
107 291 m 257
 131 365 l 257
 591 365 l 257
 566 290 l 257
 107 291 l 257
EndSplineSet
EndChar

StartChar: percent
Encoding: 37 37 79
GlifName: percent
Width: 706
VWidth: 0
Flags: HMW
LayerCount: 2
Fore
SplineSet
165 551 m 256
 191 634 274 709 364 709 c 256
 453 709 490 627 466 549 c 256
 440 466 356 391 266 391 c 256
 177 391 141 473 165 551 c 256
233 550 m 256
 219 510 228 459 278 456 c 256
 329 453 381 505 397 550 c 256
 411 590 403 641 353 644 c 256
 302 647 249 595 233 550 c 256
372 151 m 256
 398 234 481 309 571 309 c 256
 660 309 696 227 672 149 c 256
 646 66 563 -9 473 -9 c 256
 384 -9 348 73 372 151 c 256
440 150 m 256
 426 110 435 59 485 56 c 256
 536 53 588 105 604 150 c 256
 618 190 609 241 559 244 c 256
 508 247 456 195 440 150 c 256
710 699 m 257
 791 699 l 257
 126 0 l 257
 51 0 l 257
 710 699 l 257
EndSplineSet
EndChar

StartChar: ampersand
Encoding: 38 38 80
GlifName: ampersand
Width: 635
VWidth: 0
Flags: HMW
LayerCount: 2
Fore
SplineSet
296 384 m 258
 266 439 228 491 245 557 c 256
 268 645 361 711 451 710 c 256
 538 709 591 637 567 553 c 256
 542 465 450 410 375 370 c 256
 292 326 173 288 142 188 c 256
 120 118 165 68 235 65 c 256
 390 58 524 217 626 314 c 257
 678 274 l 257
 555 155 405 -13 218 -9 c 256
 111 -7 28 73 58 183 c 256
 93 310 222 363 328 417 c 256
 386 447 468 487 489 554 c 256
 502 596 485 637 438 639 c 256
 390 641 340 600 326 556 c 256
 310 508 342 465 363 425 c 258
 580 0 l 257
 496 0 l 257
 296 384 l 258
EndSplineSet
EndChar

StartChar: question
Encoding: 63 63 81
GlifName: question
Width: 524
VWidth: 0
Flags: HMW
LayerCount: 2
Fore
SplineSet
507 500 m 256
 534 571 500 633 421 634 c 256
 356 635 302 594 256 553 c 257
 203 596 l 257
 270 659 349 711 445 709 c 256
 561 707 620 606 586 499 c 256
 548 381 435 311 318 290 c 257
 267 171 l 257
 209 171 l 257
 247 345 l 257
 270 345 l 256
 366 350 472 406 507 500 c 256
141 40 m 256
 141 69.7383 164.82 94 195 94 c 256
 227 94 249 66.6836 249 40 c 256
 249 10 225 -14 195 -14 c 256
 162.834 -14 141 12 141 40 c 256
EndSplineSet
EndChar

StartChar: parenleft
Encoding: 40 40 82
GlifName: parenleft
Width: 291
VWidth: 0
Flags: HMW
LayerCount: 2
Fore
SplineSet
396 778 m 257
 470 778 l 257
 363 629 281 465 226 290 c 256
 177 131 149 -35 169 -201 c 257
 99 -201 l 257
 71 -36 90 131 138 290 c 256
 192 468 279 634 396 778 c 257
EndSplineSet
EndChar

StartChar: parenright
Encoding: 41 41 83
GlifName: parenright
Width: 291
VWidth: 0
Flags: HMW
LayerCount: 2
Fore
SplineSet
6 -198 m 257
 -68 -198 l 257
 39 -49 121 115 176 290 c 256
 225 449 252 615 232 781 c 257
 303 781 l 257
 331 616 312 449 264 290 c 256
 210 112 123 -54 6 -198 c 257
EndSplineSet
EndChar

StartChar: asterisk
Encoding: 42 42 84
GlifName: asterisk
Width: 557
VWidth: 0
Flags: HMW
LayerCount: 2
Fore
SplineSet
593 598 m 257
 591 531 l 257
 397 482 l 257
 397 531 l 257
 593 598 l 257
485 365 m 257
 419 327 l 257
 372 492 l 257
 417 520 l 257
 485 365 l 257
258 329 m 257
 213 372 l 257
 380 518 l 257
 412 486 l 257
 258 329 l 257
220 534 m 257
 261 597 l 257
 414 528 l 257
 384 483 l 257
 220 534 l 257
430 699 m 257
 498 699 l 257
 421 506 l 257
 372 506 l 257
 430 699 l 257
EndSplineSet
EndChar

StartChar: less
Encoding: 60 60 85
GlifName: less
Width: 602
VWidth: 0
Flags: HMW
LayerCount: 2
Fore
SplineSet
221 255 m 257
 521 87 l 257
 494 17 l 257
 86 236 l 257
 101 280 l 257
 662 502 l 257
 633 415 l 257
 221 255 l 257
EndSplineSet
EndChar

StartChar: greater
Encoding: 62 62 86
GlifName: greater
Width: 602
VWidth: 0
Flags: HMW
LayerCount: 2
Fore
SplineSet
448 260 m 257
 149 428 l 257
 176 498 l 257
 583 279 l 257
 569 235 l 257
 8 13 l 257
 36 100 l 257
 448 260 l 257
EndSplineSet
EndChar

StartChar: bracketleft
Encoding: 91 91 87
GlifName: bracketleft
Width: 282
VWidth: 0
Flags: HMW
LayerCount: 2
Fore
SplineSet
355 705 m 257
 91 -145 l 257
 187 -145 l 257
 163 -220 l 257
 -10 -220 l 257
 299 780 l 257
 472 780 l 257
 449 706 l 257
 355 705 l 257
EndSplineSet
EndChar

StartChar: bracketright
Encoding: 93 93 88
GlifName: bracketright
Width: 282
VWidth: 0
Flags: HMW
LayerCount: 2
Fore
SplineSet
32 -145 m 257
 295 705 l 257
 200 705 l 257
 224 780 l 257
 396 780 l 257
 87 -220 l 257
 -86 -220 l 257
 -63 -146 l 257
 32 -145 l 257
EndSplineSet
EndChar

StartChar: asciicircum
Encoding: 94 94 89
GlifName: asciicircum
Width: 479
VWidth: 0
Flags: HMW
LayerCount: 2
Fore
SplineSet
403 620 m 257
 243 461 l 257
 158 461 l 257
 405 709 l 257
 444 710 l 257
 521 459 l 257
 449 459 l 257
 403 620 l 257
EndSplineSet
EndChar

StartChar: underscore
Encoding: 95 95 90
GlifName: underscore
Width: 470
VWidth: 0
Flags: HMW
LayerCount: 2
Fore
SplineSet
-100 -132 m 257
 -83 -79 l 257
 390 -79 l 257
 373 -132 l 257
 -100 -132 l 257
EndSplineSet
EndChar

StartChar: grave
Encoding: 96 96 91
GlifName: grave
Width: 352
VWidth: 0
Flags: HMW
LayerCount: 2
Fore
SplineSet
238 662 m 257
 319 700 l 257
 416 538 l 257
 367 511 l 257
 238 662 l 257
EndSplineSet
EndChar

StartChar: braceleft
Encoding: 123 123 92
GlifName: braceleft
Width: 292
VWidth: 0
Flags: HMW
LayerCount: 2
Fore
SplineSet
338 660 m 258
 286 490 l 258
 256 393 221 305 113 281 c 257
 118 300 l 257
 219 269 186 169 162 90 c 258
 108 -81 l 258
 99 -109 108 -128 137 -129 c 258
 173 -129 l 257
 152 -200 l 257
 97 -200 l 258
 25 -201 22 -114 39 -60 c 258
 104 150 l 258
 117 194 123 225 91 260 c 257
 109 320 l 257
 152 347 172 382 188 430 c 258
 252 641 l 258
 274 704 320 779 392 779 c 258
 452 779 l 257
 432 710 l 257
 400 710 l 258
 367 710 348 692 338 660 c 258
EndSplineSet
EndChar

StartChar: braceright
Encoding: 125 125 93
GlifName: braceright
Width: 292
VWidth: 0
Flags: HMW
LayerCount: 2
Fore
SplineSet
73 -80 m 258
 125 90 l 258
 155 187 191 275 299 299 c 257
 293 280 l 257
 192 311 225 411 249 490 c 258
 303 661 l 258
 312 689 303 708 274 709 c 258
 239 710 l 257
 259 780 l 257
 314 780 l 258
 386 780 389 694 372 640 c 258
 307 430 l 258
 294 386 288 355 320 320 c 257
 302 260 l 257
 259 233 239 198 223 150 c 258
 159 -61 l 258
 137 -124 92 -199 20 -199 c 258
 -41 -199 l 257
 -20 -130 l 257
 11 -130 l 258
 44 -130 63 -112 73 -80 c 258
EndSplineSet
EndChar

StartChar: asciitilde
Encoding: 126 126 94
GlifName: asciitilde
Width: 541
VWidth: 0
Flags: HMW
LayerCount: 2
Fore
SplineSet
155 176 m 257
 85 181 l 257
 86 189 86 198 88 206 c 256
 96 231 113 256 131 275 c 256
 160 304 202 326 244 326 c 256
 285 326 316 304 346 279 c 256
 361 266 381 247 403 248 c 256
 429 249 451 274 461 296 c 256
 465 304 465 314 465 323 c 257
 540 318 l 257
 539 309 539 298 536 289 c 256
 529 264 513 238 495 219 c 256
 470 193 432 172 395 173 c 256
 357 174 328 197 300 220 c 256
 280 236 258 253 231 252 c 256
 199 251 171 227 159 198 c 256
 156 191 156 183 155 176 c 257
EndSplineSet
EndChar

StartChar: exclamdown
Encoding: 161 161 95
GlifName: exclamdown
Width: 282
VWidth: 0
Flags: HMW
LayerCount: 2
Fore
SplineSet
53 -245 m 257
 -47 -245 l 257
 144 254 l 257
 203 254 l 257
 53 -245 l 257
281 413 m 256
 275 389 237 358 212 361 c 256
 185 364 170 391 176 417 c 256
 182 441 220 472 245 469 c 256
 272 466 287 439 281 413 c 256
EndSplineSet
EndChar

StartChar: cent
Encoding: 162 162 96
GlifName: cent
Width: 545
VWidth: 0
Flags: HMW
LayerCount: 2
Fore
SplineSet
221 37 m 257
 284 37 l 257
 232 -111 l 257
 170 -111 l 257
 221 37 l 257
177 230 m 256
 150 156 173 69 263 66 c 256
 333 64 396 103 447 147 c 257
 416 48 l 257
 366 14 310 -9 248 -9 c 256
 115 -8 62 114 99 230 c 256
 139 357 264 468 401 469 c 256
 456 469 500 450 537 410 c 257
 505 311 l 257
 486 366 446 395 387 394 c 256
 294 393 208 314 177 230 c 256
406 577 m 257
 468 577 l 257
 416 429 l 257
 354 429 l 257
 406 577 l 257
EndSplineSet
EndChar

StartChar: sterling
Encoding: 163 163 97
GlifName: sterling
Width: 545
VWidth: 0
Flags: HMW
LayerCount: 2
Fore
SplineSet
134 370 m 257
 476 370 l 257
 449 295 l 257
 107 295 l 257
 134 370 l 257
534 480 m 257
 546 541 549 622 467 625 c 256
 401 628 339 579 315 520 c 256
 281 435 344 349 318 263 c 256
 288 162 202 87 105 52 c 257
 116 80 l 257
 462 80 l 257
 433 0 l 257
 6 0 l 257
 88 73 197 139 234 249 c 256
 264 339 202 428 230 519 c 256
 263 625 371 711 484 709 c 256
 598 707 626 603 611 508 c 257
 534 480 l 257
EndSplineSet
EndChar

StartChar: currency
Encoding: 164 164 98
GlifName: currency
Width: 545
VWidth: 0
Flags: HMW
LayerCount: 2
Fore
SplineSet
151 506 m 257
 213 552 l 257
 273 456 l 257
 212 411 l 257
 151 506 l 257
46 48 m 257
 12 101 l 257
 131 189 l 257
 165 137 l 257
 46 48 l 257
511 411 m 257
 476 463 l 257
 596 552 l 257
 629 499 l 257
 511 411 l 257
368 144 m 257
 430 189 l 257
 490 94 l 257
 429 48 l 257
 368 144 l 257
95 300 m 256
 135 425 261 539 397 539 c 256
 530 539 584 416 547 300 c 256
 507 175 381 61 245 61 c 256
 112 61 58 184 95 300 c 256
174 300 m 256
 147 227 168 137 259 136 c 256
 352 135 438 217 468 300 c 256
 495 373 474 463 383 464 c 256
 290 465 204 383 174 300 c 256
EndSplineSet
EndChar

StartChar: yen
Encoding: 165 165 99
GlifName: yen
Width: 545
VWidth: 0
Flags: HMW
LayerCount: 2
Fore
SplineSet
88 291 m 257
 113 365 l 257
 572 365 l 257
 547 290 l 257
 88 291 l 257
37 141 m 257
 61 215 l 257
 521 215 l 257
 496 140 l 257
 37 141 l 257
625 699 m 257
 722 699 l 257
 365 301 l 257
 261 0 l 257
 176 0 l 257
 284 309 l 257
 201 700 l 257
 287 700 l 257
 344 379 l 257
 625 699 l 257
EndSplineSet
EndChar

StartChar: brokenbar
Encoding: 166 166 100
GlifName: brokenbar
Width: 257
VWidth: 0
Flags: HMW
LayerCount: 2
Fore
SplineSet
276 694 m 257
 348 694 l 257
 266 456 l 257
 194 456 l 257
 276 694 l 257
194 244 m 257
 112 6 l 257
 40 6 l 257
 122 244 l 257
 194 244 l 257
EndSplineSet
EndChar

StartChar: section
Encoding: 167 167 101
GlifName: section
Width: 383
VWidth: 0
Flags: HMW
LayerCount: 2
Fore
SplineSet
439 580 m 257
 422 612 403 633 364 633 c 256
 335 633 289 619 278 588 c 256
 263 545 323 522 351 506 c 256
 403 477 447 433 429 369 c 256
 403 275 311 248 225 242 c 257
 236 275 l 257
 280 289 334 314 348 363 c 256
 362 412 321 434 284 454 c 256
 231 483 180 522 201 590 c 256
 223 662 306 708 378 709 c 256
 443 710 490 679 510 618 c 257
 439 580 l 257
88 160 m 257
 91 110 108 67 165 66 c 256
 203 65 251 86 265 124 c 256
 283 173 237 195 202 215 c 256
 147 246 101 292 122 360 c 256
 150 450 242 472 325 478 c 257
 316 453 l 257
 272 436 220 417 202 369 c 256
 181 313 228 289 269 266 c 256
 321 237 364 193 347 129 c 256
 324 42 231 -11 145 -9 c 256
 63 -7 19 46 15 124 c 257
 88 160 l 257
EndSplineSet
EndChar

StartChar: dieresis
Encoding: 168 168 102
GlifName: dieresis
Width: 442
VWidth: 0
Flags: HMW
LayerCount: 2
Fore
SplineSet
431 662 m 256
 436 686 474 717 499 714 c 256
 526 711 542 684 537 658 c 256
 532 634 494 603 469 606 c 256
 442 609 426 636 431 662 c 256
243 662 m 256
 248 686 286 717 311 714 c 256
 338 711 354 684 349 658 c 256
 344 634 306 603 281 606 c 256
 254 609 238 636 243 662 c 256
EndSplineSet
EndChar

StartChar: copyright
Encoding: 169 169 103
GlifName: copyright
Width: 752
VWidth: 0
Flags: HMW
LayerCount: 2
Fore
SplineSet
299 350 m 256
 274 275 300 188 390 186 c 256
 446 184 496 214 540 245 c 257
 521 179 l 257
 478 153 435 134 384 135 c 256
 267 136 216 247 246 350 c 256
 278 462 387 563 507 565 c 256
 554 566 591 549 626 519 c 257
 606 453 l 257
 580 491 549 514 501 514 c 256
 409 514 327 434 299 350 c 256
164 350 m 256
 117 205 179 42 349 41 c 256
 525 40 684 189 736 350 c 256
 783 495 721 658 551 659 c 256
 375 660 216 511 164 350 c 256
109 350 m 256
 165 541 350 711 555 710 c 256
 753 709 841 526 790 350 c 256
 734 159 550 -11 345 -10 c 256
 147 -9 58 174 109 350 c 256
EndSplineSet
EndChar

StartChar: registered
Encoding: 174 174 104
GlifName: registered
Width: 752
VWidth: 0
Flags: HMW
LayerCount: 2
Fore
SplineSet
402 358 m 257
 455 358 l 257
 537 149 l 257
 478 149 l 257
 402 358 l 257
398 569 m 257
 448 569 l 257
 319 151 l 257
 269 151 l 257
 398 569 l 257
410 525 m 257
 424 569 l 257
 503 570 l 257
 573 566 624 516 604 443 c 256
 583 368 506 323 432 319 c 257
 347 319 l 257
 360 362 l 257
 439 363 l 257
 487 367 539 395 554 444 c 256
 568 490 539 519 495 524 c 257
 410 525 l 257
164 350 m 256
 117 205 179 42 349 41 c 256
 525 40 684 189 736 350 c 256
 783 495 721 658 551 659 c 256
 375 660 216 511 164 350 c 256
109 350 m 256
 165 540 350 711 555 710 c 256
 753 709 841 526 790 350 c 256
 734 160 550 -11 345 -10 c 256
 147 -9 58 174 109 350 c 256
EndSplineSet
EndChar

StartChar: ordfeminine
Encoding: 170 170 105
GlifName: ordfeminine
Width: 223
VWidth: 0
Flags: HMW
LayerCount: 2
Fore
SplineSet
184 531 m 256
 179 510 194 494 214 492 c 256
 253 488 279 522 301 549 c 257
 301 523 l 257
 277 487 246 454 198 456 c 256
 156 458 132 494 145 534 c 256
 160 580 216 612 262 612 c 256
 290 612 309 600 329 582 c 257
 321 559 l 257
 302 571 285 584 261 583 c 256
 234 582 191 560 184 531 c 256
225 646 m 257
 216 679 l 257
 244 692 274 706 305 705 c 256
 347 704 376 678 368 634 c 257
 309 461 l 257
 269 461 l 257
 331 635 l 257
 325 654 323 665 300 668 c 256
 275 671 247 656 225 646 c 257
EndSplineSet
EndChar

StartChar: ordmasculine
Encoding: 186 186 106
GlifName: ordmasculine
Width: 261
VWidth: 0
Flags: HMW
LayerCount: 2
Fore
SplineSet
161 581 m 256
 180 642 245 700 311 699 c 256
 377 698 406 638 388 579 c 256
 369 518 304 460 238 461 c 256
 172 462 143 522 161 581 c 256
200 580 m 256
 187 545 199 500 242 499 c 256
 287 498 334 540 349 580 c 256
 362 615 350 660 307 661 c 256
 262 662 215 620 200 580 c 256
EndSplineSet
EndChar

StartChar: guillemotleft
Encoding: 171 171 107
GlifName: guillemotleft
Width: 479
VWidth: 0
Flags: HMW
LayerCount: 2
Fore
SplineSet
307 258 m 257
 383 63 l 257
 323 20 l 257
 221 261 l 257
 477 489 l 257
 513 442 l 257
 307 258 l 257
156 258 m 257
 233 63 l 257
 172 20 l 257
 70 261 l 257
 326 489 l 257
 363 442 l 257
 156 258 l 257
EndSplineSet
EndChar

StartChar: guillemotright
Encoding: 187 187 108
GlifName: guillemotright
Width: 479
VWidth: 0
Flags: HMW
LayerCount: 2
Fore
SplineSet
238 252 m 257
 162 447 l 257
 222 490 l 257
 325 249 l 257
 69 21 l 257
 32 68 l 257
 238 252 l 257
389 252 m 257
 313 447 l 257
 373 490 l 257
 475 249 l 257
 219 21 l 257
 183 68 l 257
 389 252 l 257
EndSplineSet
EndChar

StartChar: uni00AD
Encoding: 173 173 109
GlifName: uni00A_D_
Width: 197
VWidth: 0
Flags: HMW
LayerCount: 2
Fore
SplineSet
19 201 m 257
 44 275 l 257
 236 275 l 257
 210 201 l 257
 19 201 l 257
EndSplineSet
EndChar

StartChar: logicalnot
Encoding: 172 172 110
GlifName: logicalnot
Width: 583
VWidth: 0
Flags: HMW
LayerCount: 2
Fore
SplineSet
107 300 m 257
 134 375 l 257
 599 375 l 257
 528 176 l 257
 455 176 l 257
 499 300 l 257
 107 300 l 257
EndSplineSet
EndChar

StartChar: macron
Encoding: 175 175 111
GlifName: macron
Width: 479
VWidth: 0
Flags: HMW
LayerCount: 2
Fore
SplineSet
226 600 m 257
 249 675 l 257
 581 675 l 257
 558 600 l 257
 226 600 l 257
EndSplineSet
EndChar

StartChar: degree
Encoding: 176 176 112
GlifName: degree
Width: 261
VWidth: 0
Flags: HMW
LayerCount: 2
Fore
SplineSet
168 601 m 256
 187 662 252 720 318 719 c 256
 384 718 413 658 395 599 c 256
 376 538 311 480 245 481 c 256
 179 482 150 542 168 601 c 256
207 600 m 256
 194 565 206 520 249 519 c 256
 294 518 341 560 356 600 c 256
 369 635 357 680 314 681 c 256
 269 682 222 640 207 600 c 256
EndSplineSet
EndChar

StartChar: plusminus
Encoding: 177 177 113
GlifName: plusminus
Width: 578
VWidth: 0
Flags: HMW
LayerCount: 2
Fore
SplineSet
28 0 m 257
 51 80 l 257
 511 80 l 257
 486 0 l 257
 28 0 l 257
134 345 m 257
 158 425 l 257
 617 425 l 257
 592 345 l 257
 134 345 l 257
403 620 m 257
 489 620 l 257
 341 150 l 257
 262 151 l 257
 403 620 l 257
EndSplineSet
EndChar

StartChar: uni00B2
Encoding: 178 178 114
GlifName: uni00B_2
Width: 325
VWidth: 0
Flags: HMW
LayerCount: 2
Fore
SplineSet
65 284 m 257
 320 494 l 258
 349 518 385 548 397 586 c 256
 408 621 396 656 356 660 c 256
 296 666 257 604 232 560 c 257
 181 560 l 257
 215 633 273 710 363 708 c 256
 434 707 466 645 446 581 c 256
 431 534 394 497 357 466 c 258
 186 331 l 257
 361 329 l 257
 345 283 l 257
 65 284 l 257
EndSplineSet
EndChar

StartChar: uni00B3
Encoding: 179 179 115
GlifName: uni00B_3
Width: 293
VWidth: 0
Flags: HMW
LayerCount: 2
Fore
SplineSet
244 489 m 257
 255 520 l 257
 299 530 345 546 362 593 c 256
 373 623 363 656 328 659 c 256
 288 663 259 626 238 598 c 257
 188 599 l 257
 218 654 266 707 335 705 c 256
 397 703 430 650 411 593 c 256
 388 521 311 498 244 489 c 257
194 275 m 256
 120 275 94 325 101 391 c 257
 150 391 l 257
 150 354 156 325 200 323 c 256
 243 321 291 358 304 398 c 256
 321 451 282 466 239 475 c 257
 250 507 l 257
 318 499 378 469 354 390 c 256
 334 324 262 275 194 275 c 256
EndSplineSet
EndChar

StartChar: acute
Encoding: 180 180 116
GlifName: acute
Width: 352
VWidth: 0
Flags: HMW
LayerCount: 2
Fore
SplineSet
453 656 m 257
 239 512 l 257
 201 543 l 257
 389 699 l 257
 453 656 l 257
EndSplineSet
EndChar

StartChar: mu
Encoding: 181 181 117
GlifName: mu
Width: 493
VWidth: 0
Flags: HMW
LayerCount: 2
Fore
SplineSet
291 0 m 257
 450 460 l 257
 529 460 l 257
 370 0 l 257
 291 0 l 257
153 180 m 258
 138 131 134 69 200 66 c 256
 271 63 322 123 354 178 c 257
 391 178 l 257
 351 89 275 -9 167 -9 c 256
 62 -9 49 88 73 170 c 256
 174 460 l 257
 248 459 l 257
 153 180 l 258
170 459 m 257
 252 460 l 257
 -18 -320 l 257
 -92 -319 l 257
 170 459 l 257
EndSplineSet
EndChar

StartChar: paragraph
Encoding: 182 182 118
GlifName: paragraph
Width: 543
VWidth: 0
Flags: HMW
LayerCount: 2
Fore
SplineSet
433 636 m 257
 454 699 l 257
 644 699 l 257
 623 636 l 257
 433 636 l 257
605 699 m 257
 673 699 l 257
 360 -219 l 257
 292 -219 l 257
 605 699 l 257
454 699 m 257
 522 699 l 257
 209 -219 l 257
 141 -219 l 257
 454 699 l 257
312 271 m 257
 192 284 127.303 366.223 166 486 c 256
 208 616 323 699 454 699 c 257
 312 271 l 257
EndSplineSet
EndChar

StartChar: periodcentered
Encoding: 183 183 119
GlifName: periodcentered
Width: 282
VWidth: 0
Flags: HMW
LayerCount: 2
Fore
SplineSet
116 242 m 256
 122 266 160 297 185 294 c 256
 212 291 228 264 222 238 c 256
 216 214 177 183 152 186 c 256
 125 189 110 216 116 242 c 256
EndSplineSet
EndChar

StartChar: uni00B9
Encoding: 185 185 120
GlifName: uni00B_9
Width: 442
VWidth: 0
Flags: HMW
LayerCount: 2
Fore
SplineSet
298 613 m 257
 314 664 l 257
 467 701 l 257
 319 275 l 257
 269 275 l 257
 391 636 l 257
 298 613 l 257
EndSplineSet
EndChar

StartChar: cedilla
Encoding: 184 184 121
GlifName: cedilla
Width: 329
VWidth: 0
Flags: HMW
LayerCount: 2
Fore
SplineSet
148 58 m 257
 209 58 l 257
 109 -52 l 257
 111 -52 112 -52 114 -52 c 256
 153 -59 172 -89 163 -128 c 256
 150 -181 85 -220 33 -219 c 256
 -1 -219 -21 -202 -43 -179 c 257
 -1 -143 l 257
 12 -154 24 -166 43 -166 c 256
 64 -166 102 -147 108 -125 c 256
 114 -104 94 -91 76 -90 c 256
 55 -88 32 -99 13 -106 c 257
 148 58 l 257
EndSplineSet
EndChar

StartChar: questiondown
Encoding: 191 191 122
GlifName: questiondown
Width: 524
VWidth: 0
Flags: HMW
LayerCount: 2
Fore
SplineSet
147 200 m 256
 120 129 154 67 233 66 c 256
 298 65 353 106 399 147 c 257
 452 104 l 257
 385 41 306 -11 210 -9 c 256
 94 -7 35 94 69 201 c 256
 107 319 220 389 337 410 c 257
 387 529 l 257
 446 530 l 257
 408 355 l 257
 385 355 l 256
 289 350 182 294 147 200 c 256
513 658 m 256
 507 634 468 603 443 606 c 256
 416 609 401 636 407 662 c 256
 413 686 451 717 476 714 c 256
 503 711 519 684 513 658 c 256
EndSplineSet
EndChar

StartChar: multiply
Encoding: 215 215 123
GlifName: multiply
Width: 560
VWidth: 0
Flags: HMW
LayerCount: 2
Fore
SplineSet
70 22 m 257
 33 84 l 257
 266 259 l 257
 154 437 l 257
 222 488 l 257
 326 308 l 257
 556 488 l 257
 593 426 l 257
 360 251 l 257
 472 73 l 257
 404 22 l 257
 300 202 l 257
 70 22 l 257
EndSplineSet
EndChar

StartChar: Oslash
Encoding: 216 216 124
GlifName: O_slash
Width: 743
VWidth: 0
Flags: HMW
LayerCount: 2
Fore
SplineSet
189 350 m 256
 145 226 184 78 337 76 c 256
 494 74 635 210 685 350 c 256
 729 474 690 622 537 624 c 256
 380 626 239 490 189 350 c 256
101 350 m 256
 162 538 349 711 554 710 c 256
 753 709 828 521 773 350 c 256
 712 162 525 -11 320 -10 c 256
 121 -9 46 179 101 350 c 256
845 749 m 257
 893 707 l 257
 25 -49 l 257
 -22 -7 l 257
 845 749 l 257
EndSplineSet
EndChar

StartChar: Thorn
Encoding: 222 222 125
GlifName: T_horn
Width: 517
VWidth: 0
Flags: HMW
LayerCount: 2
Fore
SplineSet
257 699 m 257
 343 700 l 257
 101 0 l 257
 22 0 l 257
 257 699 l 257
226 480 m 257
 255 560 l 257
 385 560 l 256
 504 555 583 469 545 349 c 256
 506 224 380 145 253 140 c 256
 110 140 l 257
 139 220 l 257
 269 220 l 256
 352 224 433 269 463 350 c 256
 491 427 445 474 369 479 c 257
 226 480 l 257
EndSplineSet
EndChar

StartChar: divide
Encoding: 247 247 126
GlifName: divide
Width: 586
VWidth: 0
Flags: HMW
LayerCount: 2
Fore
SplineSet
338 452 m 256
 344 476 382 507 407 504 c 256
 434 501 450 474 444 448 c 256
 438 424 400 393 375 396 c 256
 348 399 332 426 338 452 c 256
209 72 m 256
 215 96 253 127 278 124 c 256
 305 121 320 94 314 68 c 256
 308 44 270 13 245 16 c 256
 218 19 203 46 209 72 c 256
80 226 m 257
 106 305 l 257
 580 305 l 257
 553 225 l 257
 80 226 l 257
EndSplineSet
EndChar

StartChar: oslash
Encoding: 248 248 127
GlifName: oslash
Width: 513
VWidth: 0
Flags: HMW
LayerCount: 2
Fore
SplineSet
55 230 m 256
 95 355 221 469 357 469 c 256
 490 469 544 346 507 230 c 256
 467 105 341 -9 205 -9 c 256
 72 -9 18 114 55 230 c 256
134 230 m 256
 107 157 128 67 219 66 c 256
 312 65 398 147 428 230 c 256
 455 303 434 393 343 394 c 256
 250 395 164 313 134 230 c 256
527 498 m 257
 568 477 l 257
 24 -42 l 257
 -17 -21 l 257
 527 498 l 257
EndSplineSet
EndChar

StartChar: circumflex
Encoding: 710 710 128
GlifName: circumflex
Width: 451
VWidth: 0
Flags: HMW
LayerCount: 2
Fore
SplineSet
397 644 m 257
 259 551 l 257
 221 593 l 257
 417 730 l 257
 525 588 l 257
 468 551 l 257
 397 644 l 257
EndSplineSet
EndChar

StartChar: ogonek
Encoding: 731 731 129
GlifName: ogonek
Width: 244
VWidth: 0
Flags: HMW
LayerCount: 2
Fore
SplineSet
107 -130 m 257
 125 -182 l 257
 97 -201 68 -218 33 -219 c 256
 -27 -221 -75 -181 -58 -119 c 256
 -38 -46 47 -6 109 24 c 257
 145 0 l 257
 105 -23 37 -49 25 -100 c 256
 20 -122 27 -145 52 -149 c 256
 70 -152 92 -138 107 -130 c 257
EndSplineSet
EndChar

StartChar: tilde
Encoding: 732 732 130
GlifName: tilde
Width: 498
VWidth: 0
Flags: HMW
LayerCount: 2
Fore
SplineSet
250 628 m 257
 278 665 319 709 370 706 c 256
 409 704 433 658 473 661 c 256
 500 663 523 690 542 707 c 257
 577 662 l 257
 548 630 506 589 458 593 c 256
 420 596 397 640 358 638 c 256
 328 636 310 611 294 589 c 257
 250 628 l 257
EndSplineSet
EndChar

StartChar: ring
Encoding: 730 730 131
GlifName: ring
Width: 261
VWidth: 0
Flags: HMW
LayerCount: 2
Fore
SplineSet
247 787 m 256
 262 837 321 885 375 884 c 256
 429 883 457 832 442 783 c 256
 427 733 368 685 314 686 c 256
 260 687 232 738 247 787 c 256
296 784 m 256
 290 764 300 736 323 733 c 256
 347 729 387 764 393 786 c 256
 399 806 389 834 366 837 c 256
 342 841 302 806 296 784 c 256
EndSplineSet
EndChar

StartChar: dotaccent
Encoding: 729 729 132
GlifName: dotaccent
Width: 282
VWidth: 0
Flags: HMW
LayerCount: 2
Fore
SplineSet
304 792 m 256
 310 816 348 847 373 844 c 256
 400 841 415 814 409 788 c 256
 403 764 365 733 340 736 c 256
 313 739 298 766 304 792 c 256
EndSplineSet
EndChar

StartChar: uni2010
Encoding: 8208 8208 133
GlifName: uni2010
Width: 197
VWidth: 0
Flags: HMW
LayerCount: 2
Fore
SplineSet
19 201 m 257
 44 275 l 257
 236 275 l 257
 210 201 l 257
 19 201 l 257
EndSplineSet
EndChar

StartChar: endash
Encoding: 8211 8211 134
GlifName: endash
Width: 696
VWidth: 0
Flags: HMW
LayerCount: 2
Fore
SplineSet
81 201 m 257
 105 275 l 257
 673 275 l 257
 648 200 l 257
 81 201 l 257
EndSplineSet
EndChar

StartChar: figuredash
Encoding: 8210 8210 135
GlifName: figuredash
Width: 555
VWidth: 0
Flags: HMW
LayerCount: 2
Fore
SplineSet
81 201 m 257
 105 275 l 257
 532 275 l 257
 507 200 l 257
 81 201 l 257
EndSplineSet
EndChar

StartChar: emdash
Encoding: 8212 8212 136
GlifName: emdash
Width: 837
VWidth: 0
Flags: HMW
LayerCount: 2
Fore
SplineSet
81 201 m 257
 105 275 l 257
 814 275 l 257
 789 200 l 257
 81 201 l 257
EndSplineSet
EndChar

StartChar: minus
Encoding: 8722 8722 137
GlifName: minus
Width: 555
VWidth: 0
Flags: HMW
LayerCount: 2
Fore
SplineSet
81 201 m 257
 105 275 l 257
 532 275 l 257
 507 200 l 257
 81 201 l 257
EndSplineSet
EndChar

StartChar: quoteright
Encoding: 8217 8217 138
GlifName: quoteright
Width: 258
VWidth: 0
Flags: HMW
LayerCount: 2
Fore
SplineSet
285 699 m 257
 383 699 l 257
 207 472 l 257
 152 472 l 257
 285 699 l 257
EndSplineSet
EndChar

StartChar: quoteleft
Encoding: 8216 8216 139
GlifName: quoteleft
Width: 258
VWidth: 0
Flags: HMW
LayerCount: 2
Fore
SplineSet
265 471 m 257
 166 471 l 257
 342 698 l 257
 398 698 l 257
 265 471 l 257
EndSplineSet
EndChar

StartChar: quotesinglbase
Encoding: 8218 8218 140
GlifName: quotesinglbase
Width: 258
VWidth: 0
Flags: HMW
LayerCount: 2
Fore
SplineSet
83 79 m 257
 181 79 l 257
 5 -148 l 257
 -50 -148 l 257
 83 79 l 257
EndSplineSet
EndChar

StartChar: quotedblleft
Encoding: 8220 8220 141
GlifName: quotedblleft
Width: 446
VWidth: 0
Flags: HMW
LayerCount: 2
Fore
SplineSet
265 471 m 257
 166 471 l 257
 342 698 l 257
 398 698 l 257
 265 471 l 257
453 471 m 257
 354 471 l 257
 530 698 l 257
 586 698 l 257
 453 471 l 257
EndSplineSet
EndChar

StartChar: quotedblright
Encoding: 8221 8221 142
GlifName: quotedblright
Width: 446
VWidth: 0
Flags: HMW
LayerCount: 2
Fore
SplineSet
285 699 m 257
 383 699 l 257
 207 472 l 257
 152 472 l 257
 285 699 l 257
473 699 m 257
 572 699 l 257
 396 472 l 257
 340 472 l 257
 473 699 l 257
EndSplineSet
EndChar

StartChar: perthousand
Encoding: 8240 8240 143
GlifName: perthousand
Width: 1064
VWidth: 0
Flags: HMW
LayerCount: 2
Fore
SplineSet
729 151 m 256
 755 234 839 309 929 309 c 256
 1018 309 1054 227 1030 149 c 256
 1004 66 920 -9 830 -9 c 256
 741 -9 705 73 729 151 c 256
798 150 m 256
 784 110 792 59 842 56 c 256
 893 53 945 105 961 150 c 256
 975 190 967 241 917 244 c 256
 866 247 814 195 798 150 c 256
165 551 m 256
 191 634 274 709 364 709 c 256
 453 709 490 627 466 549 c 256
 440 466 356 391 266 391 c 256
 177 391 141 473 165 551 c 256
233 550 m 256
 219 510 228 459 278 456 c 256
 329 453 381 505 397 550 c 256
 411 590 403 641 353 644 c 256
 302 647 249 595 233 550 c 256
372 151 m 256
 398 234 481 309 571 309 c 256
 660 309 696 227 672 149 c 256
 646 66 563 -9 473 -9 c 256
 384 -9 348 73 372 151 c 256
440 150 m 256
 426 110 435 59 485 56 c 256
 536 53 588 105 604 150 c 256
 618 190 609 241 559 244 c 256
 508 247 456 195 440 150 c 256
710 699 m 257
 791 699 l 257
 126 0 l 257
 51 0 l 257
 710 699 l 257
EndSplineSet
EndChar

StartChar: guilsinglleft
Encoding: 8249 8249 144
GlifName: guilsinglleft
Width: 329
VWidth: 0
Flags: HMW
LayerCount: 2
Fore
SplineSet
156 258 m 257
 233 63 l 257
 172 20 l 257
 70 261 l 257
 326 489 l 257
 363 442 l 257
 156 258 l 257
EndSplineSet
EndChar

StartChar: guilsinglright
Encoding: 8250 8250 145
GlifName: guilsinglright
Width: 329
VWidth: 0
Flags: HMW
LayerCount: 2
Fore
SplineSet
238 252 m 257
 162 447 l 257
 222 490 l 257
 325 249 l 257
 69 21 l 257
 32 68 l 257
 238 252 l 257
EndSplineSet
EndChar

StartChar: uni2031
Encoding: 8241 8241 146
GlifName: uni2031
Width: 1421
VWidth: 0
Flags: HMW
LayerCount: 2
Fore
SplineSet
1087 151 m 256
 1113 234 1196 309 1286 309 c 256
 1375 309 1412 227 1388 149 c 256
 1362 66 1278 -9 1188 -9 c 256
 1099 -9 1063 73 1087 151 c 256
1155 150 m 256
 1141 110 1150 59 1200 56 c 256
 1251 53 1303 105 1319 150 c 256
 1333 190 1324 241 1274 244 c 256
 1223 247 1171 195 1155 150 c 256
729 151 m 256
 755 234 839 309 929 309 c 256
 1018 309 1054 227 1030 149 c 256
 1004 66 920 -9 830 -9 c 256
 741 -9 705 73 729 151 c 256
798 150 m 256
 784 110 792 59 842 56 c 256
 893 53 945 105 961 150 c 256
 975 190 967 241 917 244 c 256
 866 247 814 195 798 150 c 256
165 551 m 256
 191 634 274 709 364 709 c 256
 453 709 490 627 466 549 c 256
 440 466 356 391 266 391 c 256
 177 391 141 473 165 551 c 256
233 550 m 256
 219 510 228 459 278 456 c 256
 329 453 381 505 397 550 c 256
 411 590 403 641 353 644 c 256
 302 647 249 595 233 550 c 256
372 151 m 256
 398 234 481 309 571 309 c 256
 660 309 696 227 672 149 c 256
 646 66 563 -9 473 -9 c 256
 384 -9 348 73 372 151 c 256
440 150 m 256
 426 110 435 59 485 56 c 256
 536 53 588 105 604 150 c 256
 618 190 609 241 559 244 c 256
 508 247 456 195 440 150 c 256
710 699 m 257
 791 699 l 257
 126 0 l 257
 51 0 l 257
 710 699 l 257
EndSplineSet
EndChar

StartChar: uni203D
Encoding: 8253 8253 147
GlifName: uni203D_
Width: 524
VWidth: 0
Flags: HMW
LayerCount: 2
Fore
SplineSet
507 500 m 256
 534 571 500 633 421 634 c 256
 356 635 302 594 256 553 c 257
 203 596 l 257
 270 659 349 711 445 709 c 256
 561 707 620 606 586 499 c 256
 547 377 428 304 306 289 c 257
 273 347 l 257
 369 357 471 403 507 500 c 256
305 510 m 257
 406 509 l 257
 269 171 l 257
 210 171 l 257
 305 510 l 257
142 42 m 256
 148 66 186 97 211 94 c 256
 238 91 253 64 247 38 c 256
 241 14 203 -17 178 -14 c 256
 151 -11 136 16 142 42 c 256
EndSplineSet
EndChar

StartChar: Euro
Encoding: 8364 8364 148
GlifName: E_uro
Width: 545
VWidth: 0
Flags: HMW
LayerCount: 2
Fore
SplineSet
98 408 m 257
 114 454 l 257
 587 454 l 257
 572 408 l 257
 98 408 l 257
57 288 m 257
 73 334 l 257
 522 334 l 257
 506 288 l 257
 57 288 l 257
212 350 m 256
 176 250 163 73 312 71 c 256
 373 70 428 100 479 130 c 257
 448 31 l 257
 400 9 349 -9 296 -9 c 256
 101 -8 82 205 129 350 c 256
 184 519 336 710 531 709 c 256
 580 709 622 693 664 669 c 257
 632 568 l 257
 600 605 566 630 515 630 c 256
 367 631 256 475 212 350 c 256
EndSplineSet
EndChar

StartChar: fraction
Encoding: 8260 8260 149
GlifName: fraction
Width: 663
VWidth: 0
Flags: HMW
LayerCount: 2
Fore
SplineSet
726 698 m 257
 792 697 l 257
 67 0 l 257
 1 0 l 257
 726 698 l 257
EndSplineSet
EndChar

StartChar: onequarter
Encoding: 188 188 150
GlifName: onequarter
Width: 709
VWidth: 0
Flags: HMW
LayerCount: 2
Fore
SplineSet
762 698 m 257
 828 697 l 257
 103 0 l 257
 37 0 l 257
 762 698 l 257
183 613 m 257
 199 664 l 257
 352 701 l 257
 205 275 l 257
 154 275 l 257
 276 636 l 257
 183 613 l 257
349 86 m 257
 399 127 l 257
 570 129 l 257
 580 129 l 257
 666 128 l 257
 651 85 l 257
 349 86 l 257
403 86 m 257
 348 87 l 257
 680 418 l 257
 703 419 l 257
 561 0 l 257
 510 0 l 257
 546 106 l 257
 548 112 l 257
 613 296 l 257
 403 86 l 257
EndSplineSet
EndChar

StartChar: onehalf
Encoding: 189 189 151
GlifName: onehalf
Width: 770
VWidth: 0
Flags: HMW
LayerCount: 2
Fore
SplineSet
762 698 m 257
 828 697 l 257
 103 0 l 257
 37 0 l 257
 762 698 l 257
183 613 m 257
 199 664 l 257
 352 701 l 257
 205 275 l 257
 154 275 l 257
 276 636 l 257
 183 613 l 257
410 4 m 257
 665 214 l 258
 694 238 730 268 742 306 c 256
 753 341 741 375 701 379 c 256
 641 385 602 324 577 280 c 257
 526 280 l 257
 560 353 617 430 707 428 c 256
 778 427 811 365 791 301 c 256
 776 254 739 217 702 186 c 258
 531 51 l 257
 706 49 l 257
 690 3 l 257
 410 4 l 257
EndSplineSet
EndChar

StartChar: threequarters
Encoding: 190 190 152
GlifName: threequarters
Width: 771
VWidth: 0
Flags: HMW
LayerCount: 2
Fore
SplineSet
825 698 m 257
 891 697 l 257
 166 0 l 257
 100 0 l 257
 825 698 l 257
249 489 m 257
 259 520 l 257
 303 530 349 546 366 593 c 256
 377 623 368 656 333 659 c 256
 293 663 263 626 242 598 c 257
 193 599 l 257
 223 654 270 707 339 705 c 256
 401 703 435 650 416 593 c 256
 393 521 316 498 249 489 c 257
199 275 m 256
 125 275 99 325 106 391 c 257
 155 391 l 257
 155 354 161 325 205 323 c 256
 248 321 296 358 309 398 c 256
 326 451 287 466 244 475 c 257
 255 507 l 257
 323 499 383 469 359 390 c 256
 339 324 267 275 199 275 c 256
412 86 m 257
 462 127 l 257
 633 129 l 257
 643 129 l 257
 729 128 l 257
 714 85 l 257
 412 86 l 257
466 86 m 257
 411 87 l 257
 743 418 l 257
 766 419 l 257
 624 0 l 257
 573 0 l 257
 609 106 l 257
 611 112 l 257
 676 296 l 257
 466 86 l 257
EndSplineSet
EndChar

StartChar: uni2150
Encoding: 8528 8528 153
GlifName: uni2150
Width: 792
VWidth: 0
Flags: HMW
LayerCount: 2
Fore
SplineSet
715 698 m 257
 781 697 l 257
 56 0 l 257
 -10 0 l 257
 715 698 l 257
183 613 m 257
 199 664 l 257
 352 701 l 257
 205 275 l 257
 154 275 l 257
 276 636 l 257
 183 613 l 257
560 373 m 257
 575 419 l 257
 858 419 l 257
 524 0 l 257
 470 0 l 257
 761 371 l 257
 560 373 l 257
EndSplineSet
EndChar

StartChar: uni2151
Encoding: 8529 8529 154
GlifName: uni2151
Width: 737
VWidth: 0
Flags: HMW
LayerCount: 2
Fore
SplineSet
715 698 m 257
 781 697 l 257
 56 0 l 257
 -10 0 l 257
 715 698 l 257
183 613 m 257
 199 664 l 257
 352 701 l 257
 205 275 l 257
 154 275 l 257
 276 636 l 257
 183 613 l 257
717 284 m 256
 732 327 720 379 667 381 c 256
 613 384 557 332 540 284 c 256
 525 241 537 189 590 186 c 256
 644 183 700 236 717 284 c 256
513 4 m 257
 447 5 l 257
 628 174 l 257
 634 167 l 257
 613 158 592 147 568 148 c 256
 496 150 475 226 493 285 c 256
 516 360 593 427 673 427 c 256
 753 427 788 354 765 283 c 256
 755 251 735 222 712 197 c 257
 513 4 l 257
EndSplineSet
EndChar

StartChar: uni2152
Encoding: 8530 8530 155
GlifName: uni2152
Width: 1016
VWidth: 0
Flags: HMW
LayerCount: 2
Fore
SplineSet
715 698 m 257
 781 697 l 257
 56 0 l 257
 -10 0 l 257
 715 698 l 257
183 613 m 257
 199 664 l 257
 352 701 l 257
 205 275 l 257
 154 275 l 257
 276 636 l 257
 183 613 l 257
521 340 m 257
 537 391 l 257
 690 428 l 257
 542 2 l 257
 492 2 l 257
 614 363 l 257
 521 340 l 257
761 210 m 256
 744 162 714 46 796 43 c 256
 878 40 933 146 957 210 c 256
 974 258 1004 374 922 377 c 256
 840 380 785 274 761 210 c 256
710 210 m 256
 739 301 818 426 927 425 c 256
 1040 424 1032 287 1007 210 c 256
 978 119 899 -6 790 -5 c 256
 677 -4 685 133 710 210 c 256
EndSplineSet
EndChar

StartChar: onethird
Encoding: 8531 8531 156
GlifName: onethird
Width: 710
VWidth: 0
Flags: HMW
LayerCount: 2
Fore
SplineSet
715 698 m 257
 781 697 l 257
 56 0 l 257
 -10 0 l 257
 715 698 l 257
183 613 m 257
 199 664 l 257
 352 701 l 257
 205 275 l 257
 154 275 l 257
 276 636 l 257
 183 613 l 257
560 209 m 257
 571 240 l 257
 615 250 661 266 678 313 c 256
 689 343 680 376 645 379 c 256
 605 383 575 346 554 318 c 257
 505 319 l 257
 535 374 582 427 651 425 c 256
 713 423 747 370 728 313 c 256
 705 241 627 218 560 209 c 257
510 -5 m 256
 436 -5 411 45 418 111 c 257
 467 111 l 257
 467 74 473 45 517 43 c 256
 560 41 608 78 621 118 c 256
 638 171 598 186 555 195 c 257
 567 227 l 257
 635 219 694 189 670 110 c 256
 650 44 578 -5 510 -5 c 256
EndSplineSet
EndChar

StartChar: twothirds
Encoding: 8532 8532 157
GlifName: twothirds
Width: 829
VWidth: 0
Flags: HMW
LayerCount: 2
Fore
SplineSet
835 698 m 257
 901 697 l 257
 175 0 l 257
 109 0 l 257
 835 698 l 257
70 284 m 257
 325 494 l 258
 354 518 390 548 402 586 c 256
 413 621 401 655 361 659 c 256
 301 665 262 604 237 560 c 257
 186 560 l 257
 220 633 277 710 367 708 c 256
 438 707 471 645 451 581 c 256
 436 534 398 497 361 466 c 258
 191 331 l 257
 366 329 l 257
 350 283 l 257
 70 284 l 257
680 209 m 257
 691 240 l 257
 735 250 781 266 798 313 c 256
 809 343 799 376 764 379 c 256
 724 383 695 346 674 318 c 257
 624 319 l 257
 654 374 702 427 771 425 c 256
 833 423 866 370 847 313 c 256
 824 241 747 218 680 209 c 257
630 -5 m 256
 556 -5 530 45 537 111 c 257
 586 111 l 257
 586 74 592 45 636 43 c 256
 679 41 727 78 740 118 c 256
 757 171 718 186 675 195 c 257
 686 227 l 257
 754 219 814 189 790 110 c 256
 770 44 698 -5 630 -5 c 256
EndSplineSet
EndChar

StartChar: uni2155
Encoding: 8533 8533 158
GlifName: uni2155
Width: 700
VWidth: 0
Flags: HMW
LayerCount: 2
Fore
SplineSet
715 698 m 257
 781 697 l 257
 56 0 l 257
 -10 0 l 257
 715 698 l 257
183 613 m 257
 199 664 l 257
 352 701 l 257
 205 275 l 257
 154 275 l 257
 276 636 l 257
 183 613 l 257
666 135 m 256
 642 57 565 -7 482 -7 c 256
 421 -7 386 28 365 82 c 257
 413 110 l 257
 426 74 445 42 488 41 c 256
 543 40 597 86 614 136 c 256
 630 181 614 225 563 231 c 256
 522 235 480 213 445 197 c 257
 483 233 l 257
 511 257 552 278 590 277 c 256
 667 275 686 198 666 135 c 256
600 373 m 257
 523 245 l 257
 434 186 l 257
 572 417 l 257
 760 417 l 257
 746 374 l 257
 600 373 l 257
EndSplineSet
EndChar

StartChar: uni2156
Encoding: 8534 8534 159
GlifName: uni2156
Width: 819
VWidth: 0
Flags: HMW
LayerCount: 2
Fore
SplineSet
835 698 m 257
 901 697 l 257
 175 0 l 257
 109 0 l 257
 835 698 l 257
70 284 m 257
 325 494 l 258
 354 518 390 548 402 586 c 256
 413 621 401 655 361 659 c 256
 301 665 262 604 237 560 c 257
 186 560 l 257
 220 633 277 710 367 708 c 256
 438 707 471 645 451 581 c 256
 436 534 398 497 361 466 c 258
 191 331 l 257
 366 329 l 257
 350 283 l 257
 70 284 l 257
785 135 m 256
 761 57 684 -7 601 -7 c 256
 540 -7 506 28 485 82 c 257
 533 110 l 257
 546 74 564 42 607 41 c 256
 662 40 716 86 733 136 c 256
 749 181 734 225 683 231 c 256
 642 235 600 213 565 197 c 257
 602 233 l 257
 630 257 671 278 709 277 c 256
 786 275 805 198 785 135 c 256
719 373 m 257
 643 245 l 257
 553 186 l 257
 691 417 l 257
 880 417 l 257
 865 374 l 257
 719 373 l 257
EndSplineSet
EndChar

StartChar: uni2157
Encoding: 8535 8535 160
GlifName: uni2157
Width: 781
VWidth: 0
Flags: HMW
LayerCount: 2
Fore
SplineSet
797 698 m 257
 863 697 l 257
 138 0 l 257
 72 0 l 257
 797 698 l 257
249 489 m 257
 259 520 l 257
 303 530 349 546 366 593 c 256
 377 623 368 656 333 659 c 256
 293 663 263 626 242 598 c 257
 193 599 l 257
 223 654 270 707 339 705 c 256
 401 703 435 650 416 593 c 256
 393 521 316 498 249 489 c 257
199 275 m 256
 125 275 99 325 106 391 c 257
 155 391 l 257
 155 354 161 325 205 323 c 256
 248 321 296 358 309 398 c 256
 326 451 287 466 244 475 c 257
 255 507 l 257
 323 499 383 469 359 390 c 256
 339 324 267 275 199 275 c 256
748 135 m 256
 724 57 647 -7 564 -7 c 256
 503 -7 468 28 447 82 c 257
 495 110 l 257
 508 74 526 42 569 41 c 256
 624 40 679 86 696 136 c 256
 712 181 696 225 645 231 c 256
 604 235 562 213 527 197 c 257
 565 233 l 257
 593 257 634 278 672 277 c 256
 749 275 768 198 748 135 c 256
681 373 m 257
 605 245 l 257
 516 186 l 257
 653 417 l 257
 842 417 l 257
 827 374 l 257
 681 373 l 257
EndSplineSet
EndChar

StartChar: uni2158
Encoding: 8536 8536 161
GlifName: uni2158
Width: 814
VWidth: 0
Flags: HMW
LayerCount: 2
Fore
SplineSet
830 698 m 257
 896 697 l 257
 171 0 l 257
 105 0 l 257
 830 698 l 257
98 366 m 257
 148 407 l 257
 319 409 l 257
 329 409 l 257
 415 408 l 257
 401 365 l 257
 98 366 l 257
153 366 m 257
 97 367 l 257
 429 698 l 257
 452 699 l 257
 310 281 l 257
 260 281 l 257
 296 386 l 257
 297 392 l 257
 362 576 l 257
 153 366 l 257
781 135 m 256
 757 57 680 -7 597 -7 c 256
 536 -7 501 28 480 82 c 257
 528 110 l 257
 541 74 559 42 602 41 c 256
 657 40 712 86 729 136 c 256
 745 181 729 225 678 231 c 256
 637 235 595 213 560 197 c 257
 598 233 l 257
 626 257 667 278 705 277 c 256
 782 275 801 198 781 135 c 256
714 373 m 257
 638 245 l 257
 549 186 l 257
 686 417 l 257
 875 417 l 257
 860 374 l 257
 714 373 l 257
EndSplineSet
EndChar

StartChar: uni2159
Encoding: 8537 8537 162
GlifName: uni2159
Width: 690
VWidth: 0
Flags: HMW
LayerCount: 2
Fore
SplineSet
715 698 m 257
 781 697 l 257
 56 0 l 257
 -10 0 l 257
 715 698 l 257
183 613 m 257
 199 664 l 257
 352 701 l 257
 205 275 l 257
 154 275 l 257
 276 636 l 257
 183 613 l 257
437 136 m 256
 422 93 434 41 487 39 c 256
 541 36 597 88 614 136 c 256
 629 179 617 231 564 234 c 256
 510 237 454 184 437 136 c 256
642 416 m 257
 708 415 l 257
 527 246 l 257
 521 253 l 257
 542 262 562 273 586 272 c 256
 658 270 680 194 662 135 c 256
 639 60 562 -7 482 -7 c 256
 402 -7 366 66 389 137 c 256
 399 169 420 198 443 223 c 257
 642 416 l 257
EndSplineSet
EndChar

StartChar: uni215A
Encoding: 8538 8538 163
GlifName: uni215A_
Width: 805
VWidth: 0
Flags: HMW
LayerCount: 2
Fore
SplineSet
830 698 m 257
 896 697 l 257
 171 0 l 257
 105 0 l 257
 830 698 l 257
396 415 m 256
 372 337 295 273 212 273 c 256
 151 273 117 308 96 362 c 257
 144 390 l 257
 157 354 175 322 218 321 c 256
 273 320 327 366 344 416 c 256
 360 461 345 505 294 511 c 256
 253 515 211 493 176 477 c 257
 213 513 l 257
 241 537 282 558 320 557 c 256
 397 555 416 478 396 415 c 256
330 653 m 257
 254 525 l 257
 164 466 l 257
 302 697 l 257
 491 697 l 257
 476 654 l 257
 330 653 l 257
552 136 m 256
 537 93 549 41 602 39 c 256
 656 36 712 88 729 136 c 256
 744 179 732 231 679 234 c 256
 625 237 569 184 552 136 c 256
756 416 m 257
 822 415 l 257
 642 246 l 257
 636 253 l 257
 657 262 677 273 701 272 c 256
 773 270 794 194 776 135 c 256
 753 60 677 -7 597 -7 c 256
 517 -7 481 66 504 137 c 256
 514 169 534 198 557 223 c 257
 756 416 l 257
EndSplineSet
EndChar

StartChar: oneeighth
Encoding: 8539 8539 164
GlifName: oneeighth
Width: 715
VWidth: 0
Flags: HMW
LayerCount: 2
Fore
SplineSet
715 698 m 257
 781 697 l 257
 56 0 l 257
 -10 0 l 257
 715 698 l 257
183 613 m 257
 199 664 l 257
 352 701 l 257
 205 275 l 257
 154 275 l 257
 276 636 l 257
 183 613 l 257
508 320 m 256
 526 377 590 426 650 425 c 256
 709 424 745 374 729 318 c 256
 712 259 647 213 586 214 c 256
 525 215 490 261 508 320 c 256
553 312 m 256
 543 283 555 250 589 247 c 256
 624 244 668 282 679 314 c 256
 689 344 679 377 644 380 c 256
 608 383 564 345 553 312 c 256
423 115 m 256
 443 181 515 234 584 233 c 256
 652 233 693 178 673 113 c 256
 653 48 580 -6 512 -5 c 256
 446 -4 404 52 423 115 c 256
473 120 m 256
 459 83 475 42 518 40 c 256
 563 38 614 79 628 120 c 256
 640 156 625 198 583 200 c 256
 539 202 487 159 473 120 c 256
EndSplineSet
EndChar

StartChar: threeeighths
Encoding: 8540 8540 165
GlifName: threeeighths
Width: 796
VWidth: 0
Flags: HMW
LayerCount: 2
Fore
SplineSet
797 698 m 257
 863 697 l 257
 138 0 l 257
 72 0 l 257
 797 698 l 257
249 489 m 257
 259 520 l 257
 303 530 349 546 366 593 c 256
 377 623 368 656 333 659 c 256
 293 663 263 626 242 598 c 257
 193 599 l 257
 223 654 270 707 339 705 c 256
 401 703 435 650 416 593 c 256
 393 521 316 498 249 489 c 257
199 275 m 256
 125 275 99 325 106 391 c 257
 155 391 l 257
 155 354 161 325 205 323 c 256
 248 321 296 358 309 398 c 256
 326 451 287 466 244 475 c 257
 255 507 l 257
 323 499 383 469 359 390 c 256
 339 324 267 275 199 275 c 256
589 320 m 256
 607 377 672 426 732 425 c 256
 791 424 827 374 811 318 c 256
 794 259 729 213 668 214 c 256
 607 215 571 261 589 320 c 256
635 312 m 256
 625 283 637 250 671 247 c 256
 706 244 750 282 761 314 c 256
 771 344 760 377 725 380 c 256
 689 383 646 345 635 312 c 256
505 115 m 256
 525 181 597 234 666 233 c 256
 734 233 775 178 755 113 c 256
 735 48 662 -6 594 -5 c 256
 528 -4 486 52 505 115 c 256
555 120 m 256
 541 83 557 42 600 40 c 256
 645 38 695 79 709 120 c 256
 721 156 707 198 665 200 c 256
 621 202 569 159 555 120 c 256
EndSplineSet
EndChar

StartChar: fiveeighths
Encoding: 8541 8541 166
GlifName: fiveeighths
Width: 829
VWidth: 0
Flags: HMW
LayerCount: 2
Fore
SplineSet
830 698 m 257
 896 697 l 257
 171 0 l 257
 105 0 l 257
 830 698 l 257
396 415 m 256
 372 337 295 273 212 273 c 256
 151 273 117 308 96 362 c 257
 144 390 l 257
 157 354 175 322 218 321 c 256
 273 320 327 366 344 416 c 256
 360 461 345 505 294 511 c 256
 253 515 211 493 176 477 c 257
 213 513 l 257
 241 537 282 558 320 557 c 256
 397 555 416 478 396 415 c 256
330 653 m 257
 254 525 l 257
 164 466 l 257
 302 697 l 257
 491 697 l 257
 476 654 l 257
 330 653 l 257
622 320 m 256
 640 377 705 426 765 425 c 256
 824 424 860 374 844 318 c 256
 827 259 762 213 701 214 c 256
 640 215 604 261 622 320 c 256
668 312 m 256
 658 283 670 250 704 247 c 256
 739 244 783 282 794 314 c 256
 804 344 793 377 758 380 c 256
 722 383 679 345 668 312 c 256
538 115 m 256
 558 181 630 234 699 233 c 256
 767 233 808 178 788 113 c 256
 768 48 695 -6 627 -5 c 256
 561 -4 519 52 538 115 c 256
588 120 m 256
 574 83 590 42 633 40 c 256
 678 38 728 79 742 120 c 256
 754 156 739 198 697 200 c 256
 653 202 602 159 588 120 c 256
EndSplineSet
EndChar

StartChar: seveneighths
Encoding: 8542 8542 167
GlifName: seveneighths
Width: 726
VWidth: 0
Flags: HMW
LayerCount: 2
Fore
SplineSet
726 698 m 257
 792 697 l 257
 67 0 l 257
 1 0 l 257
 726 698 l 257
196 653 m 257
 211 699 l 257
 494 699 l 257
 160 282 l 257
 106 282 l 257
 398 651 l 257
 196 653 l 257
519 320 m 256
 537 377 602 426 662 425 c 256
 721 424 756 374 740 318 c 256
 723 259 659 213 598 214 c 256
 537 215 501 261 519 320 c 256
564 312 m 256
 554 283 566 250 600 247 c 256
 635 244 680 282 691 314 c 256
 701 344 690 377 655 380 c 256
 619 383 575 345 564 312 c 256
435 115 m 256
 455 181 527 234 596 233 c 256
 664 233 704 178 684 113 c 256
 664 48 591 -6 523 -5 c 256
 457 -4 416 52 435 115 c 256
484 120 m 256
 470 83 486 42 529 40 c 256
 574 38 625 79 639 120 c 256
 651 156 636 198 594 200 c 256
 550 202 498 159 484 120 c 256
EndSplineSet
EndChar

StartChar: uni2074
Encoding: 8308 8308 168
GlifName: uni2074
Width: 363
VWidth: 0
Flags: HMW
LayerCount: 2
Fore
SplineSet
98 366 m 257
 148 407 l 257
 319 409 l 257
 329 409 l 257
 415 408 l 257
 401 365 l 257
 98 366 l 257
153 366 m 257
 97 367 l 257
 429 698 l 257
 452 699 l 257
 310 281 l 257
 260 281 l 257
 296 386 l 257
 297 392 l 257
 362 576 l 257
 153 366 l 257
EndSplineSet
EndChar

StartChar: uni2075
Encoding: 8309 8309 169
GlifName: uni2075
Width: 334
VWidth: 0
Flags: HMW
LayerCount: 2
Fore
SplineSet
396 415 m 256
 372 337 295 273 212 273 c 256
 151 273 117 308 96 362 c 257
 144 390 l 257
 157 354 175 322 218 321 c 256
 273 320 327 366 344 416 c 256
 360 461 345 505 294 511 c 256
 253 515 211 493 176 477 c 257
 213 513 l 257
 241 537 282 558 320 557 c 256
 397 555 416 478 396 415 c 256
330 653 m 257
 254 525 l 257
 164 466 l 257
 302 697 l 257
 491 697 l 257
 476 654 l 257
 330 653 l 257
EndSplineSet
EndChar

StartChar: uni2076
Encoding: 8310 8310 170
GlifName: uni2076
Width: 325
VWidth: 0
Flags: HMW
LayerCount: 2
Fore
SplineSet
168 416 m 256
 153 373 165 321 218 319 c 256
 272 316 328 368 345 416 c 256
 360 459 348 511 295 514 c 256
 241 517 185 464 168 416 c 256
372 696 m 257
 438 695 l 257
 257 526 l 257
 251 533 l 257
 272 542 293 553 317 552 c 256
 389 550 410 474 392 415 c 256
 369 340 292 273 212 273 c 256
 132 273 97 346 120 417 c 256
 130 449 150 478 173 503 c 257
 372 696 l 257
EndSplineSet
EndChar

StartChar: uni2077
Encoding: 8311 8311 171
GlifName: uni2077
Width: 333
VWidth: 0
Flags: HMW
LayerCount: 2
Fore
SplineSet
196 653 m 257
 211 699 l 257
 494 699 l 257
 160 282 l 257
 106 282 l 257
 398 651 l 257
 196 653 l 257
EndSplineSet
EndChar

StartChar: uni2078
Encoding: 8312 8312 172
GlifName: uni2078
Width: 302
VWidth: 0
Flags: HMW
LayerCount: 2
Fore
SplineSet
191 600 m 256
 209 657 274 706 334 705 c 256
 393 704 428 654 412 598 c 256
 395 539 331 493 270 494 c 256
 209 495 173 541 191 600 c 256
236 592 m 256
 226 563 239 530 273 527 c 256
 308 524 352 562 363 594 c 256
 373 624 362 657 327 660 c 256
 291 663 247 625 236 592 c 256
107 395 m 256
 127 461 199 514 268 513 c 256
 336 513 377 458 357 393 c 256
 337 328 264 274 196 275 c 256
 130 276 88 332 107 395 c 256
157 400 m 256
 143 363 158 322 201 320 c 256
 246 318 297 359 311 400 c 256
 323 436 308 478 266 480 c 256
 222 482 171 439 157 400 c 256
EndSplineSet
EndChar

StartChar: uni2079
Encoding: 8313 8313 173
GlifName: uni2079
Width: 325
VWidth: 0
Flags: HMW
LayerCount: 2
Fore
SplineSet
401 564 m 256
 416 607 404 659 351 661 c 256
 297 664 241 612 224 564 c 256
 209 521 221 469 274 466 c 256
 328 463 384 516 401 564 c 256
196 284 m 257
 131 285 l 257
 311 454 l 257
 317 447 l 257
 296 438 276 427 252 428 c 256
 180 430 159 506 177 565 c 256
 200 640 276 707 356 707 c 256
 436 707 472 634 449 563 c 256
 439 531 418 502 395 477 c 257
 196 284 l 257
EndSplineSet
EndChar

StartChar: uni2070
Encoding: 8304 8304 174
GlifName: uni2070
Width: 350
VWidth: 0
Flags: HMW
LayerCount: 2
Fore
SplineSet
190 490 m 256
 173 442 143 326 225 323 c 256
 307 320 362 426 386 490 c 256
 403 538 433 654 351 657 c 256
 269 660 214 554 190 490 c 256
139 490 m 256
 168 581 247 706 356 705 c 256
 469 704 462 567 437 490 c 256
 408 399 329 274 220 275 c 256
 107 276 114 413 139 490 c 256
EndSplineSet
EndChar

StartChar: uni2080
Encoding: 8320 8320 175
GlifName: uni2080
Width: 350
VWidth: 0
Flags: HMW
LayerCount: 2
Fore
SplineSet
94 210 m 256
 77 162 47 46 129 43 c 256
 211 40 266 146 290 210 c 256
 307 258 338 374 256 377 c 256
 174 380 118 274 94 210 c 256
44 210 m 256
 73 301 152 426 261 425 c 256
 374 424 366 287 341 210 c 256
 312 119 233 -6 124 -5 c 256
 11 -4 19 133 44 210 c 256
EndSplineSet
EndChar

StartChar: uni2084
Encoding: 8324 8324 176
GlifName: uni2084
Width: 363
VWidth: 0
Flags: HMW
LayerCount: 2
Fore
SplineSet
2 86 m 257
 53 127 l 257
 224 129 l 257
 234 129 l 257
 320 128 l 257
 305 85 l 257
 2 86 l 257
57 86 m 257
 2 87 l 257
 334 418 l 257
 357 419 l 257
 214 0 l 257
 164 0 l 257
 200 106 l 257
 202 112 l 257
 267 296 l 257
 57 86 l 257
EndSplineSet
EndChar

StartChar: uni2085
Encoding: 8325 8325 177
GlifName: uni2085
Width: 334
VWidth: 0
Flags: HMW
LayerCount: 2
Fore
SplineSet
301 135 m 256
 277 57 200 -7 117 -7 c 256
 56 -7 21 28 0 82 c 257
 48 110 l 257
 61 74 79 42 122 41 c 256
 177 40 232 86 249 136 c 256
 265 181 249 225 198 231 c 256
 157 235 115 213 80 197 c 257
 118 233 l 257
 146 257 187 278 225 277 c 256
 302 275 321 198 301 135 c 256
235 373 m 257
 158 245 l 257
 69 186 l 257
 206 417 l 257
 395 417 l 257
 380 374 l 257
 235 373 l 257
EndSplineSet
EndChar

StartChar: uni2086
Encoding: 8326 8326 178
GlifName: uni2086
Width: 325
VWidth: 0
Flags: HMW
LayerCount: 2
Fore
SplineSet
71 136 m 256
 56 93 68 41 121 39 c 256
 175 36 231 88 248 136 c 256
 263 179 251 231 198 234 c 256
 144 237 88 184 71 136 c 256
276 416 m 257
 342 415 l 257
 161 246 l 257
 155 253 l 257
 176 262 196 273 220 272 c 256
 292 270 313 194 295 135 c 256
 272 60 196 -7 116 -7 c 256
 36 -7 0 66 23 137 c 256
 33 169 54 198 77 223 c 257
 276 416 l 257
EndSplineSet
EndChar

StartChar: uni2087
Encoding: 8327 8327 179
GlifName: uni2087
Width: 333
VWidth: 0
Flags: HMW
LayerCount: 2
Fore
SplineSet
100 373 m 257
 116 419 l 257
 399 419 l 257
 64 0 l 257
 10 0 l 257
 302 371 l 257
 100 373 l 257
EndSplineSet
EndChar

StartChar: uni2088
Encoding: 8328 8328 180
GlifName: uni2088
Width: 302
VWidth: 0
Flags: HMW
LayerCount: 2
Fore
SplineSet
95 320 m 256
 113 377 178 426 238 425 c 256
 297 424 333 374 317 318 c 256
 300 259 235 213 174 214 c 256
 113 215 77 261 95 320 c 256
141 312 m 256
 131 283 143 250 177 247 c 256
 212 244 256 282 267 314 c 256
 277 344 266 377 231 380 c 256
 195 383 152 345 141 312 c 256
11 115 m 256
 31 181 103 234 172 233 c 256
 240 233 281 178 261 113 c 256
 241 48 168 -6 100 -5 c 256
 34 -4 -8 52 11 115 c 256
61 120 m 256
 47 83 63 42 106 40 c 256
 151 38 202 79 216 120 c 256
 228 156 213 198 171 200 c 256
 127 202 75 159 61 120 c 256
EndSplineSet
EndChar

StartChar: uni2089
Encoding: 8329 8329 181
GlifName: uni2089
Width: 325
VWidth: 0
Flags: HMW
LayerCount: 2
Fore
SplineSet
289 284 m 256
 304 327 292 379 239 381 c 256
 185 384 129 332 112 284 c 256
 97 241 109 189 162 186 c 256
 216 183 272 236 289 284 c 256
85 4 m 257
 19 5 l 257
 200 174 l 257
 206 167 l 257
 185 158 164 147 140 148 c 256
 68 150 47 226 65 285 c 256
 88 360 165 427 245 427 c 256
 325 427 360 354 337 283 c 256
 327 251 307 222 284 197 c 257
 85 4 l 257
EndSplineSet
EndChar

StartChar: uni2081
Encoding: 8321 8321 182
GlifName: uni2081
Width: 295
VWidth: 0
Flags: HMW
LayerCount: 2
Fore
SplineSet
146 340 m 257
 162 391 l 257
 316 428 l 257
 168 2 l 257
 118 2 l 257
 239 363 l 257
 146 340 l 257
EndSplineSet
EndChar

StartChar: uni2082
Encoding: 8322 8322 183
GlifName: uni2082
Width: 325
VWidth: 0
Flags: HMW
LayerCount: 2
Fore
SplineSet
-30 4 m 257
 224 214 l 258
 253 238 290 268 302 306 c 256
 313 341 301 376 261 380 c 256
 201 386 161 324 136 280 c 257
 85 280 l 257
 119 353 177 430 267 428 c 256
 338 427 371 365 351 301 c 256
 336 254 298 217 261 186 c 258
 91 51 l 257
 265 49 l 257
 250 3 l 257
 -30 4 l 257
EndSplineSet
EndChar

StartChar: uni2083
Encoding: 8323 8323 184
GlifName: uni2083
Width: 293
VWidth: 0
Flags: HMW
LayerCount: 2
Fore
SplineSet
148 209 m 257
 159 240 l 257
 203 250 249 266 266 313 c 256
 277 343 268 376 233 379 c 256
 193 383 163 346 142 318 c 257
 93 319 l 257
 123 374 170 427 239 425 c 256
 301 423 335 370 316 313 c 256
 293 241 215 218 148 209 c 257
98 -5 m 256
 24 -5 -1 45 6 111 c 257
 54 111 l 257
 54 74 60 45 104 43 c 256
 147 41 196 78 209 118 c 256
 226 171 186 186 143 195 c 257
 154 227 l 257
 222 219 282 189 258 110 c 256
 238 44 166 -5 98 -5 c 256
EndSplineSet
EndChar

StartChar: Agrave
Encoding: 192 192 185
GlifName: A_grave
Width: 620
VWidth: 0
Flags: HMW
LayerCount: 2
Fore
SplineSet
156 212 m 257
 209 289 l 257
 504 290 l 257
 506 210 l 257
 156 212 l 257
446 542 m 257
 239 264 l 257
 226 246 l 257
 42 0 l 257
 -55 0 l 257
 507 738 l 257
 561 0 l 257
 473 0 l 257
 459 240 l 257
 459 260 l 257
 446 542 l 257
455 947 m 257
 538 985 l 257
 629 823 l 257
 579 795 l 257
 455 947 l 257
EndSplineSet
EndChar

StartChar: Aacute
Encoding: 193 193 186
GlifName: A_acute
Width: 620
VWidth: 0
Flags: HMW
LayerCount: 2
Fore
SplineSet
156 212 m 257
 209 289 l 257
 504 290 l 257
 506 210 l 257
 156 212 l 257
446 542 m 257
 239 264 l 257
 226 246 l 257
 42 0 l 257
 -55 0 l 257
 507 738 l 257
 561 0 l 257
 473 0 l 257
 459 240 l 257
 459 260 l 257
 446 542 l 257
703 940 m 257
 485 797 l 257
 447 828 l 257
 640 984 l 257
 703 940 l 257
EndSplineSet
EndChar

StartChar: Acircumflex
Encoding: 194 194 187
GlifName: A_circumflex
Width: 620
VWidth: 0
Flags: HMW
LayerCount: 2
Fore
SplineSet
156 212 m 257
 209 289 l 257
 504 290 l 257
 506 210 l 257
 156 212 l 257
446 542 m 257
 239 264 l 257
 226 246 l 257
 42 0 l 257
 -55 0 l 257
 507 738 l 257
 561 0 l 257
 473 0 l 257
 459 240 l 257
 459 260 l 257
 446 542 l 257
552 849 m 257
 414 756 l 257
 375 798 l 257
 572 935 l 257
 680 793 l 257
 622 756 l 257
 552 849 l 257
EndSplineSet
EndChar

StartChar: Atilde
Encoding: 195 195 188
GlifName: A_tilde
Width: 620
VWidth: 0
Flags: HMW
LayerCount: 2
Fore
SplineSet
156 212 m 257
 209 289 l 257
 504 290 l 257
 506 210 l 257
 156 212 l 257
446 542 m 257
 239 264 l 257
 226 246 l 257
 42 0 l 257
 -55 0 l 257
 507 738 l 257
 561 0 l 257
 473 0 l 257
 459 240 l 257
 459 260 l 257
 446 542 l 257
376 815 m 257
 405 851 447 896 499 893 c 256
 538 891 560 845 599 848 c 256
 627 850 652 877 671 894 c 257
 704 849 l 257
 674 818 631 776 583 780 c 256
 545 783 524 827 485 825 c 256
 455 823 436 797 419 776 c 257
 376 815 l 257
EndSplineSet
EndChar

StartChar: Adieresis
Encoding: 196 196 189
GlifName: A_dieresis
Width: 620
VWidth: 0
Flags: HMW
LayerCount: 2
Fore
SplineSet
156 212 m 257
 209 289 l 257
 504 290 l 257
 506 210 l 257
 156 212 l 257
446 542 m 257
 239 264 l 257
 226 246 l 257
 42 0 l 257
 -55 0 l 257
 507 738 l 257
 561 0 l 257
 473 0 l 257
 459 240 l 257
 459 260 l 257
 446 542 l 257
588 852 m 256
 594 876 632 907 657 904 c 256
 684 901 699 874 693 848 c 256
 687 824 649 793 624 796 c 256
 597 799 582 826 588 852 c 256
399 852 m 256
 405 876 444 907 469 904 c 256
 496 901 511 874 505 848 c 256
 499 824 461 793 436 796 c 256
 409 799 393 826 399 852 c 256
EndSplineSet
EndChar

StartChar: Aring
Encoding: 197 197 190
GlifName: A_ring
Width: 620
VWidth: 0
Flags: HMW
LayerCount: 2
Fore
SplineSet
156 212 m 257
 209 289 l 257
 504 290 l 257
 506 210 l 257
 156 212 l 257
446 542 m 257
 239 264 l 257
 226 246 l 257
 42 0 l 257
 -55 0 l 257
 507 738 l 257
 561 0 l 257
 473 0 l 257
 459 240 l 257
 459 260 l 257
 446 542 l 257
431 800 m 256
 446 850 505 898 559 897 c 256
 613 896 641 845 626 796 c 256
 611 746 552 698 498 699 c 256
 444 700 416 751 431 800 c 256
480 797 m 256
 474 777 484 749 507 746 c 256
 531 742 571 777 577 799 c 256
 583 819 573 847 550 850 c 256
 526 854 486 819 480 797 c 256
EndSplineSet
EndChar

StartChar: AE
Encoding: 198 198 191
GlifName: A_E_
Width: 903
VWidth: 0
Flags: HMW
LayerCount: 2
Fore
SplineSet
222 211 m 257
 249 290 l 257
 534 290 l 257
 507 210 l 257
 222 211 l 257
598 700 m 257
 647 655 l 257
 43 0 l 257
 -50 0 l 257
 598 700 l 257
452 0 m 257
 478 80 l 257
 814 80 l 257
 786 0 l 257
 452 0 l 257
676 620 m 257
 598 700 l 257
 1025 700 l 257
 998 620 l 257
 676 620 l 257
568 341 m 257
 594 420 l 257
 911 420 l 257
 884 340 l 257
 568 341 l 257
643 699 m 257
 729 700 l 257
 487 0 l 257
 407 0 l 257
 643 699 l 257
EndSplineSet
EndChar

StartChar: Ccedilla
Encoding: 199 199 192
GlifName: C_cedilla
Width: 644
VWidth: 0
Flags: HMW
LayerCount: 2
Fore
SplineSet
189 350 m 256
 146 229 182 79 332 76 c 256
 426 74 512 123 585 177 c 257
 550 66 l 257
 479 20 401 -11 315 -10 c 256
 118 -8 46 182 101 350 c 256
 162 537 345 708 549 710 c 256
 625 711 687 686 741 632 c 257
 705 521 l 257
 668 589 610 624 532 624 c 256
 378 623 239 489 189 350 c 256
320 57 m 257
 381 57 l 257
 281 -53 l 257
 283 -53 285 -53 287 -53 c 256
 325 -60 345 -91 335 -129 c 256
 321 -181 258 -220 206 -220 c 256
 172 -220 152 -202 129 -180 c 257
 171 -144 l 257
 184 -155 197 -167 216 -167 c 256
 237 -167 274 -148 280 -126 c 256
 286 -105 267 -92 249 -91 c 256
 228 -89 204 -100 185 -107 c 257
 320 57 l 257
EndSplineSet
EndChar

StartChar: Egrave
Encoding: 200 200 193
GlifName: E_grave
Width: 517
VWidth: 0
Flags: HMW
LayerCount: 2
Fore
SplineSet
66 0 m 257
 92 80 l 257
 428 80 l 257
 401 0 l 257
 66 0 l 257
278 621 m 257
 304 700 l 257
 639 700 l 257
 612 620 l 257
 278 621 l 257
182 341 m 257
 209 420 l 257
 525 420 l 257
 498 340 l 257
 182 341 l 257
257 699 m 257
 343 700 l 257
 101 0 l 257
 22 0 l 257
 257 699 l 257
399 922 m 257
 482 960 l 257
 573 798 l 257
 524 770 l 257
 399 922 l 257
EndSplineSet
EndChar

StartChar: Eacute
Encoding: 201 201 194
GlifName: E_acute
Width: 517
VWidth: 0
Flags: HMW
LayerCount: 2
Fore
SplineSet
66 0 m 257
 92 80 l 257
 428 80 l 257
 401 0 l 257
 66 0 l 257
278 621 m 257
 304 700 l 257
 639 700 l 257
 612 620 l 257
 278 621 l 257
182 341 m 257
 209 420 l 257
 525 420 l 257
 498 340 l 257
 182 341 l 257
257 699 m 257
 343 700 l 257
 101 0 l 257
 22 0 l 257
 257 699 l 257
647 915 m 257
 429 772 l 257
 391 803 l 257
 585 959 l 257
 647 915 l 257
EndSplineSet
EndChar

StartChar: Ecircumflex
Encoding: 202 202 195
GlifName: E_circumflex
Width: 517
VWidth: 0
Flags: HMW
LayerCount: 2
Fore
SplineSet
66 0 m 257
 92 80 l 257
 428 80 l 257
 401 0 l 257
 66 0 l 257
278 621 m 257
 304 700 l 257
 639 700 l 257
 612 620 l 257
 278 621 l 257
182 341 m 257
 209 420 l 257
 525 420 l 257
 498 340 l 257
 182 341 l 257
257 699 m 257
 343 700 l 257
 101 0 l 257
 22 0 l 257
 257 699 l 257
519 864 m 257
 382 771 l 257
 343 813 l 257
 539 950 l 257
 647 808 l 257
 590 771 l 257
 519 864 l 257
EndSplineSet
EndChar

StartChar: Edieresis
Encoding: 203 203 196
GlifName: E_dieresis
Width: 517
VWidth: 0
Flags: HMW
LayerCount: 2
Fore
SplineSet
66 0 m 257
 92 80 l 257
 428 80 l 257
 401 0 l 257
 66 0 l 257
278 621 m 257
 304 700 l 257
 639 700 l 257
 612 620 l 257
 278 621 l 257
182 341 m 257
 209 420 l 257
 525 420 l 257
 498 340 l 257
 182 341 l 257
257 699 m 257
 343 700 l 257
 101 0 l 257
 22 0 l 257
 257 699 l 257
548 847 m 256
 554 871 593 902 618 899 c 256
 645 896 660 869 654 843 c 256
 648 819 610 788 585 791 c 256
 558 794 542 821 548 847 c 256
360 847 m 256
 366 871 404 902 429 899 c 256
 456 896 472 869 466 843 c 256
 460 819 422 788 397 791 c 256
 370 794 354 821 360 847 c 256
EndSplineSet
EndChar

StartChar: Igrave
Encoding: 204 204 197
GlifName: I_grave
Width: 230
VWidth: 0
Flags: HMW
LayerCount: 2
Fore
SplineSet
257 699 m 257
 343 700 l 257
 101 0 l 257
 22 0 l 257
 257 699 l 257
251 922 m 257
 334 960 l 257
 425 798 l 257
 375 770 l 257
 251 922 l 257
EndSplineSet
EndChar

StartChar: Iacute
Encoding: 205 205 198
GlifName: I_acute
Width: 230
VWidth: 0
Flags: HMW
LayerCount: 2
Fore
SplineSet
257 699 m 257
 343 700 l 257
 101 0 l 257
 22 0 l 257
 257 699 l 257
498 915 m 257
 280 771 l 257
 243 803 l 257
 437 959 l 257
 498 915 l 257
EndSplineSet
EndChar

StartChar: Icircumflex
Encoding: 206 206 199
GlifName: I_circumflex
Width: 230
VWidth: 0
Flags: HMW
LayerCount: 2
Fore
SplineSet
257 699 m 257
 343 700 l 257
 101 0 l 257
 22 0 l 257
 257 699 l 257
361 864 m 257
 223 771 l 257
 185 813 l 257
 381 950 l 257
 489 808 l 257
 432 771 l 257
 361 864 l 257
EndSplineSet
EndChar

StartChar: Idieresis
Encoding: 207 207 200
GlifName: I_dieresis
Width: 230
VWidth: 0
Flags: HMW
LayerCount: 2
Fore
SplineSet
257 699 m 257
 343 700 l 257
 101 0 l 257
 22 0 l 257
 257 699 l 257
384 827 m 256
 390 850 428 882 453 879 c 256
 480 876 496 849 490 823 c 256
 484 799 445 768 420 771 c 256
 392 774 378 802 384 827 c 256
196 827 m 256
 202 850 239 882 264 879 c 256
 291 876 308 849 302 823 c 256
 296 799 257 768 232 771 c 256
 204 774 190 802 196 827 c 256
EndSplineSet
EndChar

StartChar: Ntilde
Encoding: 209 209 201
GlifName: N_tilde
Width: 729
VWidth: 0
Flags: HMW
LayerCount: 2
Fore
SplineSet
758 700 m 257
 841 700 l 257
 589 -33 l 257
 282 522 l 257
 102 0 l 257
 18 0 l 257
 270 733 l 257
 578 178 l 257
 758 700 l 257
417 795 m 257
 446 831 487 876 539 873 c 256
 578 871 601 825 640 828 c 256
 668 830 692 857 711 874 c 257
 744 829 l 257
 714 798 671 756 623 760 c 256
 585 763 565 807 526 805 c 256
 496 803 476 777 459 756 c 257
 417 795 l 257
EndSplineSet
EndChar

StartChar: Eth
Encoding: 208 208 202
GlifName: E_th
Width: 639
VWidth: 0
Flags: HMW
LayerCount: 2
Fore
SplineSet
57 311 m 257
 82 385 l 257
 367 385 l 257
 342 310 l 257
 57 311 l 257
257 699 m 257
 343 700 l 257
 101 0 l 257
 22 0 l 257
 257 699 l 257
225 0 m 256
 63 0 l 257
 93 85 l 257
 242 85 l 256
 399 91 534 204 586 350 c 256
 633 481 585 608 434 615 c 256
 273 615 l 257
 303 700 l 257
 451 700 l 256
 647 693 726 525 669 350 c 256
 607 159 429 6 225 0 c 256
EndSplineSet
EndChar

StartChar: Ograve
Encoding: 210 210 203
GlifName: O_grave
Width: 743
VWidth: 0
Flags: HMW
LayerCount: 2
Fore
SplineSet
189 350 m 256
 145 226 184 78 337 76 c 256
 494 74 635 210 685 350 c 256
 729 474 690 622 537 624 c 256
 380 626 239 490 189 350 c 256
101 350 m 256
 162 538 348 711 553 710 c 256
 752 709 828 521 773 350 c 256
 712 162 525 -11 320 -10 c 256
 121 -9 46 179 101 350 c 256
517 922 m 257
 600 960 l 257
 691 798 l 257
 641 770 l 257
 517 922 l 257
EndSplineSet
EndChar

StartChar: Oacute
Encoding: 211 211 204
GlifName: O_acute
Width: 743
VWidth: 0
Flags: HMW
LayerCount: 2
Fore
SplineSet
189 350 m 256
 145 226 184 78 337 76 c 256
 494 74 635 210 685 350 c 256
 729 474 690 622 537 624 c 256
 380 626 239 490 189 350 c 256
101 350 m 256
 162 538 348 711 553 710 c 256
 752 709 828 521 773 350 c 256
 712 162 525 -11 320 -10 c 256
 121 -9 46 179 101 350 c 256
746 915 m 257
 528 772 l 257
 490 803 l 257
 683 959 l 257
 746 915 l 257
EndSplineSet
EndChar

StartChar: Ocircumflex
Encoding: 212 212 205
GlifName: O_circumflex
Width: 743
VWidth: 0
Flags: HMW
LayerCount: 2
Fore
SplineSet
189 350 m 256
 145 226 184 78 337 76 c 256
 494 74 635 210 685 350 c 256
 729 474 690 622 537 624 c 256
 380 626 239 490 189 350 c 256
101 350 m 256
 162 538 349 711 554 710 c 256
 753 709 828 521 773 350 c 256
 712 162 525 -11 320 -10 c 256
 121 -9 46 179 101 350 c 256
618 864 m 257
 480 771 l 257
 442 813 l 257
 638 950 l 257
 746 808 l 257
 689 771 l 257
 618 864 l 257
EndSplineSet
EndChar

StartChar: Otilde
Encoding: 213 213 206
GlifName: O_tilde
Width: 743
VWidth: 0
Flags: HMW
LayerCount: 2
Fore
SplineSet
189 350 m 256
 145 226 184 78 337 76 c 256
 494 74 635 210 685 350 c 256
 729 474 690 622 537 624 c 256
 380 626 239 490 189 350 c 256
101 350 m 256
 162 538 349 711 554 710 c 256
 753 709 828 521 773 350 c 256
 712 162 525 -11 320 -10 c 256
 121 -9 46 179 101 350 c 256
436 810 m 257
 427 850 530 889 558 888 c 256
 597 886 619 840 659 843 c 256
 687 845 711 872 730 889 c 257
 763 844 l 257
 733 813 691 771 643 775 c 256
 605 778 584 822 545 820 c 256
 515 818 495 792 478 771 c 257
 436 810 l 257
EndSplineSet
EndChar

StartChar: Odieresis
Encoding: 214 214 207
GlifName: O_dieresis
Width: 743
VWidth: 0
Flags: HMW
LayerCount: 2
Fore
SplineSet
189 350 m 256
 145 226 184 78 337 76 c 256
 494 74 635 210 685 350 c 256
 729 474 690 622 537 624 c 256
 380 626 239 490 189 350 c 256
101 350 m 256
 162 538 348 711 553 710 c 256
 752 709 828 521 773 350 c 256
 712 162 525 -11 320 -10 c 256
 121 -9 46 179 101 350 c 256
640 827 m 256
 646 851 684 882 709 879 c 256
 736 876 752 849 746 823 c 256
 740 799 702 768 677 771 c 256
 650 774 634 801 640 827 c 256
452 827 m 256
 458 851 496 882 521 879 c 256
 548 876 564 849 558 823 c 256
 552 799 514 768 489 771 c 256
 462 774 446 801 452 827 c 256
EndSplineSet
EndChar

StartChar: Ugrave
Encoding: 217 217 208
GlifName: U_grave
Width: 589
VWidth: 0
Flags: HMW
LayerCount: 2
Fore
SplineSet
255 700 m 257
 338 700 l 257
 175 230 l 258
 152 155 165 73 259 71 c 256
 355 69 428 147 461 230 c 256
 623 700 l 257
 706 700 l 257
 545 230 l 258
 499 104 385 -9 243 -9 c 256
 106 -9 59 111 94 230 c 256
 255 700 l 257
430 922 m 257
 513 960 l 257
 604 798 l 257
 555 770 l 257
 430 922 l 257
EndSplineSet
EndChar

StartChar: Uacute
Encoding: 218 218 209
GlifName: U_acute
Width: 589
VWidth: 0
Flags: HMW
LayerCount: 2
Fore
SplineSet
255 700 m 257
 338 700 l 257
 175 230 l 258
 152 155 165 73 259 71 c 256
 355 69 428 147 461 230 c 256
 623 700 l 257
 706 700 l 257
 545 230 l 258
 499 104 385 -9 243 -9 c 256
 106 -9 59 111 94 230 c 256
 255 700 l 257
678 915 m 257
 460 772 l 257
 422 803 l 257
 616 959 l 257
 678 915 l 257
EndSplineSet
EndChar

StartChar: Ucircumflex
Encoding: 219 219 210
GlifName: U_circumflex
Width: 589
VWidth: 0
Flags: HMW
LayerCount: 2
Fore
SplineSet
255 700 m 257
 338 700 l 257
 175 230 l 258
 152 155 165 73 259 71 c 256
 355 69 428 147 461 230 c 256
 623 700 l 257
 706 700 l 257
 545 230 l 258
 499 104 385 -9 243 -9 c 256
 106 -9 59 111 94 230 c 256
 255 700 l 257
541 864 m 257
 403 771 l 257
 365 813 l 257
 561 950 l 257
 669 808 l 257
 611 771 l 257
 541 864 l 257
EndSplineSet
EndChar

StartChar: Udieresis
Encoding: 220 220 211
GlifName: U_dieresis
Width: 589
VWidth: 0
Flags: HMW
LayerCount: 2
Fore
SplineSet
255 700 m 257
 338 700 l 257
 175 230 l 258
 152 155 165 73 259 71 c 256
 355 69 428 147 461 230 c 256
 623 700 l 257
 706 700 l 257
 545 230 l 258
 499 104 385 -9 243 -9 c 256
 106 -9 59 111 94 230 c 256
 255 700 l 257
563 827 m 256
 569 851 607 882 632 879 c 256
 659 876 675 849 669 823 c 256
 663 799 625 768 600 771 c 256
 573 774 557 801 563 827 c 256
375 827 m 256
 381 851 419 882 444 879 c 256
 471 876 487 849 481 823 c 256
 475 799 436 768 411 771 c 256
 384 774 369 801 375 827 c 256
EndSplineSet
EndChar

StartChar: Yacute
Encoding: 221 221 212
GlifName: Y_acute
Width: 527
VWidth: 0
Flags: HMW
LayerCount: 2
Fore
SplineSet
647 915 m 257
 429 771 l 257
 392 803 l 257
 585 959 l 257
 647 915 l 257
615 699 m 257
 713 699 l 257
 353 297 l 257
 250 0 l 257
 167 0 l 257
 274 307 l 257
 191 700 l 257
 278 700 l 257
 335 379 l 257
 615 699 l 257
EndSplineSet
EndChar

StartChar: agrave
Encoding: 224 224 213
GlifName: agrave
Width: 456
VWidth: 0
Flags: HMW
LayerCount: 2
Fore
SplineSet
96 135 m 256
 80 87 113 64 157 62 c 256
 239 59 294 113 332 179 c 257
 331 128 l 257
 290 48 219 -10 125 -9 c 256
 46 -8 -9 46 15 126 c 256
 44 225 151 286 251 285 c 256
 305 285 346 265 380 224 c 257
 365 179 l 257
 329 208 291 225 244 224 c 256
 186 223 116 195 96 135 c 256
173 352 m 257
 154 416 l 257
 210 446 270 470 334 469 c 256
 418 468 482 419 459 330 c 257
 346 0 l 257
 267 0 l 257
 384 330 l 257
 385 374 367 396 320 398 c 256
 268 400 218 375 173 352 c 257
259 682 m 257
 342 720 l 257
 433 558 l 257
 383 530 l 257
 259 682 l 257
EndSplineSet
Substitution2: "alt a" agrave.alt
EndChar

StartChar: aacute
Encoding: 225 225 214
GlifName: aacute
Width: 456
VWidth: 0
Flags: HMW
LayerCount: 2
Fore
SplineSet
96 135 m 256
 80 87 113 64 157 62 c 256
 239 59 294 113 332 179 c 257
 331 128 l 257
 290 48 219 -10 125 -9 c 256
 46 -8 -9 46 15 126 c 256
 44 225 151 286 251 285 c 256
 305 285 346 265 380 224 c 257
 365 179 l 257
 329 208 291 225 244 224 c 256
 186 223 116 195 96 135 c 256
173 352 m 257
 154 416 l 257
 210 446 270 470 334 469 c 256
 418 468 482 419 459 330 c 257
 346 0 l 257
 267 0 l 257
 384 330 l 257
 385 374 367 396 320 398 c 256
 268 400 218 375 173 352 c 257
563 675 m 257
 345 532 l 257
 307 563 l 257
 501 719 l 257
 563 675 l 257
EndSplineSet
Substitution2: "alt a" aacute.alt
EndChar

StartChar: acircumflex
Encoding: 226 226 215
GlifName: acircumflex
Width: 456
VWidth: 0
Flags: HMW
LayerCount: 2
Fore
SplineSet
96 135 m 256
 80 87 113 64 157 62 c 256
 239 59 294 113 332 179 c 257
 331 128 l 257
 290 48 219 -10 125 -9 c 256
 46 -8 -9 46 15 126 c 256
 44 225 151 286 251 285 c 256
 305 285 346 265 380 224 c 257
 365 179 l 257
 329 208 291 225 244 224 c 256
 186 223 116 195 96 135 c 256
173 352 m 257
 154 416 l 257
 210 446 270 470 334 469 c 256
 418 468 482 419 459 330 c 257
 346 0 l 257
 267 0 l 257
 384 330 l 257
 385 374 367 396 320 398 c 256
 268 400 218 375 173 352 c 257
398 624 m 257
 260 531 l 257
 221 573 l 257
 418 710 l 257
 526 568 l 257
 468 531 l 257
 398 624 l 257
EndSplineSet
Substitution2: "alt a" acircumflex.alt
EndChar

StartChar: atilde
Encoding: 227 227 216
GlifName: atilde
Width: 456
VWidth: 0
Flags: HMW
LayerCount: 2
Fore
SplineSet
96 135 m 256
 80 87 113 64 157 62 c 256
 239 59 294 113 332 179 c 257
 331 128 l 257
 290 48 219 -10 125 -9 c 256
 46 -8 -9 46 15 126 c 256
 44 225 151 286 251 285 c 256
 305 285 346 265 380 224 c 257
 365 179 l 257
 329 208 291 225 244 224 c 256
 186 223 116 195 96 135 c 256
173 352 m 257
 154 416 l 257
 210 446 270 470 334 469 c 256
 418 468 482 419 459 330 c 257
 346 0 l 257
 267 0 l 257
 384 330 l 257
 385 374 367 396 320 398 c 256
 268 400 218 375 173 352 c 257
216 570 m 257
 245 606 286 651 338 648 c 256
 377 646 400 600 439 603 c 256
 467 605 491 632 510 649 c 257
 543 604 l 257
 513 573 470 531 422 535 c 256
 384 538 364 582 325 580 c 256
 295 578 275 552 258 531 c 257
 216 570 l 257
EndSplineSet
Substitution2: "alt a" atilde.alt
EndChar

StartChar: adieresis
Encoding: 228 228 217
GlifName: adieresis
Width: 456
VWidth: 0
Flags: HMW
LayerCount: 2
Fore
SplineSet
96 135 m 256
 80 87 113 64 157 62 c 256
 239 59 294 113 332 179 c 257
 331 128 l 257
 290 48 219 -10 125 -9 c 256
 46 -8 -9 46 15 126 c 256
 44 225 151 286 251 285 c 256
 305 285 346 265 380 224 c 257
 365 179 l 257
 329 208 291 225 244 224 c 256
 186 223 116 195 96 135 c 256
173 352 m 257
 154 416 l 257
 210 446 270 470 334 469 c 256
 418 468 482 419 459 330 c 257
 346 0 l 257
 267 0 l 257
 384 330 l 257
 385 374 367 396 320 398 c 256
 268 400 218 375 173 352 c 257
420 587 m 256
 426 611 464 642 489 639 c 256
 516 636 532 609 526 583 c 256
 520 559 481 528 456 531 c 256
 429 534 414 561 420 587 c 256
232 587 m 256
 238 611 276 642 301 639 c 256
 328 636 343 609 337 583 c 256
 331 559 293 528 268 531 c 256
 241 534 226 561 232 587 c 256
EndSplineSet
Substitution2: "alt a" adieresis.alt
EndChar

StartChar: aring
Encoding: 229 229 218
GlifName: aring
Width: 456
VWidth: 0
Flags: HMW
LayerCount: 2
Fore
SplineSet
96 135 m 256
 80 87 113 64 157 62 c 256
 239 59 294 113 332 179 c 257
 331 128 l 257
 290 48 219 -10 125 -9 c 256
 46 -8 -9 46 15 126 c 256
 44 225 151 286 251 285 c 256
 305 285 346 265 380 224 c 257
 365 179 l 257
 329 208 291 225 244 224 c 256
 186 223 116 195 96 135 c 256
173 352 m 257
 154 416 l 257
 210 446 270 470 334 469 c 256
 418 468 482 419 459 330 c 257
 346 0 l 257
 267 0 l 257
 384 330 l 257
 385 374 367 396 320 398 c 256
 268 400 218 375 173 352 c 257
297 632 m 256
 312 682 370 730 424 729 c 256
 478 728 507 677 492 628 c 256
 477 578 418 530 364 531 c 256
 310 532 282 583 297 632 c 256
346 629 m 256
 340 609 349 581 372 578 c 256
 396 574 437 609 443 631 c 256
 449 651 439 679 416 682 c 256
 392 686 352 651 346 629 c 256
EndSplineSet
Substitution2: "alt a" aring.alt
EndChar

StartChar: germandbls
Encoding: 223 223 219
GlifName: germandbls
Width: 536
VWidth: 0
Flags: HMW
LayerCount: 2
Fore
SplineSet
222 65 m 257
 318 81 409 140 443 235 c 256
 478 333 411 390 321 404 c 257
 338 458 l 257
 468 447 562 361 518 224 c 256
 473 84 338 4 198 -9 c 257
 222 65 l 257
328 426 m 257
 345 480 l 257
 421 490 500 518 529 596 c 256
 552 657 525 713 456 714 c 256
 388 715 327 668 306 606 c 258
 97 0 l 257
 18 0 l 257
 225 607 l 258
 260 708 350 789 470 789 c 256
 578.019 789 644 710 611 605 c 256
 570 477 451 433 328 426 c 257
EndSplineSet
EndChar

StartChar: ae
Encoding: 230 230 220
GlifName: ae
Width: 776
VWidth: 0
Flags: HMW
LayerCount: 2
Fore
SplineSet
96 135 m 256
 80 87 113 64 157 62 c 256
 239 59 293 113 330 179 c 257
 360 127 l 257
 316 44 240 -9 144 -9 c 256
 63 -9 -12 36 15 126 c 256
 44 225 151 286 251 285 c 256
 305 285 346 265 380 224 c 257
 365 179 l 257
 329 208 291 225 244 224 c 256
 186 223 116 195 96 135 c 256
173 352 m 257
 154 416 l 257
 209 446 270 470 334 469 c 256
 420 467 462 414 440 330 c 257
 373 131 l 257
 314 131 l 257
 381 320 l 257
 390 364 366 395 321 398 c 256
 270 402 217 375 173 352 c 257
399 211 m 257
 421 277 l 257
 764 278 l 257
 761 210 l 257
 399 211 l 257
694 250 m 258
 715 315 713 396 627 399 c 256
 541 402 473 332 439 260 c 258
 426 230 l 257
 400 158 407 69 501 66 c 256
 565 64 621 107 667 147 c 257
 720 104 l 257
 654 41 573 -12 478 -9 c 256
 353 -5 311 127 356 230 c 256
 364 247 375 263 385 279 c 256
 445 373 526 471 649 469 c 256
 779 467 800 336 771 234 c 256
 769 226 766 219 763 211 c 257
 687 231 l 257
 694 250 l 258
EndSplineSet
EndChar

StartChar: ccedilla
Encoding: 231 231 221
GlifName: ccedilla
Width: 449
VWidth: 0
Flags: HMW
LayerCount: 2
Fore
SplineSet
129 230 m 256
 102 156 125 69 215 66 c 256
 285 64 348 103 399 147 c 257
 368 48 l 257
 318 14 262 -9 200 -9 c 256
 67 -8 14 114 51 230 c 256
 91 357 216 468 353 469 c 256
 408 469 452 450 489 410 c 257
 457 311 l 257
 438 366 398 395 339 394 c 256
 246 393 160 314 129 230 c 256
206 57 m 257
 266 57 l 257
 167 -53 l 257
 169 -53 170 -53 172 -53 c 256
 210 -60 230 -91 220 -129 c 256
 206 -181 143 -220 91 -220 c 256
 57 -220 37 -202 14 -180 c 257
 57 -144 l 257
 70 -155 82 -167 101 -167 c 256
 122 -167 160 -148 166 -126 c 256
 172 -105 152 -92 134 -91 c 256
 113 -89 89 -100 70 -107 c 257
 206 57 l 257
EndSplineSet
EndChar

StartChar: egrave
Encoding: 232 232 222
GlifName: egrave
Width: 484
VWidth: 0
Flags: HMW
LayerCount: 2
Fore
SplineSet
98 211 m 257
 120 277 l 257
 408 278 l 257
 418 339 409 397 335 399 c 256
 249 401 181 332 147 260 c 258
 134 230 l 257
 108 158 117 69 210 66 c 256
 274 64 329 107 375 147 c 257
 428 104 l 257
 361 41 281 -11 186 -9 c 256
 54 -6 22 122 55 230 c 256
 60 247 67 263 75 279 c 256
 125 380 230 470 348 469 c 256
 484 468 510 344 479 234 c 256
 477 226 475 219 472 211 c 257
 98 211 l 257
295 692 m 257
 378 730 l 257
 469 568 l 257
 420 540 l 257
 295 692 l 257
EndSplineSet
EndChar

StartChar: eacute
Encoding: 233 233 223
GlifName: eacute
Width: 484
VWidth: 0
Flags: HMW
LayerCount: 2
Fore
SplineSet
98 211 m 257
 120 277 l 257
 408 278 l 257
 418 339 409 397 335 399 c 256
 249 401 181 332 147 260 c 258
 134 230 l 257
 108 158 117 69 210 66 c 256
 274 64 329 107 375 147 c 257
 428 104 l 257
 361 41 281 -11 186 -9 c 256
 54 -6 22 122 55 230 c 256
 60 247 67 263 75 279 c 256
 125 380 230 470 348 469 c 256
 484 468 510 344 479 234 c 256
 477 226 475 219 472 211 c 257
 98 211 l 257
581 685 m 257
 363 542 l 257
 325 573 l 257
 518 729 l 257
 581 685 l 257
EndSplineSet
EndChar

StartChar: ecircumflex
Encoding: 234 234 224
GlifName: ecircumflex
Width: 484
VWidth: 0
Flags: HMW
LayerCount: 2
Fore
SplineSet
98 211 m 257
 120 277 l 257
 408 278 l 257
 418 339 409 397 335 399 c 256
 249 401 181 332 147 260 c 258
 134 230 l 257
 108 158 117 69 210 66 c 256
 274 64 329 107 375 147 c 257
 428 104 l 257
 361 41 281 -11 186 -9 c 256
 54 -6 22 122 55 230 c 256
 60 247 67 263 75 279 c 256
 125 380 230 470 348 469 c 256
 484 468 510 344 479 234 c 256
 477 226 475 219 472 211 c 257
 98 211 l 257
412 624 m 257
 274 531 l 257
 236 573 l 257
 432 710 l 257
 540 568 l 257
 482 531 l 257
 412 624 l 257
EndSplineSet
EndChar

StartChar: edieresis
Encoding: 235 235 225
GlifName: edieresis
Width: 484
VWidth: 0
Flags: HMW
LayerCount: 2
Fore
SplineSet
98 211 m 257
 120 277 l 257
 408 278 l 257
 418 339 409 397 335 399 c 256
 249 401 181 332 147 260 c 258
 134 230 l 257
 108 158 117 69 210 66 c 256
 274 64 329 107 375 147 c 257
 428 104 l 257
 361 41 281 -11 186 -9 c 256
 54 -6 22 122 55 230 c 256
 60 247 67 263 75 279 c 256
 125 380 230 470 348 469 c 256
 484 468 510 344 479 234 c 256
 477 226 475 219 472 211 c 257
 98 211 l 257
434 587 m 256
 440 611 478 642 503 639 c 256
 530 636 546 609 540 583 c 256
 534 559 496 528 471 531 c 256
 444 534 428 561 434 587 c 256
246 587 m 256
 252 611 290 642 315 639 c 256
 342 636 358 609 352 583 c 256
 346 559 307 528 282 531 c 256
 255 534 240 561 246 587 c 256
EndSplineSet
EndChar

StartChar: igrave
Encoding: 236 236 226
GlifName: igrave
Width: 244
VWidth: 0
Flags: HMW
LayerCount: 2
Fore
SplineSet
184 459 m 257
 266 460 l 257
 105 0 l 257
 31 0 l 257
 184 459 l 257
155 702 m 257
 238 740 l 257
 329 578 l 257
 279 550 l 257
 155 702 l 257
EndSplineSet
EndChar

StartChar: dotlessi
Encoding: 305 305 227
GlifName: dotlessi
Width: 244
VWidth: 0
Flags: HMW
LayerCount: 2
Fore
SplineSet
184 459 m 257
 266 460 l 257
 105 0 l 257
 31 0 l 257
 184 459 l 257
EndSplineSet
EndChar

StartChar: kgreenlandic
Encoding: 312 312 228
GlifName: kgreenlandic
Width: 413
VWidth: 0
Flags: HMW
LayerCount: 2
Fore
SplineSet
166 459 m 257
 247 460 l 257
 87 0 l 257
 12 0 l 257
 166 459 l 257
399 459 m 257
 504 459 l 257
 244 266 l 257
 357 0 l 257
 268 0 l 257
 151 275 l 257
 399 459 l 257
EndSplineSet
EndChar

StartChar: iacute
Encoding: 237 237 229
GlifName: iacute
Width: 244
VWidth: 0
Flags: HMW
LayerCount: 2
Fore
SplineSet
184 459 m 257
 266 460 l 257
 105 0 l 257
 31 0 l 257
 184 459 l 257
459 695 m 257
 241 552 l 257
 203 583 l 257
 397 739 l 257
 459 695 l 257
EndSplineSet
EndChar

StartChar: icircumflex
Encoding: 238 238 230
GlifName: icircumflex
Width: 244
VWidth: 0
Flags: HMW
LayerCount: 2
Fore
SplineSet
184 459 m 257
 266 460 l 257
 105 0 l 257
 31 0 l 257
 184 459 l 257
290 634 m 257
 152 541 l 257
 114 583 l 257
 310 720 l 257
 418 578 l 257
 361 541 l 257
 290 634 l 257
EndSplineSet
EndChar

StartChar: idieresis
Encoding: 239 239 231
GlifName: idieresis
Width: 244
VWidth: 0
Flags: HMW
LayerCount: 2
Fore
SplineSet
184 459 m 257
 266 460 l 257
 105 0 l 257
 31 0 l 257
 184 459 l 257
319 617 m 256
 325 641 363 672 388 669 c 256
 415 666 431 639 425 613 c 256
 419 589 381 558 356 561 c 256
 329 564 313 591 319 617 c 256
131 617 m 256
 137 641 175 672 200 669 c 256
 227 666 243 639 237 613 c 256
 231 589 193 558 168 561 c 256
 141 564 125 591 131 617 c 256
EndSplineSet
EndChar

StartChar: ntilde
Encoding: 241 241 232
GlifName: ntilde
Width: 493
VWidth: 0
Flags: HMW
LayerCount: 2
Fore
SplineSet
251 460 m 257
 92 0 l 257
 13 0 l 257
 173 460 l 257
 251 460 l 257
390 280 m 258
 405 329 409 391 342 394 c 256
 271 397 220 337 188 282 c 257
 152 282 l 257
 192 371 267 469 375 469 c 256
 480 469 493 372 469 290 c 256
 369 0 l 257
 294 0 l 257
 390 280 l 258
230 570 m 257
 259 606 300 651 352 648 c 256
 391 646 414 600 453 603 c 256
 481 605 505 632 524 649 c 257
 557 604 l 257
 527 573 484 531 436 535 c 256
 398 538 378 582 339 580 c 256
 309 578 289 552 272 531 c 257
 230 570 l 257
EndSplineSet
EndChar

StartChar: ograve
Encoding: 242 242 233
GlifName: ograve
Width: 513
VWidth: 0
Flags: HMW
LayerCount: 2
Fore
SplineSet
55 230 m 256
 95 355 221 469 357 469 c 256
 490 469 544 346 507 230 c 256
 467 105 341 -9 205 -9 c 256
 72 -9 18 114 55 230 c 256
134 230 m 256
 107 157 128 67 219 66 c 256
 312 65 398 147 428 230 c 256
 455 303 434 393 343 394 c 256
 250 395 164 313 134 230 c 256
289 702 m 257
 372 740 l 257
 463 578 l 257
 414 550 l 257
 289 702 l 257
EndSplineSet
EndChar

StartChar: oacute
Encoding: 243 243 234
GlifName: oacute
Width: 513
VWidth: 0
Flags: HMW
LayerCount: 2
Fore
SplineSet
55 230 m 256
 95 355 221 469 357 469 c 256
 490 469 544 346 507 230 c 256
 467 105 341 -9 205 -9 c 256
 72 -9 18 114 55 230 c 256
134 230 m 256
 107 157 128 67 219 66 c 256
 312 65 398 147 428 230 c 256
 455 303 434 393 343 394 c 256
 250 395 164 313 134 230 c 256
593 695 m 257
 376 552 l 257
 338 583 l 257
 531 739 l 257
 593 695 l 257
EndSplineSet
EndChar

StartChar: ocircumflex
Encoding: 244 244 235
GlifName: ocircumflex
Width: 513
VWidth: 0
Flags: HMW
LayerCount: 2
Fore
SplineSet
55 230 m 256
 95 355 221 469 357 469 c 256
 490 469 544 346 507 230 c 256
 467 105 341 -9 205 -9 c 256
 72 -9 18 114 55 230 c 256
134 230 m 256
 107 157 128 67 219 66 c 256
 312 65 398 147 428 230 c 256
 455 303 434 393 343 394 c 256
 250 395 164 313 134 230 c 256
428 644 m 257
 290 551 l 257
 252 593 l 257
 448 730 l 257
 556 588 l 257
 499 551 l 257
 428 644 l 257
EndSplineSet
EndChar

StartChar: otilde
Encoding: 245 245 236
GlifName: otilde
Width: 513
VWidth: 0
Flags: HMW
LayerCount: 2
Fore
SplineSet
55 230 m 256
 95 355 221 469 357 469 c 256
 490 469 544 346 507 230 c 256
 467 105 341 -9 205 -9 c 256
 72 -9 18 114 55 230 c 256
134 230 m 256
 107 157 128 67 219 66 c 256
 312 65 398 147 428 230 c 256
 455 303 434 393 343 394 c 256
 250 395 164 313 134 230 c 256
239 570 m 257
 230 610 333 649 361 648 c 256
 400 646 422 600 462 603 c 256
 490 605 514 632 533 649 c 257
 567 604 l 257
 537 573 494 531 446 535 c 256
 408 538 387 582 348 580 c 256
 318 578 298 552 281 531 c 257
 239 570 l 257
EndSplineSet
EndChar

StartChar: odieresis
Encoding: 246 246 237
GlifName: odieresis
Width: 513
VWidth: 0
Flags: HMW
LayerCount: 2
Fore
SplineSet
55 230 m 256
 95 355 221 469 357 469 c 256
 490 469 544 346 507 230 c 256
 467 105 341 -9 205 -9 c 256
 72 -9 18 114 55 230 c 256
134 230 m 256
 107 157 128 67 219 66 c 256
 312 65 398 147 428 230 c 256
 455 303 434 393 343 394 c 256
 250 395 164 313 134 230 c 256
454 617 m 256
 460 641 498 672 523 669 c 256
 550 666 565 639 559 613 c 256
 553 589 515 558 490 561 c 256
 463 564 448 591 454 617 c 256
266 617 m 256
 272 641 310 672 335 669 c 256
 362 666 377 639 371 613 c 256
 365 589 327 558 302 561 c 256
 275 564 260 591 266 617 c 256
EndSplineSet
EndChar

StartChar: ugrave
Encoding: 249 249 238
GlifName: ugrave
Width: 493
VWidth: 0
Flags: HMW
LayerCount: 2
Fore
SplineSet
291 0 m 257
 450 460 l 257
 529 460 l 257
 370 0 l 257
 291 0 l 257
153 180 m 258
 138 131 134 69 200 66 c 256
 271 63 322 123 354 178 c 257
 391 178 l 257
 351 89 275 -9 167 -9 c 256
 62 -9 49 88 73 170 c 256
 174 460 l 257
 248 459 l 257
 153 180 l 258
317 702 m 257
 400 740 l 257
 491 578 l 257
 441 550 l 257
 317 702 l 257
EndSplineSet
EndChar

StartChar: uacute
Encoding: 250 250 239
GlifName: uacute
Width: 493
VWidth: 0
Flags: HMW
LayerCount: 2
Fore
SplineSet
291 0 m 257
 450 460 l 257
 529 460 l 257
 370 0 l 257
 291 0 l 257
153 180 m 258
 138 131 134 69 200 66 c 256
 271 63 322 123 354 178 c 257
 391 178 l 257
 351 89 275 -9 167 -9 c 256
 62 -9 49 88 73 170 c 256
 174 460 l 257
 248 459 l 257
 153 180 l 258
545 695 m 257
 328 551 l 257
 291 583 l 257
 484 739 l 257
 545 695 l 257
EndSplineSet
EndChar

StartChar: ucircumflex
Encoding: 251 251 240
GlifName: ucircumflex
Width: 493
VWidth: 0
Flags: HMW
LayerCount: 2
Fore
SplineSet
291 0 m 257
 450 460 l 257
 529 460 l 257
 370 0 l 257
 291 0 l 257
153 180 m 258
 138 131 134 69 200 66 c 256
 271 63 322 123 354 178 c 257
 391 178 l 257
 351 89 275 -9 167 -9 c 256
 62 -9 49 88 73 170 c 256
 174 460 l 257
 248 459 l 257
 153 180 l 258
418 644 m 257
 280 551 l 257
 241 593 l 257
 438 730 l 257
 546 588 l 257
 488 551 l 257
 418 644 l 257
EndSplineSet
EndChar

StartChar: udieresis
Encoding: 252 252 241
GlifName: udieresis
Width: 493
VWidth: 0
Flags: HMW
LayerCount: 2
Fore
SplineSet
291 0 m 257
 450 460 l 257
 529 460 l 257
 370 0 l 257
 291 0 l 257
153 180 m 258
 138 131 134 69 200 66 c 256
 271 63 322 123 354 178 c 257
 391 178 l 257
 351 89 275 -9 167 -9 c 256
 62 -9 49 88 73 170 c 256
 174 460 l 257
 248 459 l 257
 153 180 l 258
441 607 m 256
 447 630 484 662 509 659 c 256
 536 656 553 629 547 603 c 256
 541 579 501 548 476 551 c 256
 448 554 435 582 441 607 c 256
253 607 m 256
 259 630 296 662 321 659 c 256
 348 656 364 629 358 603 c 256
 352 579 313 548 288 551 c 256
 260 554 247 582 253 607 c 256
EndSplineSet
EndChar

StartChar: yacute
Encoding: 253 253 242
GlifName: yacute
Width: 413
VWidth: 0
Flags: HMW
LayerCount: 2
Fore
SplineSet
522 459 m 257
 5 -219 l 257
 -87 -219 l 257
 135 70 l 257
 104 460 l 257
 192 460 l 257
 207 100 l 257
 175 105 l 257
 430 459 l 257
 522 459 l 257
515 695 m 257
 297 552 l 257
 260 583 l 257
 453 739 l 257
 515 695 l 257
EndSplineSet
EndChar

StartChar: thorn
Encoding: 254 254 243
GlifName: thorn
Width: 536
VWidth: 0
Flags: HMW
LayerCount: 2
Fore
SplineSet
15 -219 m 257
 -67 -220 l 257
 278 780 l 257
 353 779 l 257
 15 -219 l 257
529 230 m 256
 490 108 372 -12 237 -10 c 256
 105 -8 98 132 130 230 c 256
 166 343 259 468 389 469 c 256
 523 470 565 341 529 230 c 256
451 230 m 256
 478 303 458 394 366 394 c 256
 276 394 195 309 166 230 c 256
 142 162 155 70 242 66 c 256
 336 62 421 148 451 230 c 256
EndSplineSet
EndChar

StartChar: ydieresis
Encoding: 255 255 244
GlifName: ydieresis
Width: 413
VWidth: 0
Flags: HMW
LayerCount: 2
Fore
SplineSet
522 459 m 257
 5 -219 l 257
 -87 -219 l 257
 135 70 l 257
 104 460 l 257
 192 460 l 257
 207 100 l 257
 175 105 l 257
 430 459 l 257
 522 459 l 257
394 587 m 256
 400 611 438 642 463 639 c 256
 490 636 505 609 499 583 c 256
 493 559 455 528 430 531 c 256
 403 534 388 561 394 587 c 256
206 587 m 256
 212 611 250 642 275 639 c 256
 302 636 317 609 311 583 c 256
 305 559 267 528 242 531 c 256
 215 534 200 561 206 587 c 256
EndSplineSet
EndChar

StartChar: Amacron
Encoding: 256 256 245
GlifName: A_macron
Width: 620
VWidth: 0
Flags: HMW
LayerCount: 2
Fore
SplineSet
156 212 m 257
 209 289 l 257
 504 290 l 257
 506 210 l 257
 156 212 l 257
446 542 m 257
 239 264 l 257
 226 246 l 257
 42 0 l 257
 -55 0 l 257
 507 738 l 257
 561 0 l 257
 473 0 l 257
 459 240 l 257
 459 260 l 257
 446 542 l 257
364 796 m 257
 388 870 l 257
 721 870 l 257
 696 795 l 257
 364 796 l 257
EndSplineSet
EndChar

StartChar: amacron
Encoding: 257 257 246
GlifName: amacron
Width: 456
VWidth: 0
Flags: HMW
LayerCount: 2
Fore
SplineSet
96 135 m 256
 80 87 113 64 157 62 c 256
 239 59 294 113 332 179 c 257
 331 128 l 257
 290 48 219 -10 125 -9 c 256
 46 -8 -9 46 15 126 c 256
 44 225 151 286 251 285 c 256
 305 285 346 265 380 224 c 257
 365 179 l 257
 329 208 291 225 244 224 c 256
 186 223 116 195 96 135 c 256
173 352 m 257
 154 416 l 257
 210 446 270 470 334 469 c 256
 418 468 482 419 459 330 c 257
 346 0 l 257
 267 0 l 257
 384 330 l 257
 385 374 367 396 320 398 c 256
 268 400 218 375 173 352 c 257
203 551 m 257
 228 625 l 257
 560 625 l 257
 535 550 l 257
 203 551 l 257
EndSplineSet
Substitution2: "alt a" amacron.alt
EndChar

StartChar: breve
Encoding: 728 728 247
GlifName: breve
Width: 513
VWidth: 0
Flags: HMW
LayerCount: 2
Fore
SplineSet
334 850 m 257
 401 850 l 257
 399 810 409 777 456 776 c 256
 507 775 539 810 564 849 c 257
 634 848 l 257
 599 772 535 711 446 711 c 256
 360 711 325 771 334 850 c 257
EndSplineSet
EndChar

StartChar: Abreve
Encoding: 258 258 248
GlifName: A_breve
Width: 620
VWidth: 0
Flags: HMW
LayerCount: 2
Fore
SplineSet
156 212 m 257
 209 289 l 257
 504 290 l 257
 506 210 l 257
 156 212 l 257
446 542 m 257
 239 264 l 257
 226 246 l 257
 42 0 l 257
 -55 0 l 257
 507 738 l 257
 561 0 l 257
 473 0 l 257
 459 240 l 257
 459 260 l 257
 446 542 l 257
425 935 m 257
 492 934 l 257
 489 894 497 862 544 861 c 256
 595 860 628 896 655 934 c 257
 725 933 l 257
 687 857 622 796 533 796 c 256
 446 796 414 857 425 935 c 257
EndSplineSet
EndChar

StartChar: abreve
Encoding: 259 259 249
GlifName: abreve
Width: 456
VWidth: 0
Flags: HMW
LayerCount: 2
Fore
SplineSet
96 135 m 256
 80 87 113 64 157 62 c 256
 239 59 294 113 332 179 c 257
 331 128 l 257
 290 48 219 -10 125 -9 c 256
 46 -8 -9 46 15 126 c 256
 44 225 151 286 251 285 c 256
 305 285 346 265 380 224 c 257
 365 179 l 257
 329 208 291 225 244 224 c 256
 186 223 116 195 96 135 c 256
173 352 m 257
 154 416 l 257
 210 446 270 470 334 469 c 256
 418 468 482 419 459 330 c 257
 346 0 l 257
 267 0 l 257
 384 330 l 257
 385 374 367 396 320 398 c 256
 268 400 218 375 173 352 c 257
257 670 m 257
 324 669 l 257
 321 629 329 597 376 596 c 256
 427 595 460 631 487 669 c 257
 558 668 l 257
 520 593 454 531 365 531 c 256
 278 531 246 592 257 670 c 257
EndSplineSet
Substitution2: "alt a" abreve.alt
EndChar

StartChar: Aogonek
Encoding: 260 260 250
GlifName: A_ogonek
Width: 620
VWidth: 0
Flags: HMW
LayerCount: 2
Fore
SplineSet
156 212 m 257
 209 289 l 257
 504 290 l 257
 506 210 l 257
 156 212 l 257
446 542 m 257
 239 264 l 257
 226 246 l 257
 42 0 l 257
 -55 0 l 257
 507 738 l 257
 561 0 l 257
 473 0 l 257
 459 240 l 257
 459 260 l 257
 446 542 l 257
520 -130 m 257
 537 -183 l 257
 508 -202 479 -218 444 -219 c 256
 384 -221 339 -181 357 -119 c 256
 379 -46 465 -6 528 24 c 257
 564 0 l 257
 523 -23 454 -49 440 -100 c 256
 434 -122 440 -145 465 -149 c 256
 483 -152 505 -138 520 -130 c 257
EndSplineSet
EndChar

StartChar: aogonek
Encoding: 261 261 251
GlifName: aogonek
Width: 456
VWidth: 0
Flags: HMW
LayerCount: 2
Fore
SplineSet
96 135 m 256
 82 89 115 64 157 62 c 256
 238 58 294 114 332 179 c 257
 331 128 l 257
 290 48 219 -10 125 -9 c 256
 43 -8 -7 53 17 133 c 256
 47 231 153 286 251 285 c 256
 305 284 346 265 380 224 c 257
 365 179 l 257
 329 208 291 225 244 224 c 256
 186 223 114 196 96 135 c 256
173 352 m 257
 154 416 l 257
 210 446 270 470 334 469 c 256
 418 468 482 419 459 330 c 257
 346 0 l 257
 267 0 l 257
 384 330 l 257
 385 374 367 396 320 398 c 256
 268 400 218 375 173 352 c 257
304 -130 m 257
 321 -183 l 257
 292 -202 263 -218 228 -219 c 256
 168 -221 122 -181 140 -119 c 256
 162 -46 249 -6 312 24 c 257
 347 0 l 257
 306 -23 238 -49 224 -100 c 256
 218 -122 224 -145 249 -149 c 256
 267 -152 289 -138 304 -130 c 257
EndSplineSet
Substitution2: "alt a" aogonek.alt
EndChar

StartChar: Cacute
Encoding: 262 262 252
GlifName: C_acute
Width: 644
VWidth: 0
Flags: HMW
LayerCount: 2
Fore
SplineSet
189 350 m 256
 146 229 182 79 332 76 c 256
 426 74 512 123 585 177 c 257
 550 66 l 257
 479 20 401 -11 315 -10 c 256
 118 -8 46 182 101 350 c 256
 162 537 345 708 549 710 c 256
 625 711 687 686 741 632 c 257
 705 521 l 257
 668 589 610 624 532 624 c 256
 378 623 239 489 189 350 c 256
750 915 m 257
 533 772 l 257
 495 803 l 257
 688 959 l 257
 750 915 l 257
EndSplineSet
EndChar

StartChar: cacute
Encoding: 263 263 253
GlifName: cacute
Width: 449
VWidth: 0
Flags: HMW
LayerCount: 2
Fore
SplineSet
129 230 m 256
 102 156 125 69 215 66 c 256
 285 64 348 103 399 147 c 257
 368 48 l 257
 318 14 262 -9 200 -9 c 256
 67 -8 14 114 51 230 c 256
 91 357 216 468 353 469 c 256
 408 469 452 450 489 410 c 257
 457 311 l 257
 438 366 398 395 339 394 c 256
 246 393 160 314 129 230 c 256
554 675 m 257
 336 532 l 257
 298 563 l 257
 491 719 l 257
 554 675 l 257
EndSplineSet
EndChar

StartChar: Ccircumflex
Encoding: 264 264 254
GlifName: C_circumflex
Width: 644
VWidth: 0
Flags: HMW
LayerCount: 2
Fore
SplineSet
189 350 m 256
 146 229 182 79 332 76 c 256
 426 74 512 123 585 177 c 257
 550 66 l 257
 479 20 401 -11 315 -10 c 256
 118 -8 46 182 101 350 c 256
 162 537 345 708 549 710 c 256
 625 711 687 686 741 632 c 257
 705 521 l 257
 668 589 610 624 532 624 c 256
 378 623 239 489 189 350 c 256
613 864 m 257
 476 771 l 257
 437 813 l 257
 633 950 l 257
 741 808 l 257
 684 771 l 257
 613 864 l 257
EndSplineSet
EndChar

StartChar: ccircumflex
Encoding: 265 265 255
GlifName: ccircumflex
Width: 449
VWidth: 0
Flags: HMW
LayerCount: 2
Fore
SplineSet
129 230 m 256
 102 156 125 69 215 66 c 256
 285 64 348 103 399 147 c 257
 368 48 l 257
 318 14 262 -9 200 -9 c 256
 67 -8 14 114 51 230 c 256
 91 357 216 468 353 469 c 256
 408 469 452 450 489 410 c 257
 457 311 l 257
 438 366 398 395 339 394 c 256
 246 393 160 314 129 230 c 256
417 624 m 257
 279 531 l 257
 240 573 l 257
 436 710 l 257
 545 568 l 257
 487 531 l 257
 417 624 l 257
EndSplineSet
EndChar

StartChar: Cdotaccent
Encoding: 266 266 256
GlifName: C_dotaccent
Width: 644
VWidth: 0
Flags: HMW
LayerCount: 2
Fore
SplineSet
189 350 m 256
 146 229 182 79 332 76 c 256
 426 74 512 123 585 177 c 257
 550 66 l 257
 479 20 401 -11 315 -10 c 256
 118 -8 46 182 101 350 c 256
 162 537 345 708 549 710 c 256
 625 711 687 686 741 632 c 257
 705 521 l 257
 668 589 610 624 532 624 c 256
 378 623 239 489 189 350 c 256
542 827 m 256
 548 851 586 882 611 879 c 256
 638 876 653 849 647 823 c 256
 641 799 603 768 578 771 c 256
 551 774 536 801 542 827 c 256
EndSplineSet
EndChar

StartChar: cdotaccent
Encoding: 267 267 257
GlifName: cdotaccent
Width: 449
VWidth: 0
Flags: HMW
LayerCount: 2
Fore
SplineSet
129 230 m 256
 102 156 125 69 215 66 c 256
 285 64 348 103 399 147 c 257
 368 48 l 257
 318 14 262 -9 200 -9 c 256
 67 -8 14 114 51 230 c 256
 91 357 216 468 353 469 c 256
 408 469 452 450 489 410 c 257
 457 311 l 257
 438 366 398 395 339 394 c 256
 246 393 160 314 129 230 c 256
345 587 m 256
 351 611 389 642 414 639 c 256
 441 636 456 609 450 583 c 256
 444 559 406 528 381 531 c 256
 354 534 339 561 345 587 c 256
EndSplineSet
EndChar

StartChar: Ccaron
Encoding: 268 268 258
GlifName: C_caron
Width: 644
VWidth: 0
Flags: HMW
LayerCount: 2
Fore
SplineSet
189 350 m 256
 146 229 182 79 332 76 c 256
 426 74 512 123 585 177 c 257
 550 66 l 257
 479 20 401 -11 315 -10 c 256
 118 -8 46 182 101 350 c 256
 162 537 345 708 549 710 c 256
 625 711 687 686 741 632 c 257
 705 521 l 257
 668 589 610 624 532 624 c 256
 378 623 239 489 189 350 c 256
599 856 m 257
 737 949 l 257
 775 907 l 257
 579 770 l 257
 471 912 l 257
 529 949 l 257
 599 856 l 257
EndSplineSet
EndChar

StartChar: ccaron
Encoding: 269 269 259
GlifName: ccaron
Width: 449
VWidth: 0
Flags: HMW
LayerCount: 2
Fore
SplineSet
129 230 m 256
 102 156 125 69 215 66 c 256
 285 64 348 103 399 147 c 257
 368 48 l 257
 318 14 262 -9 200 -9 c 256
 67 -8 14 114 51 230 c 256
 91 357 216 468 353 469 c 256
 408 469 452 450 489 410 c 257
 457 311 l 257
 438 366 398 395 339 394 c 256
 246 393 160 314 129 230 c 256
403 616 m 257
 540 709 l 257
 579 667 l 257
 383 530 l 257
 274 672 l 257
 332 709 l 257
 403 616 l 257
EndSplineSet
EndChar

StartChar: Dcaron
Encoding: 270 270 260
GlifName: D_caron
Width: 639
VWidth: 0
Flags: HMW
LayerCount: 2
Fore
SplineSet
257 699 m 257
 343 700 l 257
 101 0 l 257
 22 0 l 257
 257 699 l 257
225 0 m 256
 63 0 l 257
 93 85 l 257
 242 85 l 256
 399 91 534 204 586 350 c 256
 633 481 585 608 434 615 c 256
 273 615 l 257
 303 700 l 257
 451 700 l 256
 647 693 726 525 669 350 c 256
 607 159 429 6 225 0 c 256
543 856 m 257
 680 949 l 257
 719 907 l 257
 523 770 l 257
 415 912 l 257
 472 949 l 257
 543 856 l 257
EndSplineSet
EndChar

StartChar: dcaron
Encoding: 271 271 261
GlifName: dcaron
Width: 536
VWidth: 0
Flags: HMW
LayerCount: 2
Fore
SplineSet
604 779 m 257
 686 780 l 257
 416 0 l 257
 341 0 l 257
 604 779 l 257
55 230 m 256
 94 352 213 472 348 470 c 256
 480 468 487 328 455 230 c 256
 419 117 326 -8 196 -9 c 256
 62 -10 19 119 55 230 c 256
134 230 m 256
 107 157 127 66 219 66 c 256
 309 66 390 151 419 230 c 256
 443 298 430 390 343 394 c 256
 249 398 164 312 134 230 c 256
790 778 m 257
 862 746 l 257
 673 502 l 257
 620 523 l 257
 790 778 l 257
EndSplineSet
EndChar

StartChar: Dcroat
Encoding: 272 272 262
GlifName: D_croat
Width: 639
VWidth: 0
Flags: HMW
LayerCount: 2
Fore
SplineSet
57 311 m 257
 82 385 l 257
 367 385 l 257
 342 310 l 257
 57 311 l 257
257 699 m 257
 343 700 l 257
 101 0 l 257
 22 0 l 257
 257 699 l 257
225 0 m 256
 63 0 l 257
 93 85 l 257
 242 85 l 256
 399 91 534 204 586 350 c 256
 633 481 585 608 434 615 c 256
 273 615 l 257
 303 700 l 257
 451 700 l 256
 647 693 726 525 669 350 c 256
 607 159 429 6 225 0 c 256
EndSplineSet
EndChar

StartChar: dcroat
Encoding: 273 273 263
GlifName: dcroat
Width: 536
VWidth: 0
Flags: HMW
LayerCount: 2
Fore
SplineSet
425 591 m 257
 450 665 l 257
 736 665 l 257
 710 590 l 257
 425 591 l 257
604 779 m 257
 686 780 l 257
 416 0 l 257
 341 0 l 257
 604 779 l 257
55 230 m 256
 94 352 213 472 348 470 c 256
 480 468 487 328 455 230 c 256
 419 117 326 -8 196 -9 c 256
 62 -10 19 119 55 230 c 256
134 230 m 256
 107 157 127 66 219 66 c 256
 309 66 390 151 419 230 c 256
 443 298 430 390 343 394 c 256
 249 398 164 312 134 230 c 256
EndSplineSet
EndChar

StartChar: Emacron
Encoding: 274 274 264
GlifName: E_macron
Width: 517
VWidth: 0
Flags: HMW
LayerCount: 2
Fore
SplineSet
66 0 m 257
 92 80 l 257
 428 80 l 257
 401 0 l 257
 66 0 l 257
278 621 m 257
 304 700 l 257
 639 700 l 257
 612 620 l 257
 278 621 l 257
182 341 m 257
 209 420 l 257
 525 420 l 257
 498 340 l 257
 182 341 l 257
257 699 m 257
 343 700 l 257
 101 0 l 257
 22 0 l 257
 257 699 l 257
308 771 m 257
 333 845 l 257
 665 845 l 257
 640 770 l 257
 308 771 l 257
EndSplineSet
EndChar

StartChar: emacron
Encoding: 275 275 265
GlifName: emacron
Width: 484
VWidth: 0
Flags: HMW
LayerCount: 2
Fore
SplineSet
98 211 m 257
 120 277 l 257
 408 278 l 257
 418 339 409 397 335 399 c 256
 249 401 181 332 147 260 c 258
 134 230 l 257
 108 158 117 69 210 66 c 256
 274 64 329 107 375 147 c 257
 428 104 l 257
 361 41 281 -11 186 -9 c 256
 54 -6 22 122 55 230 c 256
 60 247 67 263 75 279 c 256
 125 380 230 470 348 469 c 256
 484 468 510 344 479 234 c 256
 477 226 475 219 472 211 c 257
 98 211 l 257
210 531 m 257
 235 605 l 257
 567 605 l 257
 542 530 l 257
 210 531 l 257
EndSplineSet
EndChar

StartChar: Ebreve
Encoding: 276 276 266
GlifName: E_breve
Width: 517
VWidth: 0
Flags: HMW
LayerCount: 2
Fore
SplineSet
66 0 m 257
 92 80 l 257
 428 80 l 257
 401 0 l 257
 66 0 l 257
278 621 m 257
 304 700 l 257
 639 700 l 257
 612 620 l 257
 278 621 l 257
182 341 m 257
 209 420 l 257
 525 420 l 257
 498 340 l 257
 182 341 l 257
257 699 m 257
 343 700 l 257
 101 0 l 257
 22 0 l 257
 257 699 l 257
369 910 m 257
 436 909 l 257
 433 869 441 837 488 836 c 256
 539 835 572 871 599 909 c 257
 670 908 l 257
 632 832 566 771 477 771 c 256
 390 771 358 832 369 910 c 257
EndSplineSet
EndChar

StartChar: ebreve
Encoding: 277 277 267
GlifName: ebreve
Width: 484
VWidth: 0
Flags: HMW
LayerCount: 2
Fore
SplineSet
98 211 m 257
 120 277 l 257
 408 278 l 257
 418 339 409 397 335 399 c 256
 249 401 181 332 147 260 c 258
 134 230 l 257
 108 158 117 69 210 66 c 256
 274 64 329 107 375 147 c 257
 428 104 l 257
 361 41 281 -11 186 -9 c 256
 54 -6 22 122 55 230 c 256
 60 247 67 263 75 279 c 256
 125 380 230 470 348 469 c 256
 484 468 510 344 479 234 c 256
 477 226 475 219 472 211 c 257
 98 211 l 257
272 670 m 257
 339 669 l 257
 336 629 344 597 391 596 c 256
 442 595 474 631 501 669 c 257
 572 668 l 257
 534 593 468 531 379 531 c 256
 292 531 261 592 272 670 c 257
EndSplineSet
EndChar

StartChar: Edotaccent
Encoding: 278 278 268
GlifName: E_dotaccent
Width: 517
VWidth: 0
Flags: HMW
LayerCount: 2
Fore
SplineSet
66 0 m 257
 92 80 l 257
 428 80 l 257
 401 0 l 257
 66 0 l 257
278 621 m 257
 304 700 l 257
 639 700 l 257
 612 620 l 257
 278 621 l 257
182 341 m 257
 209 420 l 257
 525 420 l 257
 498 340 l 257
 182 341 l 257
257 699 m 257
 343 700 l 257
 101 0 l 257
 22 0 l 257
 257 699 l 257
438 827 m 256
 444 851 482 882 507 879 c 256
 534 876 550 849 544 823 c 256
 538 799 499 768 474 771 c 256
 447 774 432 801 438 827 c 256
EndSplineSet
EndChar

StartChar: edotaccent
Encoding: 279 279 269
GlifName: edotaccent
Width: 484
VWidth: 0
Flags: HMW
LayerCount: 2
Fore
SplineSet
98 211 m 257
 120 277 l 257
 408 278 l 257
 418 339 409 397 335 399 c 256
 249 401 181 332 147 260 c 258
 134 230 l 257
 108 158 117 69 210 66 c 256
 274 64 329 107 375 147 c 257
 428 104 l 257
 361 41 281 -11 186 -9 c 256
 54 -6 22 122 55 230 c 256
 60 247 67 263 75 279 c 256
 125 380 230 470 348 469 c 256
 484 468 510 344 479 234 c 256
 477 226 475 219 472 211 c 257
 98 211 l 257
340 587 m 256
 346 611 384 642 409 639 c 256
 436 636 452 609 446 583 c 256
 440 559 401 528 376 531 c 256
 349 534 334 561 340 587 c 256
EndSplineSet
EndChar

StartChar: Eogonek
Encoding: 280 280 270
GlifName: E_ogonek
Width: 517
VWidth: 0
Flags: HMW
LayerCount: 2
Fore
SplineSet
66 0 m 257
 92 80 l 257
 428 80 l 257
 401 0 l 257
 66 0 l 257
278 621 m 257
 304 700 l 257
 639 700 l 257
 612 620 l 257
 278 621 l 257
182 341 m 257
 209 420 l 257
 525 420 l 257
 498 340 l 257
 182 341 l 257
257 699 m 257
 343 700 l 257
 101 0 l 257
 22 0 l 257
 257 699 l 257
243 -130 m 257
 259 -183 l 257
 230 -202 201 -218 166 -219 c 256
 106 -221 61 -181 79 -119 c 256
 101 -46 187 -6 250 24 c 257
 286 0 l 257
 245 -23 177 -49 163 -100 c 256
 157 -122 163 -145 188 -149 c 256
 206 -152 228 -138 243 -130 c 257
EndSplineSet
EndChar

StartChar: eogonek
Encoding: 281 281 271
GlifName: eogonek
Width: 484
VWidth: 0
Flags: HMW
LayerCount: 2
Fore
SplineSet
98 211 m 257
 120 277 l 257
 408 278 l 257
 418 339 409 397 335 399 c 256
 249 401 181 332 147 260 c 258
 134 230 l 257
 108 158 117 69 210 66 c 256
 274 64 329 107 375 147 c 257
 428 104 l 257
 361 41 281 -11 186 -9 c 256
 54 -6 22 122 55 230 c 256
 60 247 67 263 75 279 c 256
 125 380 230 470 348 469 c 256
 484 468 510 344 479 234 c 256
 477 226 475 219 472 211 c 257
 98 211 l 257
180 -131 m 257
 197 -184 l 257
 168 -203 139 -219 104 -220 c 256
 44 -222 -1 -182 17 -120 c 256
 39 -47 125 -7 188 23 c 257
 224 -5 l 257
 182 -24 114 -51 100 -101 c 256
 94 -123 100 -146 125 -150 c 256
 143 -153 165 -139 180 -131 c 257
EndSplineSet
EndChar

StartChar: Ecaron
Encoding: 282 282 272
GlifName: E_caron
Width: 517
VWidth: 0
Flags: HMW
LayerCount: 2
Fore
SplineSet
66 0 m 257
 92 80 l 257
 428 80 l 257
 401 0 l 257
 66 0 l 257
278 621 m 257
 304 700 l 257
 639 700 l 257
 612 620 l 257
 278 621 l 257
182 341 m 257
 209 420 l 257
 525 420 l 257
 498 340 l 257
 182 341 l 257
257 699 m 257
 343 700 l 257
 101 0 l 257
 22 0 l 257
 257 699 l 257
496 856 m 257
 633 949 l 257
 672 907 l 257
 476 770 l 257
 368 912 l 257
 425 949 l 257
 496 856 l 257
EndSplineSet
EndChar

StartChar: ecaron
Encoding: 283 283 273
GlifName: ecaron
Width: 484
VWidth: 0
Flags: HMW
LayerCount: 2
Fore
SplineSet
98 211 m 257
 120 277 l 257
 408 278 l 257
 418 339 409 397 335 399 c 256
 249 401 181 332 147 260 c 258
 134 230 l 257
 108 158 117 69 210 66 c 256
 274 64 329 107 375 147 c 257
 428 104 l 257
 361 41 281 -11 186 -9 c 256
 54 -6 22 122 55 230 c 256
 60 247 67 263 75 279 c 256
 125 380 230 470 348 469 c 256
 484 468 510 344 479 234 c 256
 477 226 475 219 472 211 c 257
 98 211 l 257
398 616 m 257
 535 709 l 257
 574 667 l 257
 378 530 l 257
 270 672 l 257
 327 709 l 257
 398 616 l 257
EndSplineSet
EndChar

StartChar: Gcircumflex
Encoding: 284 284 274
GlifName: G_circumflex
Width: 729
VWidth: 0
Flags: HMW
LayerCount: 2
Fore
SplineSet
418 275 m 257
 447 355 l 257
 753 354 l 257
 686 171 530 -10 320 -10 c 256
 120 -10 45 179 101 350 c 256
 163 540 347 709 554 710 c 256
 662 711 744 659 784 559 c 257
 711 507 l 257
 683 586 621 625 537 624 c 256
 380 623 240 492 189 350 c 256
 145 226 184 77 337 76 c 256
 470 75 571 173 641 275 c 257
 418 275 l 257
618 864 m 257
 480 771 l 257
 442 813 l 257
 638 950 l 257
 746 808 l 257
 689 771 l 257
 618 864 l 257
EndSplineSet
EndChar

StartChar: gcircumflex
Encoding: 285 285 275
GlifName: gcircumflex
Width: 536
VWidth: 0
Flags: HMW
LayerCount: 2
Fore
SplineSet
-25 -30 m 257
 52 -31 l 257
 42 -100 66 -153 143 -154 c 256
 237 -156 310 -70 342 10 c 256
 497 460 l 257
 576 460 l 257
 422 10 l 258
 377 -113 268 -228 129 -229 c 256
 7 -230 -48 -143 -25 -30 c 257
55 230 m 256
 94 352 213 472 348 470 c 256
 480 468 487 328 455 230 c 256
 419 117 326 -8 196 -9 c 256
 62 -10 19 119 55 230 c 256
134 230 m 256
 107 157 127 66 219 66 c 256
 309 66 390 151 419 230 c 256
 443 298 430 390 343 394 c 256
 249 398 164 312 134 230 c 256
412 624 m 257
 274 531 l 257
 236 573 l 257
 432 710 l 257
 540 568 l 257
 482 531 l 257
 412 624 l 257
EndSplineSet
EndChar

StartChar: Gbreve
Encoding: 286 286 276
GlifName: G_breve
Width: 729
VWidth: 0
Flags: HMW
LayerCount: 2
Fore
SplineSet
418 275 m 257
 447 355 l 257
 753 354 l 257
 686 171 530 -10 320 -10 c 256
 120 -10 45 179 101 350 c 256
 163 540 347 709 554 710 c 256
 662 711 744 659 784 559 c 257
 711 507 l 257
 683 586 621 625 537 624 c 256
 380 623 240 492 189 350 c 256
 145 226 184 77 337 76 c 256
 470 75 571 173 641 275 c 257
 418 275 l 257
478 910 m 257
 545 909 l 257
 542 869 550 837 597 836 c 256
 648 835 681 871 708 909 c 257
 778 908 l 257
 740 832 674 771 585 771 c 256
 498 771 467 832 478 910 c 257
EndSplineSet
EndChar

StartChar: gbreve
Encoding: 287 287 277
GlifName: gbreve
Width: 536
VWidth: 0
Flags: HMW
LayerCount: 2
Fore
SplineSet
-25 -30 m 257
 52 -31 l 257
 42 -100 66 -153 143 -154 c 256
 237 -156 310 -70 342 10 c 256
 497 460 l 257
 576 460 l 257
 422 10 l 258
 377 -113 268 -228 129 -229 c 256
 7 -230 -48 -143 -25 -30 c 257
55 230 m 256
 94 352 213 472 348 470 c 256
 480 468 487 328 455 230 c 256
 419 117 326 -8 196 -9 c 256
 62 -10 19 119 55 230 c 256
134 230 m 256
 107 157 127 66 219 66 c 256
 309 66 390 151 419 230 c 256
 443 298 430 390 343 394 c 256
 249 398 164 312 134 230 c 256
272 670 m 257
 339 669 l 257
 336 629 344 597 391 596 c 256
 442 595 474 631 501 669 c 257
 572 668 l 257
 534 593 468 531 379 531 c 256
 292 531 261 592 272 670 c 257
EndSplineSet
EndChar

StartChar: Gdotaccent
Encoding: 288 288 278
GlifName: G_dotaccent
Width: 729
VWidth: 0
Flags: HMW
LayerCount: 2
Fore
SplineSet
418 275 m 257
 447 355 l 257
 753 354 l 257
 686 171 530 -10 320 -10 c 256
 120 -10 45 179 101 350 c 256
 163 540 347 709 554 710 c 256
 662 711 744 659 784 559 c 257
 711 507 l 257
 683 586 621 625 537 624 c 256
 380 623 240 492 189 350 c 256
 145 226 184 77 337 76 c 256
 470 75 571 173 641 275 c 257
 418 275 l 257
546 827 m 256
 552 851 590 882 615 879 c 256
 642 876 658 849 652 823 c 256
 646 799 608 768 583 771 c 256
 556 774 540 801 546 827 c 256
EndSplineSet
EndChar

StartChar: gdotaccent
Encoding: 289 289 279
GlifName: gdotaccent
Width: 536
VWidth: 0
Flags: HMW
LayerCount: 2
Fore
SplineSet
-25 -30 m 257
 52 -31 l 257
 42 -100 66 -153 143 -154 c 256
 237 -156 310 -70 342 10 c 256
 497 460 l 257
 576 460 l 257
 422 10 l 258
 377 -113 268 -228 129 -229 c 256
 7 -230 -48 -143 -25 -30 c 257
55 230 m 256
 94 352 213 472 348 470 c 256
 480 468 487 328 455 230 c 256
 419 117 326 -8 196 -9 c 256
 62 -10 19 119 55 230 c 256
134 230 m 256
 107 157 127 66 219 66 c 256
 309 66 390 151 419 230 c 256
 443 298 430 390 343 394 c 256
 249 398 164 312 134 230 c 256
373 627 m 256
 379 651 417 682 442 679 c 256
 469 676 484 649 478 623 c 256
 472 599 434 568 409 571 c 256
 382 574 367 601 373 627 c 256
EndSplineSet
EndChar

StartChar: uni0122
Encoding: 290 290 280
GlifName: uni0122
Width: 729
VWidth: 0
Flags: HMW
LayerCount: 2
Fore
SplineSet
418 275 m 257
 447 355 l 257
 753 354 l 257
 686 171 530 -10 320 -10 c 256
 120 -10 45 179 101 350 c 256
 163 540 347 709 554 710 c 256
 662 711 744 659 784 559 c 257
 711 507 l 257
 683 586 621 625 537 624 c 256
 380 623 240 492 189 350 c 256
 145 226 184 77 337 76 c 256
 470 75 571 173 641 275 c 257
 418 275 l 257
293 -72 m 257
 366 -104 l 257
 176 -348 l 257
 124 -327 l 257
 293 -72 l 257
EndSplineSet
EndChar

StartChar: Hcircumflex
Encoding: 292 292 281
GlifName: H_circumflex
Width: 672
VWidth: 0
Flags: HMW
LayerCount: 2
Fore
SplineSet
182 341 m 257
 208 420 l 257
 663 420 l 257
 636 340 l 257
 182 341 l 257
699 699 m 257
 786 700 l 257
 543 0 l 257
 464 0 l 257
 699 699 l 257
257 699 m 257
 343 700 l 257
 101 0 l 257
 22 0 l 257
 257 699 l 257
583 864 m 257
 446 771 l 257
 407 813 l 257
 603 950 l 257
 711 808 l 257
 654 771 l 257
 583 864 l 257
EndSplineSet
EndChar

StartChar: hcircumflex
Encoding: 293 293 282
GlifName: hcircumflex
Width: 493
VWidth: 0
Flags: HMW
LayerCount: 2
Fore
SplineSet
361 780 m 257
 92 0 l 257
 14 0 l 257
 282 780 l 257
 361 780 l 257
390 280 m 258
 405 329 408 391 342 394 c 256
 271 397 220 337 188 282 c 257
 152 282 l 257
 192 371 267 469 375 469 c 256
 480 469 493 372 469 290 c 256
 369 0 l 257
 294 0 l 257
 390 280 l 258
385 934 m 257
 247 841 l 257
 209 883 l 257
 405 1020 l 257
 513 878 l 257
 456 841 l 257
 385 934 l 257
EndSplineSet
EndChar

StartChar: Itilde
Encoding: 296 296 283
GlifName: I_tilde
Width: 230
VWidth: 0
Flags: HMW
LayerCount: 2
Fore
SplineSet
257 699 m 257
 343 700 l 257
 101 0 l 257
 22 0 l 257
 257 699 l 257
180 810 m 257
 209 846 250 891 302 888 c 256
 341 886 364 840 403 843 c 256
 431 845 455 872 474 889 c 257
 507 844 l 257
 477 813 435 771 387 775 c 256
 349 778 328 822 289 820 c 256
 259 818 239 792 222 771 c 257
 180 810 l 257
EndSplineSet
EndChar

StartChar: itilde
Encoding: 297 297 284
GlifName: itilde
Width: 244
VWidth: 0
Flags: HMW
LayerCount: 2
Fore
SplineSet
184 459 m 257
 266 460 l 257
 105 0 l 257
 31 0 l 257
 184 459 l 257
105 570 m 257
 134 606 175 651 227 648 c 256
 266 646 289 600 328 603 c 256
 356 605 380 632 399 649 c 257
 432 604 l 257
 402 573 359 531 311 535 c 256
 273 538 253 582 214 580 c 256
 184 578 164 552 147 531 c 257
 105 570 l 257
EndSplineSet
EndChar

StartChar: Imacron
Encoding: 298 298 285
GlifName: I_macron
Width: 230
VWidth: 0
Flags: HMW
LayerCount: 2
Fore
SplineSet
257 699 m 257
 343 700 l 257
 101 0 l 257
 22 0 l 257
 257 699 l 257
160 771 m 257
 185 845 l 257
 518 845 l 257
 492 770 l 257
 160 771 l 257
EndSplineSet
EndChar

StartChar: imacron
Encoding: 299 299 286
GlifName: imacron
Width: 244
VWidth: 0
Flags: HMW
LayerCount: 2
Fore
SplineSet
184 459 m 257
 266 460 l 257
 105 0 l 257
 31 0 l 257
 184 459 l 257
85 531 m 257
 110 605 l 257
 442 605 l 257
 417 530 l 257
 85 531 l 257
EndSplineSet
EndChar

StartChar: Ibreve
Encoding: 300 300 287
GlifName: I_breve
Width: 230
VWidth: 0
Flags: HMW
LayerCount: 2
Fore
SplineSet
257 699 m 257
 343 700 l 257
 101 0 l 257
 22 0 l 257
 257 699 l 257
222 910 m 257
 289 909 l 257
 286 869 294 837 341 836 c 256
 392 835 425 871 452 909 c 257
 522 908 l 257
 484 833 419 771 330 771 c 256
 243 771 211 832 222 910 c 257
EndSplineSet
EndChar

StartChar: ibreve
Encoding: 301 301 288
GlifName: ibreve
Width: 244
VWidth: 0
Flags: HMW
LayerCount: 2
Fore
SplineSet
184 459 m 257
 266 460 l 257
 105 0 l 257
 31 0 l 257
 184 459 l 257
146 670 m 257
 213 669 l 257
 210 629 218 597 265 596 c 256
 316 595 349 631 376 669 c 257
 446 668 l 257
 408 593 343 531 254 531 c 256
 167 531 135 592 146 670 c 257
EndSplineSet
EndChar

StartChar: Iogonek
Encoding: 302 302 289
GlifName: I_ogonek
Width: 230
VWidth: 0
Flags: HMW
LayerCount: 2
Fore
SplineSet
257 699 m 257
 343 700 l 257
 101 0 l 257
 22 0 l 257
 257 699 l 257
59 -130 m 257
 76 -183 l 257
 47 -202 18 -218 -17 -219 c 256
 -77 -221 -122 -181 -104 -119 c 256
 -82 -46 4 -6 67 24 c 257
 103 0 l 257
 62 -23 -7 -49 -21 -100 c 256
 -27 -122 -21 -145 4 -149 c 256
 22 -152 44 -138 59 -130 c 257
EndSplineSet
EndChar

StartChar: iogonek
Encoding: 303 303 290
GlifName: iogonek
Width: 244
VWidth: 0
Flags: HMW
LayerCount: 2
Fore
SplineSet
237 652 m 256
 243 676 281 707 306 704 c 256
 333 701 349 674 343 648 c 256
 337 624 299 593 274 596 c 256
 247 599 231 626 237 652 c 256
184 459 m 257
 266 460 l 257
 105 0 l 257
 31 0 l 257
 184 459 l 257
64 -130 m 257
 81 -183 l 257
 52 -202 23 -218 -12 -219 c 256
 -72 -221 -118 -181 -100 -119 c 256
 -78 -46 9 -6 72 24 c 257
 107 0 l 257
 66 -23 -2 -49 -16 -100 c 256
 -22 -122 -16 -145 9 -149 c 256
 27 -152 49 -138 64 -130 c 257
EndSplineSet
EndChar

StartChar: Idotaccent
Encoding: 304 304 291
GlifName: I_dotaccent
Width: 230
VWidth: 0
Flags: HMW
LayerCount: 2
Fore
SplineSet
257 699 m 257
 343 700 l 257
 101 0 l 257
 22 0 l 257
 257 699 l 257
289 827 m 256
 295 851 334 882 359 879 c 256
 386 876 401 849 395 823 c 256
 389 799 351 768 326 771 c 256
 299 774 283 801 289 827 c 256
EndSplineSet
EndChar

StartChar: uni0136
Encoding: 310 310 292
GlifName: uni0136
Width: 531
VWidth: 0
Flags: HMW
LayerCount: 2
Fore
SplineSet
257 699 m 257
 343 700 l 257
 101 0 l 257
 22 0 l 257
 257 699 l 257
594 699 m 257
 703 699 l 257
 299 368 l 257
 470 0 l 257
 377 0 l 257
 203 375 l 257
 594 699 l 257
226 -62 m 257
 299 -94 l 257
 109 -338 l 257
 57 -317 l 257
 226 -62 l 257
EndSplineSet
EndChar

StartChar: uni0137
Encoding: 311 311 293
GlifName: uni0137
Width: 413
VWidth: 0
Flags: HMW
LayerCount: 2
Fore
SplineSet
275 779 m 257
 357 780 l 257
 87 0 l 257
 12 0 l 257
 275 779 l 257
399 459 m 257
 504 459 l 257
 244 266 l 257
 357 0 l 257
 268 0 l 257
 151 275 l 257
 399 459 l 257
165 -62 m 257
 238 -94 l 257
 48 -338 l 257
 -4 -317 l 257
 165 -62 l 257
EndSplineSet
EndChar

StartChar: Lacute
Encoding: 313 313 294
GlifName: L_acute
Width: 423
VWidth: 0
Flags: HMW
LayerCount: 2
Fore
SplineSet
259 700 m 257
 343 700 l 257
 130 80 l 257
 389 80 l 257
 361 0 l 257
 19 0 l 257
 259 700 l 257
628 915 m 257
 410 772 l 257
 372 803 l 257
 566 959 l 257
 628 915 l 257
EndSplineSet
EndChar

StartChar: lacute
Encoding: 314 314 295
GlifName: lacute
Width: 216
VWidth: 0
Flags: HMW
LayerCount: 2
Fore
SplineSet
280 779 m 257
 361 780 l 257
 91 0 l 257
 17 0 l 257
 280 779 l 257
516 985 m 257
 298 842 l 257
 260 873 l 257
 453 1029 l 257
 516 985 l 257
EndSplineSet
EndChar

StartChar: uni013B
Encoding: 315 315 296
GlifName: uni013B_
Width: 423
VWidth: 0
Flags: HMW
LayerCount: 2
Fore
SplineSet
259 700 m 257
 343 700 l 257
 130 80 l 257
 389 80 l 257
 361 0 l 257
 19 0 l 257
 259 700 l 257
170 -62 m 257
 242 -94 l 257
 53 -338 l 257
 0 -317 l 257
 170 -62 l 257
EndSplineSet
EndChar

StartChar: uni013C
Encoding: 316 316 297
GlifName: uni013C_
Width: 216
VWidth: 0
Flags: HMW
LayerCount: 2
Fore
SplineSet
280 779 m 257
 361 780 l 257
 91 0 l 257
 17 0 l 257
 280 779 l 257
33 -62 m 257
 106 -94 l 257
 -84 -338 l 257
 -136 -317 l 257
 33 -62 l 257
EndSplineSet
EndChar

StartChar: Lcaron
Encoding: 317 317 298
GlifName: L_caron
Width: 423
VWidth: 0
Flags: HMW
LayerCount: 2
Fore
SplineSet
259 700 m 257
 343 700 l 257
 130 80 l 257
 389 80 l 257
 361 0 l 257
 19 0 l 257
 259 700 l 257
493 708 m 257
 565 676 l 257
 376 432 l 257
 324 453 l 257
 493 708 l 257
EndSplineSet
EndChar

StartChar: lcaron
Encoding: 318 318 299
GlifName: lcaron
Width: 216
VWidth: 0
Flags: HMW
LayerCount: 2
Fore
SplineSet
280 779 m 257
 361 780 l 257
 91 0 l 257
 17 0 l 257
 280 779 l 257
484 778 m 257
 556 746 l 257
 367 502 l 257
 314 523 l 257
 484 778 l 257
EndSplineSet
EndChar

StartChar: Ldot
Encoding: 319 319 300
GlifName: L_dot
Width: 423
VWidth: 0
Flags: HMW
LayerCount: 2
Fore
SplineSet
259 700 m 257
 343 700 l 257
 130 80 l 257
 389 80 l 257
 361 0 l 257
 19 0 l 257
 259 700 l 257
326 417 m 256
 332 441 370 472 395 469 c 256
 422 466 438 439 432 413 c 256
 426 389 388 358 363 361 c 256
 336 364 320 391 326 417 c 256
EndSplineSet
EndChar

StartChar: ldot
Encoding: 320 320 301
GlifName: ldot
Width: 348
VWidth: 0
Flags: HMW
LayerCount: 2
Fore
SplineSet
280 779 m 257
 361 780 l 257
 91 0 l 257
 17 0 l 257
 280 779 l 257
289 417 m 256
 295 441 333 472 358 469 c 256
 385 466 400 439 394 413 c 256
 388 389 350 358 325 361 c 256
 298 364 283 391 289 417 c 256
EndSplineSet
EndChar

StartChar: eth
Encoding: 240 240 302
GlifName: eth
Width: 541
VWidth: 0
Flags: HMW
LayerCount: 2
Fore
SplineSet
442 230 m 256
 469 303 448 393 357 394 c 256
 264 395 178 313 148 230 c 256
 121 157 144 69 234 68 c 256
 327 67 412 147 442 230 c 256
414 700 m 257
 526 375 l 258
 540 327 536 277 521 230 c 256
 480 104 357 -9 219 -9 c 256
 85 -9 32 114 69 231 c 256
 105 343 214 455 338 456 c 256
 378 456 404 442 430 413 c 257
 426 410 l 257
 318 700 l 257
 414 700 l 257
269 521 m 257
 289 584 l 257
 574 584 l 257
 553 521 l 257
 269 521 l 257
EndSplineSet
EndChar

StartChar: racute
Encoding: 341 341 303
GlifName: racute
Width: 322
VWidth: 0
Flags: HMW
LayerCount: 2
Fore
SplineSet
251 460 m 257
 92 0 l 257
 13 0 l 257
 173 460 l 257
 251 460 l 257
354 373 m 257
 339 384 324 394 304 395 c 256
 242 397 210 329 188 282 c 257
 151 282 l 257
 184 358 243 467 339 469 c 256
 371 470 392 455 415 435 c 257
 354 373 l 257
495 675 m 257
 277 531 l 257
 241 563 l 257
 434 719 l 257
 495 675 l 257
EndSplineSet
EndChar

StartChar: rcaron
Encoding: 345 345 304
GlifName: rcaron
Width: 322
VWidth: 0
Flags: HMW
LayerCount: 2
Fore
SplineSet
251 460 m 257
 92 0 l 257
 13 0 l 257
 173 460 l 257
 251 460 l 257
354 373 m 257
 339 384 324 394 304 395 c 256
 242 397 210 329 188 282 c 257
 151 282 l 257
 184 358 243 467 339 469 c 256
 371 470 392 455 415 435 c 257
 354 373 l 257
344 616 m 257
 482 709 l 257
 520 667 l 257
 324 530 l 257
 216 672 l 257
 274 709 l 257
 344 616 l 257
EndSplineSet
EndChar

StartChar: Rcaron
Encoding: 344 344 305
GlifName: R_caron
Width: 526
VWidth: 0
Flags: HMW
LayerCount: 2
Fore
SplineSet
256 345 m 257
 344 345 l 257
 461 0 l 257
 368 0 l 257
 256 345 l 257
257 699 m 257
 343 700 l 257
 101 0 l 257
 22 0 l 257
 257 699 l 257
276 625 m 257
 303 700 l 257
 433 700 l 256
 552 695 631 609 593 489 c 256
 554 364 428 285 301 280 c 256
 158 280 l 257
 185 355 l 257
 315 355 l 257
 399 360 480 409 510 490 c 256
 538 566 496 619 419 624 c 257
 276 625 l 257
472 856 m 257
 610 949 l 257
 648 907 l 257
 452 770 l 257
 344 912 l 257
 402 949 l 257
 472 856 l 257
EndSplineSet
EndChar

StartChar: uni0213
Encoding: 531 531 306
GlifName: uni0213
Width: 322
VWidth: 0
Flags: HMW
LayerCount: 2
Fore
SplineSet
251 460 m 257
 92 0 l 257
 13 0 l 257
 173 460 l 257
 251 460 l 257
354 373 m 257
 339 384 324 394 304 395 c 256
 242 397 210 329 188 282 c 257
 151 282 l 257
 184 358 243 467 339 469 c 256
 371 470 392 455 415 435 c 257
 354 373 l 257
171 530 m 257
 245 531 l 257
 271 570 302 604 353 604 c 256
 402 604 414 572 412 529 c 257
 467 530 l 257
 484 605 461 667 375 669 c 256
 283 671 214 605 171 530 c 257
EndSplineSet
EndChar

StartChar: uni0212
Encoding: 530 530 307
GlifName: uni0212
Width: 526
VWidth: 0
Flags: HMW
LayerCount: 2
Fore
SplineSet
256 345 m 257
 344 345 l 257
 461 0 l 257
 368 0 l 257
 256 345 l 257
257 699 m 257
 343 700 l 257
 101 0 l 257
 22 0 l 257
 257 699 l 257
276 625 m 257
 303 700 l 257
 433 700 l 256
 552 695 631 609 593 489 c 256
 554 364 428 285 301 280 c 256
 158 280 l 257
 185 355 l 257
 315 355 l 257
 399 360 480 409 510 490 c 256
 538 566 496 619 419 624 c 257
 276 625 l 257
317 770 m 257
 391 771 l 257
 417 810 448 844 499 844 c 256
 548 844 560 812 558 769 c 257
 613 770 l 257
 630 845 607 907 521 909 c 256
 429 911 360 845 317 770 c 257
EndSplineSet
EndChar

StartChar: OE
Encoding: 338 338 308
GlifName: O_E_
Width: 926
VWidth: 0
Flags: HMW
LayerCount: 2
Fore
SplineSet
591 341 m 257
 618 420 l 257
 934 420 l 257
 907 340 l 257
 591 341 l 257
656 669 m 257
 742 670 l 257
 520 30 l 257
 441 31 l 257
 656 669 l 257
834 79 m 257
 808 0 l 257
 319 0 l 256
 123 7 44 175 101 350 c 256
 163 541 341 694 545 700 c 256
 1048 700 l 257
 1019 620 l 257
 698 620 l 257
 682 620 l 257
 531 620 l 256
 372 614 236 496 184 350 c 256
 137 220 182 87 334 80 c 256
 483 80 l 257
 505 80 l 257
 834 79 l 257
EndSplineSet
EndChar

StartChar: oe
Encoding: 339 339 309
GlifName: oe
Width: 846
VWidth: 0
Flags: HMW
LayerCount: 2
Fore
SplineSet
765 250 m 258
 786 315 784 396 698 399 c 256
 612 402 543 332 509 260 c 258
 496 230 l 257
 470 158 478 69 572 66 c 256
 636 64 691 107 737 147 c 257
 790 104 l 257
 726 45 649 -10 558 -9 c 256
 426 -7 394 123 427 230 c 256
 432 247 439 263 447 279 c 256
 497 380 601 471 719 469 c 256
 849 467 870 336 841 234 c 256
 839 226 836 219 833 211 c 257
 758 231 l 257
 765 250 l 258
470 211 m 257
 491 277 l 257
 834 278 l 257
 832 210 l 257
 470 211 l 257
55 230 m 256
 94 352 213 470 348 469 c 256
 483 468 498 334 465 230 c 256
 427 113 329 -8 196 -9 c 256
 62 -10 19 118 55 230 c 256
134 230 m 256
 107 157 127 66 219 66 c 256
 307 66 381 153 409 230 c 256
 432 294 430 390 343 394 c 256
 249 399 164 312 134 230 c 256
EndSplineSet
EndChar

StartChar: a.alt
Encoding: 65536 -1 310
GlifName: a.alt
Width: 536
VWidth: 0
Flags: HMW
LayerCount: 2
Fore
SplineSet
500 459 m 257
 577 460 l 257
 417 0 l 257
 346 0 l 257
 500 459 l 257
55 230 m 256
 94 352 213 472 348 470 c 256
 480 468 487 328 455 230 c 256
 419 117 326 -8 196 -9 c 256
 62 -10 19 119 55 230 c 256
134 230 m 256
 107 157 127 66 219 66 c 256
 309 66 390 151 419 230 c 256
 443 298 430 390 343 394 c 256
 249 398 164 312 134 230 c 256
EndSplineSet
EndChar

StartChar: Jcircumflex
Encoding: 308 308 312
GlifName: J_circumflex
Width: 225
VWidth: 0
Flags: HMW
LayerCount: 2
Fore
SplineSet
-157 -105 m 257
 -141 -126 -125 -142 -96 -140 c 256
 -48 -136 -15 -90 2 -50 c 257
 259 700 l 257
 338 700 l 257
 79 -61 l 258
 47 -145 -22 -221 -118 -219 c 256
 -161 -218 -190 -199 -218 -168 c 257
 -157 -105 l 257
359 864 m 257
 222 771 l 257
 183 813 l 257
 379 950 l 257
 487 808 l 257
 430 771 l 257
 359 864 l 257
EndSplineSet
EndChar

StartChar: jcircumflex
Encoding: 309 309 313
GlifName: jcircumflex
Width: 235
VWidth: 0
Flags: HMW
LayerCount: 2
Fore
SplineSet
-113 -115 m 257
 -104 -127 -95 -141 -77 -141 c 256
 -34 -140 -11 -83 2 -50 c 258
 177 460 l 257
 256 460 l 257
 79 -61 l 258
 51 -137 -7 -223 -99 -219 c 256
 -133 -218 -153 -201 -174 -177 c 257
 -113 -115 l 257
277 624 m 257
 140 531 l 257
 101 573 l 257
 297 710 l 257
 405 568 l 257
 348 531 l 257
 277 624 l 257
EndSplineSet
EndChar

StartChar: Nacute
Encoding: 323 323 314
GlifName: N_acute
Width: 729
VWidth: 0
Flags: HMW
LayerCount: 2
Fore
SplineSet
758 700 m 257
 841 700 l 257
 589 -33 l 257
 282 522 l 257
 102 0 l 257
 18 0 l 257
 270 733 l 257
 578 178 l 257
 758 700 l 257
783 900 m 257
 565 757 l 257
 527 788 l 257
 721 944 l 257
 783 900 l 257
EndSplineSet
EndChar

StartChar: nacute
Encoding: 324 324 315
GlifName: nacute
Width: 493
VWidth: 0
Flags: HMW
LayerCount: 2
Fore
SplineSet
251 460 m 257
 92 0 l 257
 13 0 l 257
 173 460 l 257
 251 460 l 257
390 280 m 258
 405 329 409 391 342 394 c 256
 271 397 220 337 188 282 c 257
 161 282 l 257
 199 370 268 469 375 469 c 256
 480 469 493 372 469 290 c 256
 369 0 l 257
 294 0 l 257
 390 280 l 258
557 675 m 257
 340 531 l 257
 303 563 l 257
 496 719 l 257
 557 675 l 257
EndSplineSet
EndChar

StartChar: uni0145
Encoding: 325 325 316
GlifName: uni0145
Width: 729
VWidth: 0
Flags: HMW
LayerCount: 2
Fore
SplineSet
305 -37 m 257
 378 -69 l 257
 188 -313 l 257
 136 -292 l 257
 305 -37 l 257
758 700 m 257
 841 700 l 257
 589 -33 l 257
 282 522 l 257
 102 0 l 257
 18 0 l 257
 270 733 l 257
 578 178 l 257
 758 700 l 257
EndSplineSet
EndChar

StartChar: uni0146
Encoding: 326 326 317
GlifName: uni0146
Width: 493
VWidth: 0
Flags: HMW
LayerCount: 2
Fore
SplineSet
251 460 m 257
 92 0 l 257
 13 0 l 257
 173 460 l 257
 251 460 l 257
390 280 m 258
 405 329 409 391 342 394 c 256
 271 397 220 337 188 282 c 257
 152 282 l 257
 192 371 267 469 375 469 c 256
 480 469 493 372 469 290 c 256
 369 0 l 257
 294 0 l 257
 390 280 l 258
172 -62 m 257
 244 -94 l 257
 55 -338 l 257
 2 -317 l 257
 172 -62 l 257
EndSplineSet
EndChar

StartChar: Ncaron
Encoding: 327 327 318
GlifName: N_caron
Width: 729
VWidth: 0
Flags: HMW
LayerCount: 2
Fore
SplineSet
617 881 m 257
 755 974 l 257
 793 932 l 257
 597 795 l 257
 489 937 l 257
 547 974 l 257
 617 881 l 257
758 700 m 257
 841 700 l 257
 589 -33 l 257
 282 522 l 257
 102 0 l 257
 18 0 l 257
 270 733 l 257
 578 178 l 257
 758 700 l 257
EndSplineSet
EndChar

StartChar: ncaron
Encoding: 328 328 319
GlifName: ncaron
Width: 493
VWidth: 0
Flags: HMW
LayerCount: 2
Fore
SplineSet
251 460 m 257
 92 0 l 257
 13 0 l 257
 173 460 l 257
 251 460 l 257
390 280 m 258
 405 329 409 391 342 394 c 256
 271 397 220 337 188 282 c 257
 152 282 l 257
 192 371 267 469 375 469 c 256
 480 469 493 372 469 290 c 256
 369 0 l 257
 294 0 l 257
 390 280 l 258
397 616 m 257
 535 709 l 257
 573 667 l 257
 377 530 l 257
 269 672 l 257
 326 709 l 257
 397 616 l 257
EndSplineSet
EndChar

StartChar: Omacron
Encoding: 332 332 320
GlifName: O_macron
Width: 743
VWidth: 0
Flags: HMW
LayerCount: 2
Fore
SplineSet
189 350 m 256
 145 226 184 78 337 76 c 256
 494 74 635 210 685 350 c 256
 729 474 690 622 537 624 c 256
 380 626 239 490 189 350 c 256
101 350 m 256
 162 538 349 711 554 710 c 256
 753 709 828 521 773 350 c 256
 712 162 525 -11 320 -10 c 256
 121 -9 46 179 101 350 c 256
416 771 m 257
 441 845 l 257
 774 845 l 257
 748 770 l 257
 416 771 l 257
EndSplineSet
EndChar

StartChar: omacron
Encoding: 333 333 321
GlifName: omacron
Width: 513
VWidth: 0
Flags: HMW
LayerCount: 2
Fore
SplineSet
55 230 m 256
 95 355 221 469 357 469 c 256
 490 469 544 346 507 230 c 256
 467 105 341 -9 205 -9 c 256
 72 -9 18 114 55 230 c 256
134 230 m 256
 107 157 128 67 219 66 c 256
 312 65 398 147 428 230 c 256
 455 303 434 393 343 394 c 256
 250 395 164 313 134 230 c 256
220 531 m 257
 244 605 l 257
 577 605 l 257
 551 530 l 257
 220 531 l 257
EndSplineSet
EndChar

StartChar: Obreve
Encoding: 334 334 322
GlifName: O_breve
Width: 743
VWidth: 0
Flags: HMW
LayerCount: 2
Fore
SplineSet
189 350 m 256
 145 226 184 78 337 76 c 256
 494 74 635 210 685 350 c 256
 729 474 690 622 537 624 c 256
 380 626 239 490 189 350 c 256
101 350 m 256
 162 538 349 711 554 710 c 256
 753 709 828 521 773 350 c 256
 712 162 525 -11 320 -10 c 256
 121 -9 46 179 101 350 c 256
478 910 m 257
 545 909 l 257
 542 869 550 837 597 836 c 256
 648 835 681 871 708 909 c 257
 778 908 l 257
 740 833 674 771 585 771 c 256
 498 771 467 832 478 910 c 257
EndSplineSet
EndChar

StartChar: obreve
Encoding: 335 335 323
GlifName: obreve
Width: 513
VWidth: 0
Flags: HMW
LayerCount: 2
Fore
SplineSet
55 230 m 256
 95 355 221 469 357 469 c 256
 490 469 544 346 507 230 c 256
 467 105 341 -9 205 -9 c 256
 72 -9 18 114 55 230 c 256
134 230 m 256
 107 157 128 67 219 66 c 256
 312 65 398 147 428 230 c 256
 455 303 434 393 343 394 c 256
 250 395 164 313 134 230 c 256
281 670 m 257
 348 669 l 257
 345 629 353 597 400 596 c 256
 451 595 484 631 511 669 c 257
 581 668 l 257
 543 593 478 531 389 531 c 256
 302 531 270 592 281 670 c 257
EndSplineSet
EndChar

StartChar: Racute
Encoding: 340 340 324
GlifName: R_acute
Width: 526
VWidth: 0
Flags: HMW
LayerCount: 2
Fore
SplineSet
256 345 m 257
 344 345 l 257
 461 0 l 257
 368 0 l 257
 256 345 l 257
257 699 m 257
 343 700 l 257
 101 0 l 257
 22 0 l 257
 257 699 l 257
276 625 m 257
 303 700 l 257
 433 700 l 256
 552 695 631 609 593 489 c 256
 554 364 428 285 301 280 c 256
 158 280 l 257
 185 355 l 257
 315 355 l 257
 399 360 480 409 510 490 c 256
 538 566 496 619 419 624 c 257
 276 625 l 257
642 915 m 257
 424 772 l 257
 386 803 l 257
 580 959 l 257
 642 915 l 257
EndSplineSet
EndChar

StartChar: uni0156
Encoding: 342 342 325
GlifName: uni0156
Width: 526
VWidth: 0
Flags: HMW
LayerCount: 2
Fore
SplineSet
256 345 m 257
 344 345 l 257
 461 0 l 257
 368 0 l 257
 256 345 l 257
257 699 m 257
 343 700 l 257
 101 0 l 257
 22 0 l 257
 257 699 l 257
276 625 m 257
 303 700 l 257
 433 700 l 256
 552 695 631 609 593 489 c 256
 554 364 428 285 301 280 c 256
 158 280 l 257
 185 355 l 257
 315 355 l 257
 399 360 480 409 510 490 c 256
 538 566 496 619 419 624 c 257
 276 625 l 257
221 -62 m 257
 294 -94 l 257
 105 -338 l 257
 52 -317 l 257
 221 -62 l 257
EndSplineSet
EndChar

StartChar: uni0157
Encoding: 343 343 326
GlifName: uni0157
Width: 322
VWidth: 0
Flags: HMW
LayerCount: 2
Fore
SplineSet
251 460 m 257
 92 0 l 257
 13 0 l 257
 173 460 l 257
 251 460 l 257
354 373 m 257
 339 384 324 394 304 395 c 256
 242 397 210 329 188 282 c 257
 151 282 l 257
 184 358 243 467 339 469 c 256
 371 470 392 455 415 435 c 257
 354 373 l 257
33 -62 m 257
 106 -94 l 257
 -84 -338 l 257
 -136 -317 l 257
 33 -62 l 257
EndSplineSet
EndChar

StartChar: Scedilla
Encoding: 350 350 327
GlifName: S_cedilla
Width: 515
VWidth: 0
Flags: HMW
LayerCount: 2
Fore
SplineSet
126 226 m 257
 134 155 153 72 241 71 c 256
 310 70 374 119 398 183 c 256
 428 264 366 307 302 338 c 256
 221 377 166 435 196 531 c 256
 229 635 335 709 444 709 c 256
 539 709 585 643 603 558 c 257
 525 515 l 257
 512 572 486 627 419 628 c 256
 360 629 300 585 281 529 c 256
 256 455 330 423 383 396 c 256
 466 354 515 284 486 189 c 256
 452 77 339 -9 221 -9 c 256
 107 -9 58 84 45 185 c 257
 126 226 l 257
245 57 m 257
 306 57 l 257
 206 -53 l 257
 208 -53 209 -53 211 -53 c 256
 249 -60 269 -91 259 -129 c 256
 245 -181 182 -220 130 -220 c 256
 96 -220 76 -202 53 -180 c 257
 96 -144 l 257
 109 -155 122 -167 141 -167 c 256
 162 -167 199 -148 205 -126 c 256
 211 -105 192 -92 174 -91 c 256
 153 -89 128 -100 109 -107 c 257
 245 57 l 257
EndSplineSet
EndChar

StartChar: scedilla
Encoding: 351 351 328
GlifName: scedilla
Width: 379
VWidth: 0
Flags: HMW
LayerCount: 2
Fore
SplineSet
81 162 m 257
 94 119 114 69 166 67 c 256
 201 65 247 88 260 123 c 256
 277 170 232 194 197 212 c 256
 141 242 91 277 113 348 c 256
 136 422 217 470 292 470 c 256
 357 470 399 436 424 379 c 257
 353 341 l 257
 336 370 315 396 278 397 c 256
 247 398 201 382 190 349 c 256
 174 303 236 286 266 271 c 256
 322 243 362 195 343 130 c 256
 319 47 235 -9 151 -8 c 256
 69 -7 27 53 10 126 c 257
 81 162 l 257
174 58 m 257
 237 58 l 257
 136 -52 l 257
 137 -52 139 -52 140 -52 c 256
 179 -59 199 -89 190 -128 c 256
 177 -181 111 -220 59 -219 c 256
 26 -218 6 -201 -16 -179 c 257
 25 -143 l 257
 38 -154 51 -166 70 -166 c 256
 91 -166 128 -147 134 -125 c 256
 140 -104 120 -91 102 -90 c 256
 82 -88 59 -99 40 -106 c 257
 174 58 l 257
EndSplineSet
EndChar

StartChar: Zcaron
Encoding: 381 381 329
GlifName: Z_caron
Width: 512
VWidth: 0
Flags: HMW
LayerCount: 2
Fore
SplineSet
188 620 m 257
 217 700 l 257
 683 699 l 257
 125 81 l 257
 451 80 l 257
 422 0 l 257
 -45 0 l 257
 514 619 l 257
 188 620 l 257
496 856 m 257
 633 949 l 257
 672 907 l 257
 476 770 l 257
 368 912 l 257
 425 949 l 257
 496 856 l 257
EndSplineSet
EndChar

StartChar: zcaron
Encoding: 382 382 330
GlifName: zcaron
Width: 432
VWidth: 0
Flags: HMW
LayerCount: 2
Fore
SplineSet
381 616 m 257
 519 709 l 257
 557 667 l 257
 361 530 l 257
 253 672 l 257
 310 709 l 257
 381 616 l 257
355 384 m 257
 117 385 l 257
 144 460 l 257
 527 459 l 257
 126 76 l 257
 374 75 l 257
 347 0 l 257
 -45 0 l 257
 355 384 l 257
EndSplineSet
EndChar

StartChar: Ydieresis
Encoding: 376 376 331
GlifName: Y_dieresis
Width: 527
VWidth: 0
Flags: HMW
LayerCount: 2
Fore
SplineSet
345 827 m 256
 351 850 388 882 413 879 c 256
 440 876 456 849 450 823 c 256
 444 799 405 768 380 771 c 256
 352 774 339 802 345 827 c 256
533 827 m 256
 539 850 576 882 601 879 c 256
 628 876 645 849 639 823 c 256
 633 799 593 768 568 771 c 256
 540 774 527 802 533 827 c 256
615 699 m 257
 713 699 l 257
 353 297 l 257
 250 0 l 257
 167 0 l 257
 274 307 l 257
 191 700 l 257
 278 700 l 257
 335 379 l 257
 615 699 l 257
EndSplineSet
EndChar

StartChar: Scaron
Encoding: 352 352 332
GlifName: S_caron
Width: 515
VWidth: 0
Flags: HMW
LayerCount: 2
Fore
SplineSet
126 226 m 257
 134 155 153 72 241 71 c 256
 310 70 374 119 398 183 c 256
 428 264 366 306 302 338 c 256
 223 378 168 444 197 536 c 256
 229 638 339 710 444 709 c 256
 537 708 588 643 603 558 c 257
 524 514 l 257
 513 569 495 626 429 628 c 256
 368 629 301 587 281 529 c 256
 255 456 330 423 383 396 c 256
 466 354 514 284 485 189 c 256
 451 75 341 -10 221 -9 c 256
 107 -8 58 84 45 185 c 257
 126 226 l 257
494 856 m 257
 631 949 l 257
 670 907 l 257
 474 770 l 257
 366 912 l 257
 423 949 l 257
 494 856 l 257
EndSplineSet
EndChar

StartChar: scaron
Encoding: 353 353 333
GlifName: scaron
Width: 379
VWidth: 0
Flags: HMW
LayerCount: 2
Fore
SplineSet
84 160 m 257
 87 110 104 67 161 66 c 256
 199 65 246 86 260 124 c 256
 278 172 233 196 198 215 c 256
 145 244 93 282 114 350 c 256
 136 422 220 468 292 469 c 256
 357 470 404 439 424 378 c 257
 353 340 l 257
 335 368 314 393 277 393 c 256
 246 393 199 376 189 343 c 256
 176 300 237 281 265 266 c 256
 317 238 360 192 343 129 c 256
 320 42 227 -11 141 -9 c 256
 59 -8 14 46 10 124 c 257
 84 160 l 257
341 616 m 257
 479 709 l 257
 518 667 l 257
 321 530 l 257
 213 672 l 257
 271 709 l 257
 341 616 l 257
EndSplineSet
EndChar

StartChar: Lslash
Encoding: 321 321 334
GlifName: L_slash
Width: 423
VWidth: 0
Flags: HMW
LayerCount: 2
Fore
SplineSet
68 341 m 257
 66 397 l 257
 377 564 l 257
 380 508 l 257
 68 341 l 257
259 700 m 257
 343 700 l 257
 130 80 l 257
 389 80 l 257
 361 0 l 257
 19 0 l 257
 259 700 l 257
EndSplineSet
EndChar

StartChar: lslash
Encoding: 322 322 335
GlifName: lslash
Width: 216
VWidth: 0
Flags: HMW
LayerCount: 2
Fore
SplineSet
68 341 m 257
 66 397 l 257
 352 544 l 257
 354 488 l 257
 68 341 l 257
280 779 m 257
 361 780 l 257
 91 0 l 257
 17 0 l 257
 280 779 l 257
EndSplineSet
EndChar

StartChar: uni0218
Encoding: 536 536 336
GlifName: uni0218
Width: 515
VWidth: 0
Flags: HMW
LayerCount: 2
Fore
SplineSet
126 226 m 257
 134 155 153 72 241 71 c 256
 310 70 374 119 398 183 c 256
 428 264 366 306 302 338 c 256
 223 378 168 444 197 536 c 256
 229 638 339 710 444 709 c 256
 537 708 588 643 603 558 c 257
 524 514 l 257
 513 569 495 626 429 628 c 256
 368 629 301 587 281 529 c 256
 255 456 330 423 383 396 c 256
 466 354 515 284 486 189 c 256
 452 75 341 -10 221 -9 c 256
 107 -8 58 84 45 185 c 257
 126 226 l 257
195 -72 m 257
 267 -104 l 257
 78 -348 l 257
 25 -327 l 257
 195 -72 l 257
EndSplineSet
EndChar

StartChar: uni0219
Encoding: 537 537 337
GlifName: uni0219
Width: 379
VWidth: 0
Flags: HMW
LayerCount: 2
Fore
SplineSet
84 160 m 257
 87 110 103 67 160 66 c 256
 198 65 246 86 260 124 c 256
 278 172 233 196 198 215 c 256
 145 244 93 282 114 350 c 256
 136 422 220 468 292 469 c 256
 357 470 404 439 424 378 c 257
 353 340 l 257
 335 368 314 393 277 393 c 256
 246 393 199 376 189 343 c 256
 176 300 237 281 265 266 c 256
 317 238 360 192 343 129 c 256
 320 42 227 -11 141 -9 c 256
 59 -8 14 46 10 124 c 257
 84 160 l 257
115 -72 m 257
 187 -104 l 257
 -2 -348 l 257
 -55 -327 l 257
 115 -72 l 257
EndSplineSet
EndChar

StartChar: pi
Encoding: 960 960 338
GlifName: pi
Width: 508
VWidth: 0
Flags: HMW
LayerCount: 2
Fore
SplineSet
174 429 m 257
 256 430 l 257
 105 0 l 257
 31 0 l 257
 174 429 l 257
130 460 m 257
 576 460 l 257
 549 385 l 257
 103 385 l 257
 130 460 l 257
412 430 m 257
 491 430 l 257
 389 141 l 257
 378 102 379 86 416 71 c 257
 390 -8 l 257
 307 1 283 40 306 121 c 257
 412 430 l 257
EndSplineSet
EndChar

StartChar: trademark
Encoding: 8482 8482 339
GlifName: trademark
Width: 625
VWidth: 0
Flags: HMW
LayerCount: 2
Fore
SplineSet
201 661 m 257
 214 699 l 257
 425 699 l 257
 413 661 l 257
 327 660 l 257
 221 351 l 257
 179 351 l 257
 283 660 l 257
 201 661 l 257
678 602 m 257
 752 728 l 257
 660 350 l 257
 619 351 l 257
 678 602 l 257
482 716 m 257
 469 595 l 257
 358 351 l 257
 316 352 l 257
 482 716 l 257
754 727 m 257
 717 626 l 257
 500 380 l 257
 453 638 l 257
 482 717 l 257
 524 467 l 257
 754 727 l 257
EndSplineSet
EndChar

StartChar: uni2219
Encoding: 8729 8729 340
GlifName: uni2219
Width: 282
VWidth: 0
Flags: HMW
LayerCount: 2
Fore
SplineSet
176 417 m 256
 182 441 220 472 245 469 c 256
 272 466 287 439 281 413 c 256
 275 389 237 358 212 361 c 256
 185 364 170 391 176 417 c 256
EndSplineSet
EndChar

StartChar: agrave.alt
Encoding: 65537 -1 341
GlifName: agrave.alt
Width: 536
VWidth: 0
Flags: HMW
LayerCount: 2
Fore
SplineSet
500 459 m 257
 577 460 l 257
 417 0 l 257
 346 0 l 257
 500 459 l 257
55 230 m 256
 94 352 213 472 348 470 c 256
 480 468 487 328 455 230 c 256
 419 117 326 -8 196 -9 c 256
 62 -10 19 119 55 230 c 256
134 230 m 256
 107 157 127 66 219 66 c 256
 309 66 390 151 419 230 c 256
 443 298 430 390 343 394 c 256
 249 398 164 312 134 230 c 256
283 682 m 257
 365 720 l 257
 456 558 l 257
 407 530 l 257
 283 682 l 257
EndSplineSet
EndChar

StartChar: aacute.alt
Encoding: 65538 -1 342
GlifName: aacute.alt
Width: 536
VWidth: 0
Flags: HMW
LayerCount: 2
Fore
SplineSet
500 459 m 257
 577 460 l 257
 417 1 l 257
 346 0 l 257
 500 459 l 257
55 230 m 256
 94 352 213 472 348 470 c 256
 480 468 487 328 455 230 c 256
 419 117 326 -8 196 -9 c 256
 62 -10 19 119 55 230 c 256
134 230 m 256
 107 157 127 66 219 66 c 256
 309 66 390 151 419 230 c 256
 443 298 430 390 343 394 c 256
 249 398 164 312 134 230 c 256
549 675 m 257
 331 532 l 257
 293 563 l 257
 487 719 l 257
 549 675 l 257
EndSplineSet
EndChar

StartChar: acircumflex.alt
Encoding: 65539 -1 343
GlifName: acircumflex.alt
Width: 536
VWidth: 0
Flags: HMW
LayerCount: 2
Fore
SplineSet
500 459 m 257
 577 460 l 257
 417 0 l 257
 346 0 l 257
 500 459 l 257
55 230 m 256
 94 352 213 472 348 470 c 256
 480 468 487 328 455 230 c 256
 419 117 326 -8 196 -9 c 256
 62 -10 19 119 55 230 c 256
134 230 m 256
 107 157 127 66 219 66 c 256
 309 66 390 151 419 230 c 256
 443 298 430 390 343 394 c 256
 249 398 164 312 134 230 c 256
431 624 m 257
 293 531 l 257
 254 573 l 257
 451 710 l 257
 559 568 l 257
 501 531 l 257
 431 624 l 257
EndSplineSet
EndChar

StartChar: atilde.alt
Encoding: 65540 -1 344
GlifName: atilde.alt
Width: 536
VWidth: 0
Flags: HMW
LayerCount: 2
Fore
SplineSet
500 459 m 257
 577 460 l 257
 417 0 l 257
 346 0 l 257
 500 459 l 257
55 230 m 256
 94 352 213 472 348 470 c 256
 480 468 487 328 455 230 c 256
 419 117 326 -8 196 -9 c 256
 62 -10 19 119 55 230 c 256
134 230 m 256
 107 157 127 66 219 66 c 256
 309 66 390 151 419 230 c 256
 443 298 430 390 343 394 c 256
 249 398 164 312 134 230 c 256
249 570 m 257
 280 610 323 648 371 648 c 256
 410.051 648 432 600 472 603 c 256
 500 605 524 632 543 649 c 257
 576 604 l 257
 546 573 503 531 455 535 c 256
 417 538 397 582 358 580 c 256
 328 578 308 552 291 531 c 257
 249 570 l 257
EndSplineSet
EndChar

StartChar: adieresis.alt
Encoding: 65541 -1 345
GlifName: adieresis.alt
Width: 536
VWidth: 0
Flags: HMW
LayerCount: 2
Fore
SplineSet
500 459 m 257
 577 460 l 257
 417 0 l 257
 346 0 l 257
 500 459 l 257
55 230 m 256
 94 352 213 472 348 470 c 256
 480 468 487 328 455 230 c 256
 419 117 326 -8 196 -9 c 256
 62 -10 19 119 55 230 c 256
134 230 m 256
 107 157 127 66 219 66 c 256
 309 66 390 151 419 230 c 256
 443 298 430 390 343 394 c 256
 249 398 164 312 134 230 c 256
453 587 m 256
 459 611 497 642 522 639 c 256
 549 636 565 609 559 583 c 256
 553 559 514 528 489 531 c 256
 462 534 447 561 453 587 c 256
265 587 m 256
 271 611 309 642 334 639 c 256
 361 636 376 609 370 583 c 256
 364 559 326 528 301 531 c 256
 274 534 259 561 265 587 c 256
EndSplineSet
EndChar

StartChar: aring.alt
Encoding: 65542 -1 346
GlifName: aring.alt
Width: 536
VWidth: 0
Flags: HMW
LayerCount: 2
Fore
SplineSet
500 459 m 257
 577 460 l 257
 417 0 l 257
 346 0 l 257
 500 459 l 257
55 230 m 256
 94 352 213 472 348 470 c 256
 480 468 487 328 455 230 c 256
 419 117 326 -8 196 -9 c 256
 62 -10 19 119 55 230 c 256
134 230 m 256
 107 157 127 66 219 66 c 256
 309 66 390 151 419 230 c 256
 443 298 430 390 343 394 c 256
 249 398 164 312 134 230 c 256
277 630 m 256
 292 680 350 729 404 728 c 256
 458 727 487 676 472 627 c 256
 457 577 398 529 344 530 c 256
 290 531 262 581 277 630 c 256
326 628 m 256
 320 608 329.805 577 353 577 c 256
 377 577 417 608 423 630 c 256
 429 650 419.195 680 396 680 c 256
 371 680 332 650 326 628 c 256
EndSplineSet
EndChar

StartChar: amacron.alt
Encoding: 65543 -1 347
GlifName: amacron.alt
Width: 536
VWidth: 0
Flags: HMW
LayerCount: 2
Fore
SplineSet
500 459 m 257
 577 460 l 257
 417 0 l 257
 346 0 l 257
 500 459 l 257
55 230 m 256
 94 352 213 472 348 470 c 256
 480 468 487 328 455 230 c 256
 419 117 326 -8 196 -9 c 256
 62 -10 19 119 55 230 c 256
134 230 m 256
 107 157 127 66 219 66 c 256
 309 66 390 151 419 230 c 256
 443 298 430 390 343 394 c 256
 249 398 164 312 134 230 c 256
220 551 m 257
 244 625 l 257
 577 625 l 257
 551 550 l 257
 220 551 l 257
EndSplineSet
EndChar

StartChar: abreve.alt
Encoding: 65544 -1 348
GlifName: abreve.alt
Width: 536
VWidth: 0
Flags: HMW
LayerCount: 2
Fore
SplineSet
500 459 m 257
 577 460 l 257
 417 0 l 257
 346 0 l 257
 500 459 l 257
55 230 m 256
 94 352 213 472 348 470 c 256
 480 468 487 328 455 230 c 256
 419 117 326 -8 196 -9 c 256
 62 -10 19 119 55 230 c 256
134 230 m 256
 107 157 127 66 219 66 c 256
 309 66 390 151 419 230 c 256
 443 298 430 390 343 394 c 256
 249 398 164 312 134 230 c 256
231 669 m 257
 298 668 l 257
 296 628 306 596 353 595 c 256
 404 594 436 629 461 668 c 257
 531 667 l 257
 496 591 432 530 343 530 c 256
 257 530 222 590 231 669 c 257
EndSplineSet
EndChar

StartChar: aogonek.alt
Encoding: 65545 -1 349
GlifName: aogonek.alt
Width: 536
VWidth: 0
Flags: HMW
LayerCount: 2
Fore
SplineSet
500 459 m 257
 577 460 l 257
 417 1 l 257
 346 0 l 257
 500 459 l 257
55 230 m 256
 94 352 213 472 348 470 c 256
 480 468 487 328 455 230 c 256
 419 117 326 -8 196 -9 c 256
 62 -10 19 119 55 230 c 256
134 230 m 256
 107 157 127 66 219 66 c 256
 309 66 390 151 419 230 c 256
 443 298 430 390 343 394 c 256
 249 398 164 312 134 230 c 256
375 -130 m 257
 391 -183 l 257
 362 -202 333 -218 298 -219 c 256
 238 -221 193 -181 211 -119 c 256
 233 -46 319 -6 382 24 c 257
 418 0 l 257
 377 -23 309 -49 295 -100 c 256
 289 -122 295 -145 320 -149 c 256
 338 -152 360 -138 375 -130 c 257
EndSplineSet
EndChar

StartChar: dagger
Encoding: 8224 8224 350
GlifName: dagger
Width: 536
VWidth: 0
Flags: HMW
LayerCount: 2
Fore
SplineSet
216 540 m 257
 586 540 l 257
 561 465 l 257
 191 465 l 257
 216 540 l 257
409 700 m 257
 490 700 l 257
 225 -150 l 257
 151 -149 l 257
 409 700 l 257
EndSplineSet
EndChar

StartChar: daggerdbl
Encoding: 8225 8225 351
GlifName: daggerdbl
Width: 536
VWidth: 0
Flags: HMW
LayerCount: 2
Fore
SplineSet
86 120 m 257
 457 120 l 257
 432 45 l 257
 62 45 l 257
 86 120 l 257
216 540 m 257
 586 540 l 257
 561 465 l 257
 191 465 l 257
 216 540 l 257
409 700 m 257
 490 700 l 257
 225 -150 l 257
 151 -149 l 257
 409 700 l 257
EndSplineSet
EndChar

StartChar: ellipsis
Encoding: 8230 8230 352
GlifName: ellipsis
Width: 846
VWidth: 0
Flags: HMW
LayerCount: 2
Fore
SplineSet
48 42 m 256
 54 66 92 97 117 94 c 256
 144 91 159 64 153 38 c 256
 147 14 109 -17 84 -14 c 256
 57 -11 42 16 48 42 c 256
330 42 m 256
 336 66 374 97 399 94 c 256
 426 91 442 64 436 38 c 256
 430 14 391 -17 366 -14 c 256
 339 -11 324 16 330 42 c 256
612 42 m 256
 618 66 656 97 681 94 c 256
 708 91 724 64 718 38 c 256
 712 14 674 -17 649 -14 c 256
 622 -11 606 16 612 42 c 256
EndSplineSet
EndChar

StartChar: uniFF10
Encoding: 65296 65296 353
GlifName: uniF_F_10
Width: 545
VWidth: 0
Flags: HMW
LayerCount: 2
Fore
SplineSet
175 350 m 256
 147 270 99 74 237 71 c 256
 375 68 462 240 501 350 c 256
 529 430 578 626 440 629 c 256
 302 632 214 460 175 350 c 256
92 350 m 256
 143 504 270 710 455 709 c 256
 644 708 625 476 584 350 c 256
 533 196 406 -10 221 -9 c 256
 32 -8 51 224 92 350 c 256
EndSplineSet
EndChar

StartChar: uniFF11
Encoding: 65297 65297 354
GlifName: uniF_F_11
Width: 545
VWidth: 0
Flags: HMW
LayerCount: 2
Fore
SplineSet
242 561 m 257
 275 652 l 257
 525 711 l 257
 280 0 l 257
 197 0 l 257
 405 605 l 257
 242 561 l 257
EndSplineSet
EndChar

StartChar: uniFF12
Encoding: 65298 65298 355
GlifName: uniF_F_12
Width: 545
VWidth: 0
Flags: HMW
LayerCount: 2
Fore
SplineSet
-30 0 m 257
 396 353 l 258
 446 394 501 443 523 506 c 256
 544 566 520 627 451 630 c 256
 351 634 284 541 246 461 c 257
 164 462 l 257
 215 588 318 712 467 710 c 256
 586 709 637 605 603 499 c 256
 578 421 516 358 454 307 c 258
 166 81 l 257
 465 80 l 257
 438 0 l 257
 -30 0 l 257
EndSplineSet
EndChar

StartChar: uniFF13
Encoding: 65299 65299 356
GlifName: uniF_F_13
Width: 545
VWidth: 0
Flags: HMW
LayerCount: 2
Fore
SplineSet
317 346 m 257
 334 400 l 257
 409 412 481 445 510 521 c 256
 529 572 518 630 455 632 c 256
 387 634 337 580 305 527 c 257
 225 528 l 257
 269 626 354 710 468 709 c 256
 571 708 626 618 595 523 c 256
 557 404 431 355 317 346 c 257
231 -9 m 256
 113 -9 58 75 79 185 c 257
 161 184 l 257
 152 120 174 72 246 71 c 256
 320 70 392 126 417 195 c 256
 448 281 384 315 310 325 c 257
 327 379 l 257
 441 371 539 313 498 184 c 256
 462 72 348 -9 231 -9 c 256
EndSplineSet
EndChar

StartChar: uniFF14
Encoding: 65300 65300 357
GlifName: uniF_F_14
Width: 545
VWidth: 0
Flags: HMW
LayerCount: 2
Fore
SplineSet
5 141 m 257
 98 214 l 257
 381 215 l 257
 397 215 l 257
 541 215 l 257
 515 140 l 257
 5 141 l 257
99 142 m 257
 5 141 l 257
 564 698 l 257
 600 699 l 257
 361 0 l 257
 278 0 l 257
 339 176 l 257
 343 187 l 257
 452 500 l 257
 99 142 l 257
EndSplineSet
EndChar

StartChar: uniFF15
Encoding: 65301 65301 358
GlifName: uniF_F_15
Width: 545
VWidth: 0
Flags: HMW
LayerCount: 2
Fore
SplineSet
527 230 m 256
 485 98 360 -9 218 -9 c 256
 118 -9 57 48 27 139 c 257
 109 185 l 257
 127 123 164 72 234 71 c 256
 328 70 410 145 441 230 c 256
 468 305 442 384 354 389 c 256
 285 393 220 359 160 330 c 257
 224 393 l 257
 272 434 339 466 403 465 c 256
 532 464 560 333 527 230 c 256
415 625 m 257
 289 414 l 257
 148 319 l 257
 371 699 l 257
 686 700 l 257
 661 626 l 257
 415 625 l 257
EndSplineSet
EndChar

StartChar: uniFF16
Encoding: 65302 65302 359
GlifName: uniF_F_16
Width: 545
VWidth: 0
Flags: HMW
LayerCount: 2
Fore
SplineSet
150 230 m 256
 123 157 146 69 236 68 c 256
 329 67 414 147 444 230 c 256
 471 303 450 393 359 394 c 256
 266 395 180 313 150 230 c 256
493 699 m 257
 603 699 l 257
 296 412 l 257
 288 421 l 257
 323 442 357 457 399 456 c 256
 521 453 554 328 523 229 c 256
 483 102 358 -9 221 -9 c 256
 86 -9 35 113 72 230 c 256
 89 284 121 334 160 375 c 258
 493 699 l 257
EndSplineSet
EndChar

StartChar: uniFF17
Encoding: 65303 65303 360
GlifName: uniF_F_17
Width: 545
VWidth: 0
Flags: HMW
LayerCount: 2
Fore
SplineSet
210 620 m 257
 238 700 l 257
 705 699 l 257
 148 0 l 257
 57 0 l 257
 549 619 l 257
 210 620 l 257
EndSplineSet
EndChar

StartChar: uniFF18
Encoding: 65304 65304 361
GlifName: uniF_F_18
Width: 545
VWidth: 0
Flags: HMW
LayerCount: 2
Fore
SplineSet
217 532 m 256
 248 629 352 710 455 709 c 256
 554 708 611 623 583 530 c 256
 552 429 451 356 346 356 c 256
 244 356 186 435 217 532 c 256
291 521 m 256
 273 470 293 413 353 411 c 256
 415 409 481 465 502 521 c 256
 521 572 503 632 441 634 c 256
 377 636 312 579 291 521 c 256
77 191 m 256
 112 303 228 390 346 389 c 256
 459 389 524 297 490 189 c 256
 455 79 337 -10 221 -9 c 256
 111 -8 45 87 77 191 c 256
158 200 m 256
 135 136 161 68 235 66 c 256
 311 64 391 130 416 200 c 256
 437 261 411 332 339 334 c 256
 264 336 183 267 158 200 c 256
EndSplineSet
EndChar

StartChar: uniFF19
Encoding: 65305 65305 362
GlifName: uniF_F_19
Width: 545
VWidth: 0
Flags: HMW
LayerCount: 2
Fore
SplineSet
526 470 m 256
 553 543 531 631 441 632 c 256
 348 633 262 553 232 470 c 256
 205 397 226 307 317 306 c 256
 410 305 496 387 526 470 c 256
183 0 m 257
 73 0 l 257
 380 288 l 257
 389 279 l 257
 354 258 320 243 278 244 c 256
 156 247 122 372 153 471 c 256
 193 598 318 709 455 709 c 256
 590 709 642 587 605 470 c 256
 588 416 555 366 516 325 c 258
 183 0 l 257
EndSplineSet
EndChar

StartChar: caron
Encoding: 711 711 363
GlifName: caron
Width: 451
VWidth: 0
Flags: HMW
LayerCount: 2
Fore
SplineSet
390 656 m 257
 527 749 l 257
 566 707 l 257
 370 570 l 257
 262 712 l 257
 319 749 l 257
 390 656 l 257
EndSplineSet
EndChar

StartChar: napostrophe
Encoding: 329 329 364
GlifName: napostrophe
Width: 597
VWidth: 0
Flags: HMW
LayerCount: 2
Fore
SplineSet
355 460 m 257
 196 0 l 257
 117 0 l 257
 276 460 l 257
 355 460 l 257
493 280 m 258
 508 329 513 391 446 394 c 256
 375 397 324 337 292 282 c 257
 255 282 l 257
 295 371 371 469 479 469 c 256
 584 469 597 372 573 290 c 256
 472 0 l 257
 398 0 l 257
 493 280 l 258
304 699 m 257
 402 699 l 257
 226 472 l 257
 171 472 l 257
 304 699 l 257
EndSplineSet
EndChar

StartChar: IJ
Encoding: 306 306 365
GlifName: I_J_
Width: 461
VWidth: 0
Flags: HMW
LayerCount: 2
Fore
SplineSet
78 -105 m 257
 94 -126 110 -142 139 -140 c 256
 187 -136 220 -90 237 -50 c 257
 495 700 l 257
 573 700 l 257
 314 -61 l 258
 282 -145 214 -221 118 -219 c 256
 75 -218 45 -199 17 -168 c 257
 78 -105 l 257
257 699 m 257
 343 700 l 257
 101 0 l 257
 22 0 l 257
 257 699 l 257
EndSplineSet
EndChar

StartChar: ij
Encoding: 307 307 366
GlifName: ij
Width: 479
VWidth: 0
Flags: HMW
LayerCount: 2
Fore
SplineSet
472 652 m 256
 478 676 517 707 542 704 c 256
 569 701 584 674 578 648 c 256
 572 624 534 593 509 596 c 256
 482 599 466 626 472 652 c 256
131 -115 m 257
 140 -115 156 -140 168 -141 c 256
 210 -145 235 -80 246 -50 c 258
 422 460 l 257
 501 460 l 257
 323 -61 l 258
 295 -137 237 -223 145 -219 c 256
 111 -218 92 -201 70 -177 c 257
 131 -115 l 257
237 652 m 256
 243 676 281 707 306 704 c 256
 333 701 349 674 343 648 c 256
 337 624 299 593 274 596 c 256
 247 599 231 626 237 652 c 256
184 459 m 257
 266 460 l 257
 105 0 l 257
 31 0 l 257
 184 459 l 257
EndSplineSet
EndChar

StartChar: uni0237
Encoding: 567 567 367
GlifName: uni0237
Width: 235
VWidth: 0
Flags: HMW
LayerCount: 2
Fore
SplineSet
-113 -115 m 257
 -104 -127 -95 -141 -77 -141 c 256
 -34 -140 -11 -83 2 -50 c 258
 177 460 l 257
 256 460 l 257
 79 -61 l 258
 51 -137 -7 -223 -99 -219 c 256
 -133 -218 -153 -201 -174 -177 c 257
 -113 -115 l 257
EndSplineSet
EndChar

StartChar: Sacute
Encoding: 346 346 368
GlifName: S_acute
Width: 515
VWidth: 0
Flags: HMW
LayerCount: 2
Fore
SplineSet
126 226 m 257
 134 155 153 72 241 71 c 256
 310 70 374 119 398 183 c 256
 428 264 366 306 302 338 c 256
 223 378 168 444 197 536 c 256
 229 638 339 710 444 709 c 256
 537 708 588 643 603 558 c 257
 524 514 l 257
 513 569 495 626 429 628 c 256
 368 629 301 587 281 529 c 256
 255 456 330 423 383 396 c 256
 466 354 515 284 486 189 c 256
 452 75 341 -10 221 -9 c 256
 107 -8 58 84 45 185 c 257
 126 226 l 257
692 915 m 257
 474 772 l 257
 436 803 l 257
 630 959 l 257
 692 915 l 257
EndSplineSet
EndChar

StartChar: sacute
Encoding: 347 347 369
GlifName: sacute
Width: 379
VWidth: 0
Flags: HMW
LayerCount: 2
Fore
SplineSet
84 160 m 257
 87 110 103 67 160 66 c 256
 198 65 246 86 260 124 c 256
 278 172 233 196 198 215 c 256
 145 244 93 282 114 350 c 256
 136 422 220 468 292 469 c 256
 357 470 404 439 424 378 c 257
 353 340 l 257
 335 368 314 393 277 393 c 256
 246 393 199 376 189 343 c 256
 176 300 237 281 265 266 c 256
 317 238 360 192 343 129 c 256
 320 42 227 -11 141 -9 c 256
 59 -8 14 46 10 124 c 257
 84 160 l 257
540 675 m 257
 322 532 l 257
 284 563 l 257
 477 719 l 257
 540 675 l 257
EndSplineSet
EndChar

StartChar: Scircumflex
Encoding: 348 348 370
GlifName: S_circumflex
Width: 515
VWidth: 0
Flags: HMW
LayerCount: 2
Fore
SplineSet
126 226 m 257
 134 155 153 72 241 71 c 256
 310 70 374 119 398 183 c 256
 428 264 366 306 302 338 c 256
 223 378 168 444 197 536 c 256
 229 638 339 710 444 709 c 256
 537 708 588 643 603 558 c 257
 524 514 l 257
 513 569 495 626 429 628 c 256
 368 629 301 587 281 529 c 256
 255 456 330 423 383 396 c 256
 466 354 514 284 485 189 c 256
 451 75 341 -10 221 -9 c 256
 107 -8 58 84 45 185 c 257
 126 226 l 257
508 864 m 257
 370 771 l 257
 332 813 l 257
 528 950 l 257
 636 808 l 257
 579 771 l 257
 508 864 l 257
EndSplineSet
EndChar

StartChar: scircumflex
Encoding: 349 349 371
GlifName: scircumflex
Width: 379
VWidth: 0
Flags: HMW
LayerCount: 2
Fore
SplineSet
84 160 m 257
 87 110 104 67 161 66 c 256
 199 65 246 86 260 124 c 256
 278 172 233 196 198 215 c 256
 145 244 93 282 114 350 c 256
 136 422 220 468 292 469 c 256
 357 470 404 439 424 378 c 257
 353 340 l 257
 335 368 314 393 277 393 c 256
 246 393 199 376 189 343 c 256
 176 300 237 281 265 266 c 256
 317 238 360 192 343 129 c 256
 320 42 227 -11 141 -9 c 256
 59 -8 14 46 10 124 c 257
 84 160 l 257
355 624 m 257
 218 531 l 257
 179 573 l 257
 375 710 l 257
 483 568 l 257
 426 531 l 257
 355 624 l 257
EndSplineSet
EndChar

StartChar: uni1E9E
Encoding: 7838 7838 372
Width: 673
VWidth: 0
Flags: HMW
LayerCount: 2
Fore
SplineSet
375 -9 m 256
 257 -9 202 75 223 185 c 257
 305 184 l 257
 296 120 318 72 390 71 c 256
 464 70 536 126 561 195 c 256
 592 281 528 315 454 325 c 257
 471 379 l 257
 585 371 683 313 642 184 c 256
 606 72 492 -9 375 -9 c 256
461 346 m 257
 478 400 l 257
 551 412 628 445 654 521 c 256
 681 598 607 632 542 632 c 256
 393.986 632 284 516 235 386 c 258
 102 0 l 257
 18 0 l 257
 151 386 l 258
 213 561 360 710 556 710 c 256
 659 710 779 655 742 533 c 256
 705 410 579 356 461 346 c 257
EndSplineSet
EndChar

StartChar: Zacute
Encoding: 377 377 373
Width: 512
VWidth: 0
Flags: HW
LayerCount: 2
Fore
SplineSet
188 620 m 257
 217 700 l 257
 683 699 l 257
 125 81 l 257
 451 80 l 257
 422 0 l 257
 -45 0 l 257
 514 619 l 257
 188 620 l 257
675 915 m 257
 457 772 l 257
 419 803 l 257
 613 959 l 257
 675 915 l 257
EndSplineSet
EndChar

StartChar: zacute
Encoding: 378 378 374
Width: 432
VWidth: 0
Flags: HW
LayerCount: 2
Fore
SplineSet
355 384 m 257
 117 385 l 257
 144 460 l 257
 527 459 l 257
 126 76 l 257
 374 75 l 257
 347 0 l 257
 -45 0 l 257
 355 384 l 257
567 695 m 257
 349 552 l 257
 311 583 l 257
 505 739 l 257
 567 695 l 257
EndSplineSet
EndChar

StartChar: Zdotaccent
Encoding: 379 379 375
Width: 512
VWidth: 0
Flags: HW
LayerCount: 2
Fore
SplineSet
188 620 m 257
 217 700 l 257
 683 699 l 257
 125 81 l 257
 451 80 l 257
 422 0 l 257
 -45 0 l 257
 514 619 l 257
 188 620 l 257
438 827 m 256
 444 851 482 882 507 879 c 256
 534 876 550 849 544 823 c 256
 538 799 499 768 474 771 c 256
 447 774 432 801 438 827 c 256
EndSplineSet
EndChar

StartChar: zdotaccent
Encoding: 380 380 376
Width: 432
VWidth: 0
Flags: HW
LayerCount: 2
Fore
SplineSet
355 384 m 257
 117 385 l 257
 144 460 l 257
 527 459 l 257
 126 76 l 257
 374 75 l 257
 347 0 l 257
 -45 0 l 257
 355 384 l 257
333 617 m 256
 339 641 378 672 403 669 c 256
 430 666 445 639 439 613 c 256
 433 589 395 558 370 561 c 256
 343 564 327 591 333 617 c 256
EndSplineSet
EndChar

StartChar: Tcaron
Encoding: 356 356 377
Width: 437
VWidth: 0
Flags: HW
LayerCount: 2
Fore
SplineSet
164 620 m 257
 193 700 l 257
 615 700 l 257
 587 620 l 257
 418 620 l 257
 205 0 l 257
 122 0 l 257
 335 620 l 257
 164 620 l 257
451 856 m 257
 589 949 l 257
 627 907 l 257
 431 770 l 257
 323 912 l 257
 380 949 l 257
 451 856 l 257
EndSplineSet
EndChar

StartChar: tcaron
Encoding: 357 357 378
Width: 329
VWidth: 0
Flags: HW
LayerCount: 2
Fore
SplineSet
107 460 m 257
 326 460 l 257
 299 385 l 257
 79 385 l 257
 107 460 l 257
230 619 m 257
 311 620 l 257
 96 0 l 257
 22 0 l 257
 230 619 l 257
496 808 m 257
 568 776 l 257
 379 532 l 257
 327 553 l 257
 496 808 l 257
EndSplineSet
EndChar

StartChar: Uring
Encoding: 366 366 379
Width: 589
VWidth: 0
Flags: HW
LayerCount: 2
Fore
SplineSet
255 700 m 257
 338 700 l 257
 175 230 l 258
 152 155 165 73 259 71 c 256
 355 69 428 147 461 230 c 256
 623 700 l 257
 706 700 l 257
 545 230 l 258
 499 104 385 -9 243 -9 c 256
 106 -9 59 111 94 230 c 256
 255 700 l 257
440 872 m 256
 455 922 513 970 567 969 c 256
 621 968 650 917 635 868 c 256
 620 818 561 770 507 771 c 256
 453 772 425 823 440 872 c 256
489 869 m 256
 483 849 493 821 516 818 c 256
 540 814 580 849 586 871 c 256
 592 891 582 919 559 922 c 256
 535 926 495 891 489 869 c 256
EndSplineSet
EndChar

StartChar: uring
Encoding: 367 367 380
Width: 493
VWidth: 0
Flags: HW
LayerCount: 2
Fore
SplineSet
291 0 m 257
 450 460 l 257
 529 460 l 257
 370 0 l 257
 291 0 l 257
153 180 m 258
 138 131 133 69 200 66 c 256
 271 63 322 123 354 178 c 257
 381 178 l 257
 343 90 274 -9 167 -9 c 256
 62 -9 49 88 73 170 c 256
 174 460 l 257
 248 459 l 257
 153 180 l 258
310 632 m 256
 325 682 384 730 438 729 c 256
 492 728 520 677 505 628 c 256
 490 578 432 530 378 531 c 256
 324 532 295 583 310 632 c 256
359 629 m 256
 353 609 363 581 386 578 c 256
 410 574 450 609 456 631 c 256
 462 651 452 679 429 682 c 256
 405 686 365 651 359 629 c 256
EndSplineSet
EndChar

StartChar: uni0400
Encoding: 1024 1024 381
Width: 517
VWidth: 0
Flags: HW
LayerCount: 2
Fore
SplineSet
67 0 m 257
 92 80 l 257
 429 80 l 257
 403 0 l 257
 67 0 l 257
278 621 m 257
 303 700 l 257
 641 700 l 257
 614 621 l 257
 278 621 l 257
183 341 m 257
 208 420 l 257
 526 420 l 257
 500 341 l 257
 183 341 l 257
255 699 m 257
 345 700 l 257
 101 0 l 257
 22 0 l 257
 255 699 l 257
366.8359375 921 m 257
 447.8359375 959 l 257
 544.8359375 797 l 257
 495.8359375 770 l 257
 366.8359375 921 l 257
EndSplineSet
EndChar

StartChar: uni0401
Encoding: 1025 1025 382
Width: 517
VWidth: 0
Flags: HW
LayerCount: 2
Fore
SplineSet
67 0 m 257
 92 80 l 257
 429 80 l 257
 403 0 l 257
 67 0 l 257
278 621 m 257
 303 700 l 257
 641 700 l 257
 614 621 l 257
 278 621 l 257
183 341 m 257
 208 420 l 257
 526 420 l 257
 500 341 l 257
 183 341 l 257
255 699 m 257
 345 700 l 257
 101 0 l 257
 22 0 l 257
 255 699 l 257
555.299804688 826.202148438 m 256
 560.299804688 850.202148438 598.299804688 881.202148438 623.299804688 878.202148438 c 256
 650.299804688 875.202148438 666.299804688 848.202148438 661.299804688 822.202148438 c 256
 656.299804688 798.202148438 618.299804688 767.202148438 593.299804688 770.202148438 c 256
 566.299804688 773.202148438 550.299804688 800.202148438 555.299804688 826.202148438 c 256
367.299804688 826.202148438 m 256
 372.299804688 850.202148438 410.299804688 881.202148438 435.299804688 878.202148438 c 256
 462.299804688 875.202148438 478.299804688 848.202148438 473.299804688 822.202148438 c 256
 468.299804688 798.202148438 430.299804688 767.202148438 405.299804688 770.202148438 c 256
 378.299804688 773.202148438 362.299804688 800.202148438 367.299804688 826.202148438 c 256
EndSplineSet
EndChar

StartChar: uni0403
Encoding: 1027 1027 383
Width: 409
VWidth: 0
Flags: HW
LayerCount: 2
Fore
SplineSet
254 699 m 257
 588 700 l 257
 559 620 l 257
 316 620 l 257
 101 0 l 257
 22 0 l 257
 254 699 l 257
635.8359375 914 m 261
 421.8359375 770 l 261
 383.8359375 801 l 261
 571.8359375 957 l 261
 635.8359375 914 l 261
EndSplineSet
EndChar

StartChar: uni040C
Encoding: 1036 1036 384
Width: 531
VWidth: 0
Flags: HW
LayerCount: 2
Fore
SplineSet
255 699 m 257
 345 700 l 257
 101 0 l 257
 22 0 l 257
 255 699 l 257
592 699 m 257
 706 699 l 257
 299 365 l 257
 469 0 l 257
 378 0 l 257
 203 377 l 257
 592 699 l 257
695 913 m 261
 479 771 l 261
 438 805 l 261
 630 959 l 261
 695 913 l 261
EndSplineSet
EndChar

StartChar: uni040D
Encoding: 1037 1037 385
Width: 729
VWidth: 0
Flags: HW
LayerCount: 2
Fore
SplineSet
802 599 m 257
 -1 -47 l 257
 58 101 l 257
 860 748 l 257
 802 599 l 257
344 700 m 257
 127 68 l 257
 -1 -47 l 261
 258 700 l 257
 344 700 l 257
860 748 m 257
 601 0 l 257
 516 0 l 257
 732 632 l 257
 860 748 l 257
429 898 m 257
 511 936 l 257
 604 772 l 257
 556 745 l 257
 429 898 l 257
EndSplineSet
EndChar

StartChar: uni040E
Encoding: 1038 1038 386
Width: 531
VWidth: 0
Flags: HW
LayerCount: 2
Fore
SplineSet
724 700 m 261
 173 0 l 257
 71 0 l 257
 235 215 l 257
 186 700 l 257
 277 700 l 257
 313 230 l 257
 266 236 l 257
 622 700 l 261
 724 700 l 261
361.6640625 909 m 257
 428.6640625 909 l 257
 426.6640625 869 436.6640625 836 483.6640625 835 c 256
 534.6640625 834 566.6640625 869 591.6640625 908 c 257
 661.6640625 907 l 257
 626.6640625 831 562.6640625 770 473.6640625 770 c 256
 387.6640625 770 352.6640625 830 361.6640625 909 c 257
EndSplineSet
EndChar

StartChar: uni0410
Encoding: 1040 1040 387
Width: 620
VWidth: 0
Flags: HW
LayerCount: 2
Fore
SplineSet
156 212 m 257
 208 289 l 257
 504 290 l 257
 508 209 l 257
 156 212 l 257
448 542 m 257
 241 264 l 257
 228 246 l 257
 45 0 l 257
 -57 0 l 257
 507 741 l 257
 561 0 l 257
 473 0 l 257
 459 240 l 257
 459 260 l 257
 448 542 l 257
EndSplineSet
EndChar

StartChar: uni0411
Encoding: 1041 1041 388
Width: 515
VWidth: 0
Flags: HW
LayerCount: 2
Fore
SplineSet
177 340 m 257
 207 420 l 257
 334 420 l 256
 453 415 535 330 498 209 c 256
 460 84 336 5 209 0 c 256
 61 0 l 257
 90 80 l 257
 218 80 l 258
 301 84 383 129 414 210 c 256
 443 286 400 334 324 339 c 257
 177 340 l 257
254 699 m 257
 616 700 l 257
 588 620 l 257
 316 620 l 257
 101 0 l 257
 22 0 l 257
 254 699 l 257
EndSplineSet
EndChar

StartChar: uni0412
Encoding: 1042 1042 389
Width: 525
VWidth: 0
Flags: HW
LayerCount: 2
Fore
SplineSet
210 371 m 257
 224 416 l 257
 325 417 l 257
 390 422 459 456 483 520 c 256
 505 579 471 619 412 624 c 257
 317 625 l 257
 129 75 l 257
 216 76 l 257
 301 81 383 129 414 210 c 256
 443 286 401 336 324 342 c 257
 200 344 l 257
 215 389 l 257
 325 390 l 256
 436 387 532 327 496 204 c 256
 459 77 336 5 209 0 c 256
 18 0 l 257
 258 700 l 257
 420 700 l 256
 523 696 603 634 568 524 c 256
 535 419 426 374 324 371 c 258
 210 371 l 257
EndSplineSet
EndChar

StartChar: uni0413
Encoding: 1043 1043 390
Width: 409
VWidth: 0
Flags: HW
LayerCount: 2
Fore
SplineSet
254 699 m 257
 588 700 l 257
 559 620 l 257
 316 620 l 257
 101 0 l 257
 22 0 l 257
 254 699 l 257
EndSplineSet
EndChar

StartChar: uni0414
Encoding: 1044 1044 391
Width: 748
VWidth: 0
Flags: HW
LayerCount: 2
Fore
SplineSet
508 543 m 257
 149 31 l 257
 53 31 l 257
 569 741 l 257
 594 30 l 257
 515 30 l 257
 508 543 l 257
585 0 m 257
 58 0 l 257
 19 -109 l 257
 -56 -109 l 257
 9 80 l 257
 683 80 l 257
 616 -109 l 257
 544 -109 l 257
 585 0 l 257
EndSplineSet
EndChar

StartChar: uni0415
Encoding: 1045 1045 392
Width: 517
VWidth: 0
Flags: HW
LayerCount: 2
Fore
SplineSet
67 0 m 257
 92 80 l 257
 429 80 l 257
 403 0 l 257
 67 0 l 257
278 621 m 257
 303 700 l 257
 641 700 l 257
 614 621 l 257
 278 621 l 257
183 341 m 257
 208 420 l 257
 526 420 l 257
 500 341 l 257
 183 341 l 257
255 699 m 257
 345 700 l 257
 101 0 l 257
 22 0 l 257
 255 699 l 257
EndSplineSet
EndChar

StartChar: uni0416
Encoding: 1046 1046 393
Width: 842
VWidth: 0
Flags: HW
LayerCount: 2
Fore
SplineSet
298 700 m 257
 473 363 l 257
 56 0 l 257
 -58 0 l 257
 378 379 l 257
 208 700 l 257
 298 700 l 257
565 699 m 257
 655 700 l 257
 412 0 l 257
 333 0 l 257
 565 699 l 257
902 699 m 257
 1017 699 l 257
 610 365 l 257
 779 0 l 257
 688 0 l 257
 523 378 l 257
 902 699 l 257
EndSplineSet
EndChar

StartChar: uni0417
Encoding: 1047 1047 394
Width: 570
VWidth: 0
Flags: HW
LayerCount: 2
Fore
SplineSet
330 346 m 257
 345 399 l 257
 426 409 518 438 550 521 c 256
 575 586 536 631 470 632 c 256
 393 634 331 589 291 527 c 257
 209 528 l 257
 256 637 356 710 477 709 c 256
 582 708 669 633 636 523 c 256
 597 394 449 353 330 346 c 257
246 -9 m 256
 123 -9 41 59 62 185 c 257
 144 184 l 257
 137 107 178 71 255 71 c 256
 338 71 427 113 457 195 c 256
 493 293 399 319 323 326 c 257
 340 381 l 261
 456 376 581 325 539 184 c 256
 501 59 370 -9 246 -9 c 256
EndSplineSet
EndChar

StartChar: uni0418
Encoding: 1048 1048 395
Width: 729
VWidth: 0
Flags: HW
LayerCount: 2
Fore
SplineSet
802 599 m 257
 -1 -47 l 257
 58 101 l 257
 860 748 l 261
 802 599 l 257
344 700 m 257
 127 68 l 257
 -1 -47 l 257
 258 700 l 257
 344 700 l 257
860 748 m 257
 601 0 l 257
 516 0 l 257
 732 632 l 257
 860 748 l 257
EndSplineSet
EndChar

StartChar: uni0419
Encoding: 1049 1049 396
Width: 729
VWidth: 0
Flags: HW
LayerCount: 2
Fore
SplineSet
802 599 m 257
 -1 -47 l 257
 58 101 l 257
 860 748 l 257
 802 599 l 257
344 700 m 257
 127 68 l 257
 -1 -47 l 257
 258 700 l 257
 344 700 l 257
860 748 m 257
 601 0 l 257
 516 0 l 257
 732 632 l 257
 860 748 l 257
456.807617188 907 m 261
 523.807617188 907 l 261
 521.807617188 867 531.807617188 834 578.807617188 833 c 260
 629.807617188 832 661.807617188 867 686.807617188 906 c 261
 756.807617188 905 l 261
 721.807617188 829 657.807617188 768 568.807617188 768 c 260
 482.807617188 768 447.807617188 828 456.807617188 907 c 261
EndSplineSet
EndChar

StartChar: uni041A
Encoding: 1050 1050 397
Width: 531
VWidth: 0
Flags: HW
LayerCount: 2
Fore
SplineSet
255 699 m 257
 345 700 l 257
 101 0 l 257
 22 0 l 257
 255 699 l 257
592 699 m 257
 706 699 l 257
 299 365 l 257
 469 0 l 257
 378 0 l 257
 203 377 l 257
 592 699 l 257
EndSplineSet
EndChar

StartChar: uni041B
Encoding: 1051 1051 398
Width: 619
VWidth: 0
Flags: HW
LayerCount: 2
Fore
SplineSet
732 700 m 257
 491 0 l 257
 406 0 l 257
 619 620 l 257
 333 620 l 257
 204 239 l 258
 161 119 86 22 -45 2 c 257
 -23 72 l 257
 62 100 99 181 128 260 c 258
 279 700 l 257
 732 700 l 257
EndSplineSet
EndChar

StartChar: uni041C
Encoding: 1052 1052 399
Width: 762
VWidth: 0
Flags: HW
LayerCount: 2
Fore
SplineSet
277 470 m 257
 66 0 l 257
 -22 0 l 257
 313 738 l 257
 401 233 l 257
 848 747 l 257
 671 0 l 257
 587 0 l 257
 699 459 l 257
 351 61 l 257
 277 470 l 257
EndSplineSet
EndChar

StartChar: uni041D
Encoding: 1053 1053 400
Width: 672
VWidth: 0
Flags: HW
LayerCount: 2
Fore
SplineSet
183 341 m 257
 208 420 l 257
 665 420 l 257
 638 341 l 257
 183 341 l 257
697 699 m 257
 787 700 l 257
 544 0 l 257
 464 0 l 257
 697 699 l 257
255 699 m 257
 345 700 l 257
 101 0 l 257
 22 0 l 257
 255 699 l 257
EndSplineSet
EndChar

StartChar: uni041E
Encoding: 1054 1054 401
Width: 743
VWidth: 0
Flags: HW
LayerCount: 2
Fore
SplineSet
190 350 m 256
 145 227 181 78 334 76 c 256
 491 74 633 210 684 350 c 256
 729 473 693 622 540 624 c 256
 383 626 241 490 190 350 c 256
100 350 m 256
 160 538 345 711 550 710 c 256
 748 709 828 522 774 350 c 256
 714 162 528 -11 323 -10 c 256
 125 -9 46 178 100 350 c 256
EndSplineSet
EndChar

StartChar: uni041F
Encoding: 1055 1055 402
Width: 672
VWidth: 0
Flags: HW
LayerCount: 2
Fore
SplineSet
678 621 m 257
 316 620 l 257
 103 0 l 257
 17 0 l 257
 258 700 l 257
 785 700 l 257
 544 0 l 257
 464 0 l 257
 678 621 l 257
EndSplineSet
EndChar

StartChar: uni0420
Encoding: 1056 1056 403
Width: 515
VWidth: 0
Flags: HW
LayerCount: 2
Fore
SplineSet
255 699 m 257
 345 700 l 257
 101 0 l 257
 22 0 l 257
 255 699 l 257
273 620 m 257
 302 700 l 257
 430 700 l 256
 549 695 631 610 594 489 c 256
 556 364 431 285 304 280 c 256
 157 280 l 257
 186 360 l 257
 314 360 l 258
 397 364 479 409 510 490 c 256
 539 566 496 614 420 619 c 257
 273 620 l 257
EndSplineSet
EndChar

StartChar: uni0421
Encoding: 1057 1057 404
Width: 644
VWidth: 0
Flags: HW
LayerCount: 2
Fore
SplineSet
190 350 m 256
 146 231 179 79 329 76 c 256
 423 74 510 124 584 177 c 257
 551 66 l 257
 481 20 403 -11 318 -10 c 256
 121 -8 46 181 100 350 c 256
 159 538 342 708 546 710 c 256
 623 711 686 686 741 632 c 257
 707 521 l 257
 671 589 613 624 535 624 c 256
 381 623 241 488 190 350 c 256
EndSplineSet
EndChar

StartChar: uni0422
Encoding: 1058 1058 405
Width: 437
VWidth: 0
Flags: HW
LayerCount: 2
Fore
SplineSet
163 620 m 257
 192 700 l 257
 616 700 l 257
 588 620 l 257
 419 620 l 257
 206 0 l 257
 121 0 l 257
 334 620 l 257
 163 620 l 257
EndSplineSet
EndChar

StartChar: uni0423
Encoding: 1059 1059 406
Width: 531
VWidth: 0
Flags: HW
LayerCount: 2
Fore
SplineSet
724 700 m 261
 173 0 l 257
 71 0 l 257
 235 215 l 257
 186 700 l 257
 277 700 l 257
 313 230 l 257
 266 236 l 257
 622 700 l 261
 724 700 l 261
EndSplineSet
EndChar

StartChar: uni0424
Encoding: 1060 1060 407
Width: 736
VWidth: 0
Flags: HW
LayerCount: 2
Fore
SplineSet
508 699 m 257
 598 700 l 257
 355 0 l 257
 275 0 l 257
 508 699 l 257
683 350 m 256
 727 466 645 530 535 534 c 256
 476 535 l 258
 354 531 229 470 184 350 c 256
 140 234 222 170 332 166 c 256
 391 165 l 258
 513 169 638 230 683 350 c 256
767 350 m 256
 715 184 548 85 380 80 c 256
 321 80 l 256
 166 84 50 189 100 350 c 256
 152 516 319 615 487 620 c 256
 546 620 l 256
 701 616 817 511 767 350 c 256
EndSplineSet
EndChar

StartChar: uni0425
Encoding: 1061 1061 408
Width: 522
VWidth: 0
Flags: HW
LayerCount: 2
Fore
SplineSet
584 699 m 257
 691 699 l 257
 374 359 l 257
 456 0 l 257
 366 0 l 257
 313 288 l 257
 55 0 l 257
 -53 0 l 257
 296 375 l 257
 220 700 l 257
 310 700 l 257
 357 446 l 257
 584 699 l 257
EndSplineSet
EndChar

StartChar: uni0426
Encoding: 1062 1062 409
Width: 715
VWidth: 0
Flags: HW
LayerCount: 2
Fore
SplineSet
125 79 m 257
 487 80 l 257
 700 700 l 257
 786 700 l 257
 573 80 l 257
 654 80 l 257
 588 -109 l 257
 513 -109 l 257
 551 0 l 257
 18 0 l 257
 260 700 l 257
 339 699 l 257
 125 79 l 257
EndSplineSet
EndChar

StartChar: uni0427
Encoding: 1063 1063 410
Width: 578
VWidth: 0
Flags: HW
LayerCount: 2
Fore
SplineSet
315 281 m 257
 339 355 l 257
 549 355 l 257
 523 281 l 257
 315 281 l 257
603 699 m 257
 693 700 l 257
 450 0 l 257
 370 0 l 257
 603 699 l 257
339 700 m 257
 274 518 l 258
 246.149321267 440.018099548 263 355 339 355 c 257
 315 281 l 261
 204 281 161 403 196 518 c 256
 258 700 l 257
 339 700 l 257
EndSplineSet
EndChar

StartChar: uni0428
Encoding: 1064 1064 411
Width: 926
VWidth: 0
Flags: HW
LayerCount: 2
Fore
SplineSet
741 80 m 257
 954 700 l 257
 1040 700 l 257
 800 0 l 257
 18 0 l 257
 258 700 l 257
 344 700 l 257
 131 80 l 257
 393 80 l 257
 606 700 l 257
 692 700 l 257
 479 80 l 257
 741 80 l 257
EndSplineSet
EndChar

